<?xml version="1.0" encoding="UTF-8" standalone="no"?>
<svg
   width="400"
   height="400"
   viewBox="0 0 400 400"
   version="1.1"
   id="svg49"
   xmlns="http://www.w3.org/2000/svg"
   xmlns:svg="http://www.w3.org/2000/svg">
  <defs
     id="defs49" />
  <g
     stroke-linecap="round"
     id="レイヤー_2">
    <path
       id="maskpath"
       style="baseline-shift:baseline;display:inline;overflow:visible;vector-effect:none;fill:#2f2929;stroke-linecap:butt;stroke-linejoin:round;enable-background:accumulate;stop-color:#000000;stop-opacity:1;opacity:1"
       d="m 321.21484,175.69531 a 10,10 0 0 0 -6.48047,12.57031 c 3.21095,10.04525 5.81578,19.34146 6.77344,25.98633 1.00749,7.54763 2.9308,24.2205 2.93164,28.86133 0,0.001 0,0.005 0,0.006 -0.0349,3.41404 -0.11625,8.80978 -0.36133,13.97656 -0.24557,5.17737 -0.87194,10.53319 -1.1289,11.56641 -0.19728,0.69198 -4.12533,8.43482 -4.94531,9.47851 -0.2,0.24019 -3.7091,3.68918 -7.31836,6.68946 -3.62386,3.0124 -7.76421,6.16849 -10.29102,7.86133 -2.19448,1.4697 -19.11267,11.42321 -22.34766,12.74218 -0.001,4.4e-4 -0.007,0.003 -0.008,0.004 -10.24392,4.07111 -21.52577,7.91706 -28.00781,9.39258 -5.72686,1.29213 -16.72208,2.99363 -28.14648,4.26367 -3.55868,0.36243 -8.9827,0.46412 -12.96875,0.99219 a 10,10 0 0 0 -8.59961,11.22656 10,10 0 0 0 11.22656,8.60156 c 0.68554,-0.0908 7.56451,-0.43008 12.40625,-0.92578 a 10.001,10.001 0 0 0 0.084,-0.01 c 11.96585,-1.32841 23.13393,-2.99931 30.41992,-4.64454 a 10.001,10.001 0 0 0 0.0156,-0.004 c 8.70186,-1.98082 20.18127,-6.02023 31.03711,-10.33789 a 10.001,10.001 0 0 0 0.0742,-0.0293 c 8.61302,-3.50631 21.60052,-11.74448 25.94531,-14.6543 3.56319,-2.38716 7.89417,-5.73005 11.94531,-9.09765 4.05115,-3.3676 7.38086,-6.14024 10.11719,-9.52539 a 10.001,10.001 0 0 0 0.041,-0.0508 c 3.91196,-4.90653 6.93595,-10.36922 8.66406,-16.86329 a 10.001,10.001 0 0 0 0.0254,-0.0918 c 1.23555,-4.82613 1.4701,-9.98282 1.73828,-15.63672 0.26818,-5.6539 0.34735,-11.32169 0.38281,-14.82227 a 10.001,10.001 0 0 0 0,-0.10156 c 0,-8.67201 -2.08282,-23.85633 -3.11718,-31.59375 a 10.001,10.001 0 0 0 -0.0137,-0.0977 c -1.28446,-8.93392 -4.1973,-18.84633 -7.52343,-29.25195 a 10,10 0 0 0 -12.57032,-6.48047 z m -224.429684,0 a 10,10 0 0 0 -12.570312,6.48047 c -3.326135,10.40562 -6.238972,20.31803 -7.523438,29.25195 a 10.001,10.001 0 0 0 -0.01367,0.0977 c -1.03436,7.73742 -3.117187,22.92174 -3.117187,31.59375 a 10.001,10.001 0 0 0 0,0.10156 c 0.03546,3.50058 0.114633,9.16837 0.382812,14.82227 0.26818,5.6539 0.502726,10.81059 1.738282,15.63672 a 10.001,10.001 0 0 0 0.02539,0.0918 c 1.728113,6.49407 4.752103,11.95676 8.664063,16.86329 a 10.001,10.001 0 0 0 0.04102,0.0508 c 2.736328,3.38515 6.066041,6.15779 10.117188,9.52539 4.051146,3.3676 8.382126,6.71049 11.945316,9.09765 4.34479,2.90982 17.33229,11.14799 25.94531,14.6543 a 10.001,10.001 0 0 0 0.0742,0.0293 c 10.85584,4.31766 22.33525,8.35707 31.03711,10.33789 a 10.001,10.001 0 0 0 0.0156,0.004 c 7.286,1.64523 18.45408,3.31613 30.41993,4.64454 a 10.001,10.001 0 0 0 0.084,0.01 c 4.84174,0.4957 11.72071,0.83496 12.40625,0.92578 a 10,10 0 0 0 11.22656,-8.60156 10,10 0 0 0 -8.59961,-11.22656 c -3.98605,-0.52807 -9.41007,-0.62976 -12.96875,-0.99219 -11.4244,-1.27004 -22.41962,-2.97154 -28.14648,-4.26367 l -0.01,-0.002 c -0.001,-3.2e-4 -0.004,-0.002 -0.006,-0.002 -6.48394,-1.47751 -17.75454,-5.32005 -27.99218,-9.38867 l -0.008,-0.004 c -3.23498,-1.31897 -20.15317,-11.27248 -22.34765,-12.74218 -2.52681,-1.69284 -6.66716,-4.84893 -10.29102,-7.86133 -3.60926,-3.00028 -7.11836,-6.44927 -7.318359,-6.68946 -0.819984,-1.04369 -4.748031,-8.78653 -4.945313,-9.47851 -0.25696,-1.03322 -0.88333,-6.38904 -1.128906,-11.56641 -0.245074,-5.16678 -0.326384,-10.56252 -0.361328,-13.97656 v -0.006 c 8.39e-4,-4.64083 1.924151,-21.3137 2.93164,-28.86133 0.957667,-6.64487 3.562496,-15.94108 6.773446,-25.98633 A 10,10 0 0 0 96.784593,175.6954 Z M 358.44922,51.210937 a 10.001,10.001 0 0 0 -6.5625,2.455079 c 1.74873,-1.521257 1.16631,-0.804222 0.5039,-0.503907 -0.6624,0.300316 -1.79047,0.765154 -3.17578,1.302735 -2.77062,1.075162 -6.60921,2.46701 -10.87304,4.009765 -8.52767,3.085512 -18.72781,6.75835 -26.83399,10.373047 a 10.001,10.001 0 0 0 -0.0176,0.0078 c -7.48249,3.354223 -15.35397,8.744201 -23.72265,15.007812 a 10.001,10.001 0 0 0 -0.0566,0.04492 c -3.4456,2.617859 -8.8505,6.713201 -13.42188,10.185547 -2.00743,1.524816 -3.71907,2.828063 -5.17578,3.939453 -0.27959,-0.03713 -0.16319,-0.02015 -0.43945,-0.06055 -2.33459,-0.341349 -5.33157,-0.799819 -8.37305,-1.265625 -6.08295,-0.931612 -11.45425,-1.826877 -14.5918,-2.123047 a 10.001,10.001 0 0 0 -0.0449,-0.0039 c -4.12098,-0.370088 -9.46448,-0.151901 -15.43164,-0.0293 -2.98358,0.0613 -5.83698,0.133933 -7.97461,0.19336 -1.06881,0.02971 -1.95728,0.0566 -2.5957,0.07617 -0.6102,0.01871 -0.25602,-0.0085 -1.22461,0.04297 -1.49708,0.06346 -2.52197,0.187659 -4.32617,0.322266 -1.83679,0.137037 -3.95351,0.25937 -4.88867,0.265625 a 10.001,10.001 0 0 0 -0.18946,0.002 c -0.22798,0.0058 -0.41604,0.0047 -0.58593,0 a 10,10 0 0 0 -10.27344,9.718753 10,10 0 0 0 9.71875,10.27343 c 0.50075,0.0139 1.00341,0.0126 1.50586,0.002 2.04327,-0.0155 4.23098,-0.17137 6.20117,-0.31836 1.98322,-0.14797 4.2766,-0.30942 3.72461,-0.28711 a 10.001,10.001 0 0 0 0.13476,-0.006 c -1.06283,0.0575 0.19979,-0.006 0.81641,-0.0254 0.61662,-0.0189 1.48897,-0.045 2.53906,-0.0742 2.10019,-0.0584 4.91241,-0.12951 7.83008,-0.18945 5.82759,-0.11974 13.19426,-0.047 13.21289,-0.0469 0.27967,0.0278 7.3319,1.04507 13.41406,1.97656 3.04728,0.4667 6.06772,0.92838 8.50782,1.28516 2.44009,0.35677 3.25695,0.59926 5.71484,0.70898 a 10.001,10.001 0 0 0 7.83008,-3.24804 c -1.49275,1.63492 -0.94625,0.91239 -0.98242,0.9375 0.0705,-0.0557 0.2254,-0.17567 0.42773,-0.33203 0.40671,-0.31432 1.0173,-0.78232 1.76758,-1.35547 1.50057,-1.14631 3.5703,-2.71985 5.84961,-4.45118 4.53897,-3.44772 9.8992,-7.51318 13.36523,-10.146478 l 0.0254,-0.01758 c 7.83962,-5.865978 15.19637,-10.645911 19.88868,-12.75 0.001,-4.56e-4 0.003,-0.0015 0.004,-0.002 6.96318,-3.103814 16.95797,-6.74199 25.47656,-9.824219 4.26242,-1.542244 8.16125,-2.950084 11.30469,-4.169922 1.57172,-0.609919 2.94416,-1.166253 4.19727,-1.734375 1.21151,-0.549267 2.00952,-0.639318 4.19336,-2.498047 a 10,10 0 0 0 4.36914,-7.667969 10,10 0 0 0 -10,-10 z m -299.660158,0 a 10,10 0 0 0 -10,10 10,10 0 0 0 4.369141,7.667969 c 2.183834,1.858729 2.981843,1.94878 4.193359,2.498047 1.253104,0.568122 2.625546,1.124456 4.197266,1.734375 3.143441,1.219838 7.04227,2.627678 11.304688,4.169922 8.520004,3.08274 18.517146,6.722021 25.480468,9.826172 4.692306,2.104089 12.049056,6.884022 19.888676,12.75 0.009,0.0067 0.0165,0.01091 0.0254,0.01758 3.46603,2.633298 8.82626,6.698758 13.36523,10.146478 2.27931,1.73133 4.34904,3.30487 5.84961,4.45118 0.75028,0.57315 1.36087,1.04115 1.76758,1.35547 0.20233,0.15636 0.35722,0.27637 0.42773,0.33203 -0.0362,-0.0251 0.51033,0.69742 -0.98242,-0.9375 a 10.001,10.001 0 0 0 7.83008,3.24804 c 2.45789,-0.10972 3.27475,-0.35221 5.71484,-0.70898 2.4401,-0.35678 5.46054,-0.81846 8.50782,-1.28516 6.08216,-0.93149 13.13439,-1.94872 13.41406,-1.97656 0.0186,-1.1e-4 7.3853,-0.0729 13.21289,0.0469 2.91767,0.0599 5.72989,0.13106 7.83008,0.18945 1.05009,0.0292 1.92244,0.0553 2.53906,0.0742 0.61662,0.0189 1.87924,0.0828 0.81641,0.0254 a 10.001,10.001 0 0 0 0.13476,0.006 c -0.55199,-0.0223 1.74139,0.13914 3.72461,0.28711 1.97019,0.14699 4.1579,0.30282 6.20117,0.31836 0.50245,0.0106 1.00511,0.0119 1.50586,-0.002 a 10,10 0 0 0 9.71875,-10.27343 10,10 0 0 0 -10.27344,-9.718753 c -0.16989,0.0047 -0.35795,0.0058 -0.58593,0 a 10.001,10.001 0 0 0 -0.18946,-0.002 c -0.93516,-0.0063 -3.05188,-0.128588 -4.88867,-0.265625 -1.8042,-0.134607 -2.82909,-0.258806 -4.32617,-0.322266 -0.96859,-0.0515 -0.61441,-0.02426 -1.22461,-0.04297 -0.63842,-0.01957 -1.52689,-0.04646 -2.5957,-0.07617 -2.13763,-0.05943 -4.99103,-0.132058 -7.97461,-0.19336 -5.96716,-0.122604 -11.31066,-0.340791 -15.43164,0.0293 a 10.001,10.001 0 0 0 -0.0449,0.0039 c -3.13755,0.29617 -8.50885,1.191435 -14.5918,2.123047 -3.04148,0.465806 -6.03846,0.924276 -8.37305,1.265625 -0.27626,0.04039 -0.15986,0.02342 -0.43945,0.06055 -1.45671,-1.11139 -3.16835,-2.414637 -5.17578,-3.939453 -4.57138,-3.472346 -9.97628,-7.567688 -13.42188,-10.185547 a 10.001,10.001 0 0 0 -0.0566,-0.04492 C 121.86374,77.59967 113.99226,72.209692 106.50977,68.855469 a 10.001,10.001 0 0 0 -0.0176,-0.0078 c -8.106157,-3.61471 -18.306303,-7.287548 -26.833967,-10.37306 -4.263832,-1.542755 -8.102425,-2.934603 -10.873047,-4.009765 -1.38531,-0.537581 -2.513377,-1.002419 -3.175781,-1.302735 -0.662404,-0.300315 -1.244828,-1.01735 0.503906,0.503907 a 10.001,10.001 0 0 0 -6.5625,-2.455079 z m 302.240238,1.81836 a 10.001,10.001 0 0 0 -8.84961,14.65625 c -0.61845,-1.175918 0.2045,0.854423 0.46875,2.730469 0.26111,1.853828 0.41632,3.909722 0.48242,5.052734 0.16883,3.821772 0.11008,16.311363 -0.84766,25.18555 -1.43917,11.55689 -2.54809,18.17854 -5.12695,26.95703 -3.11682,10.20806 -7.02974,19.97706 -9.30664,24.07031 -3.02062,5.3786 -13.01035,18.26404 -14.81641,20.1582 a 10.001,10.001 0 0 0 -0.004,0.004 c -0.1877,0.19709 -1.72527,1.71057 -2.95703,2.89453 -0.61589,0.59198 -1.19879,1.14757 -1.625,1.55469 -0.21311,0.20356 -0.38612,0.36817 -0.51172,0.48828 -0.0628,0.0601 -0.11142,0.10737 -0.16016,0.1543 -0.0244,0.0235 -0.0418,0.041 -0.0957,0.0937 -0.0269,0.0264 -0.0367,0.0324 -0.18164,0.18164 -0.0725,0.0746 -0.79086,0.92167 -0.79102,0.92187 -8e-5,1e-4 12.11518,15.14456 12.11524,15.14453 5e-5,-2e-5 1.92988,-1.15796 2.09375,-1.28906 a 10,10 0 0 0 1.27343,-2.3125 c 0.0312,0.0389 0.44336,0.55274 0.44336,0.55274 1.6e-4,-2.1e-4 -0.718,0.8448 -0.78906,0.91796 -0.12716,0.13094 -0.1319,0.13461 -0.14844,0.15039 0.02,-0.0192 0.0308,-0.0302 0.0625,-0.0605 0.11287,-0.10793 0.28811,-0.27434 0.50391,-0.48047 0.43159,-0.41226 1.02955,-0.98409 1.66992,-1.59961 1.27933,-1.22968 2.56438,-2.45352 3.57617,-3.51563 4.75285,-4.98469 12.98694,-15.62023 17.79297,-24.1875 a 10.001,10.001 0 0 0 0.0156,-0.0293 c 3.79917,-6.82351 7.59035,-16.89483 10.98828,-28.03711 a 10.001,10.001 0 0 0 0.0293,-0.0957 c 2.94417,-10.0123 4.31702,-18.27411 5.8086,-30.26758 a 10.001,10.001 0 0 0 0.0195,-0.1543 c 1.15423,-10.638511 1.19639,-22.831065 0.94726,-28.359374 a 10.001,10.001 0 0 0 -0.006,-0.119141 c -0.0853,-1.496085 -0.26214,-4.007217 -0.6504,-6.763672 -0.20901,-1.483921 -0.41274,-2.971983 -0.81445,-4.59375 a 10,10 0 0 0 0.002,-0.0039 10,10 0 0 0 -0.0332,-0.07813 c -0.34517,-1.370791 -0.80209,-2.81838 -1.72656,-4.576172 l -0.0996,0.166016 a 10,10 0 0 0 -8.14063,-5.511719 z M 320.51758,175.08398 c 0,1e-5 0.41035,0.51391 0.4414,0.55274 a 10,10 0 0 0 -2.53515,0.73437 c 0.16348,-0.13078 2.09381,-1.28713 2.09375,-1.28711 z M 56.359375,53.029297 A 10,10 0 0 0 48.21875,58.541016 L 48.119141,58.375 c -0.924469,1.757792 -1.381394,3.205381 -1.726563,4.576172 a 10,10 0 0 0 -0.0332,0.07813 10,10 0 0 0 0.002,0.0039 c -0.401706,1.621767 -0.605439,3.109829 -0.814453,4.59375 -0.388254,2.756455 -0.565063,5.267587 -0.650391,6.763672 a 10.001,10.001 0 0 0 -0.0059,0.119141 c -0.24913,5.528309 -0.206964,17.720863 0.947266,28.359375 a 10.001,10.001 0 0 0 0.01953,0.1543 c 1.491573,11.99347 2.864427,20.25528 5.808594,30.26758 a 10.001,10.001 0 0 0 0.0293,0.0957 c 3.397927,11.14228 7.189113,21.2136 10.988282,28.03711 a 10.001,10.001 0 0 0 0.01563,0.0293 c 4.805079,8.56558 13.035782,19.19766 17.789062,24.1836 1.012299,1.06291 2.299341,2.28849 3.580078,3.51953 0.640369,0.61552 1.238326,1.18735 1.669922,1.59961 0.215798,0.20613 0.391037,0.37254 0.503906,0.48047 0.03174,0.0303 0.04247,0.0413 0.0625,0.0605 -0.01653,-0.0158 -0.02127,-0.0195 -0.148437,-0.15039 -0.07106,-0.0732 -0.789217,-0.91817 -0.789063,-0.91796 3e-6,0 0.412194,-0.51379 0.44336,-0.55274 a 10,10 0 0 0 1.273437,2.3125 c 0.163869,0.1311 2.093692,1.28904 2.09375,1.28906 5.9e-5,3e-5 12.115319,-15.14443 12.115239,-15.14453 -1.6e-4,-2e-4 -0.71857,-0.84728 -0.79102,-0.92187 -0.14489,-0.14919 -0.15471,-0.15525 -0.18164,-0.18164 -0.0539,-0.0528 -0.0713,-0.0703 -0.0957,-0.0937 -0.0487,-0.0469 -0.0973,-0.0942 -0.16016,-0.1543 -0.125607,-0.12011 -0.29861,-0.28472 -0.511719,-0.48828 -0.426216,-0.40712 -1.009118,-0.96271 -1.625,-1.55469 -1.231762,-1.18396 -2.76933,-2.69744 -2.957031,-2.89453 a 10.001,10.001 0 0 0 -0.0039,-0.004 c -1.806059,-1.89416 -11.795788,-14.7796 -14.816406,-20.1582 -2.276901,-4.09325 -6.189819,-13.86225 -9.306641,-24.07031 -2.578862,-8.77849 -3.687784,-15.40014 -5.126953,-26.95703 -0.957739,-8.874188 -1.016485,-21.363779 -0.847656,-25.185551 0.0661,-1.143012 0.221305,-3.198906 0.482421,-5.052734 0.264247,-1.876046 1.087196,-3.906387 0.46875,-2.730469 A 10.001,10.001 0 0 0 56.970703,53.029297 Z M 97.482422,175.08398 c -5.9e-5,-2e-5 1.930272,1.15633 2.09375,1.28711 a 10,10 0 0 0 -2.535156,-0.73437 c 0.03106,-0.0388 0.441408,-0.55273 0.441406,-0.55274 z" />
    <path
       d="m 524.44,337.78 c -0.55,-0.21 -1.47,-0.85 -2.57,-1.83 -0.18,-0.16 -0.31,-0.29 -0.39,-0.39"
       fill="none"
       stroke="#2f2929"
       stroke-width="20"
       stroke-opacity="1"
       stroke-linejoin="round"
       id="path13" />
    <path
       d="m -106.44,337.78 c 0.55,-0.21 1.47,-0.85 2.57,-1.83 0.18,-0.16 0.31,-0.29 0.39,-0.39"
       fill="none"
       stroke="#2f2929"
       stroke-width="20"
       stroke-opacity="1"
       stroke-linejoin="round"
       id="path14" />
    <path
       style="fill:#d4ff2a;fill-opacity:1;stroke:none;stroke-width:1.31058e-08;stroke-dasharray:none;stroke-opacity:1;paint-order:stroke fill markers"
       d="m 352.66297,74.4343 c -11.499,4.197654 -23.14482,8.122987 -34.2875,13.212435 -15.45097,8.172382 -28.27873,20.342255 -42.80892,29.918965 -4.88666,1.41672 -10.19692,-0.37024 -15.23088,-0.77235 -6.77211,-0.75347 -13.48202,-2.53733 -20.29076,-2.6257 -16.23003,0.57915 -32.4598,1.49705 -48.68911,0.47057 -7.50573,-0.0823 -15.0746,-1.26447 -22.47597,0.48666 -8.26344,0.98022 -16.55917,3.12253 -24.85509,2.91096 -3.66323,-0.74786 -6.18221,-4.00478 -9.29571,-5.86481 C 122.92313,103.69719 111.95544,93.802852 98.880546,87.266211 87.932979,82.369458 76.54729,78.521748 65.290956,74.411263 c -1.067305,1.3202 -0.109284,3.762519 -0.486349,5.435154 -0.413895,24.231363 3.974246,48.847893 14.7709,70.662763 5.612536,10.22815 13.205235,19.16662 21.128963,27.65495 2.97031,2.9845 3.33843,7.45411 2.00457,11.24884 -3.75405,11.72539 -6.59954,23.75361 -7.713412,36.03618 -1.788931,12.95337 -1.550728,26.09118 -0.619348,39.10034 1.023136,7.52741 5.353597,14.48135 11.33955,19.10446 10.28154,8.76585 21.9991,15.73967 34.05977,21.74878 12.58622,5.14296 25.55221,9.59271 39.07167,11.46758 13.52713,2.22391 27.27787,3.90969 40.98831,2.44485 17.93648,-1.43947 35.86386,-4.70032 52.55572,-11.60966 11.63246,-4.57263 22.45937,-11.05285 32.636,-18.26181 4.823,-3.90331 10.14974,-7.50329 13.83447,-12.56656 3.3273,-5.12349 5.28483,-11.07238 5.17845,-17.21546 0.37341,-13.44832 0.45201,-26.97293 -1.7451,-40.28998 -1.03878,-10.82878 -4.55633,-21.15473 -7.35221,-31.58731 -1.85431,-5.12343 2.11122,-9.8539 5.57757,-13.18028 7.28295,-7.70204 13.71206,-16.32281 18.71214,-25.67924 9.56033,-19.87127 13.61216,-42.01708 13.9605,-63.962073 -0.0648,-3.464497 0.57302,-7.11347 -0.14619,-10.486678 -0.10584,-0.09296 -0.25936,-0.07886 -0.38396,-0.04181 z"
       id="mask-area" />
  </g>
</svg>
