<?xml version="1.0" encoding="UTF-8" standalone="no"?>
<svg
   width="400"
   height="400"
   viewBox="0 0 400 400"
   version="1.1"
   id="svg14"
   sodipodi:docname="線画猫_凝視_id.svg"
   inkscape:version="1.4.3 (0d15f75, 2025-12-25)"
   xmlns:inkscape="http://www.inkscape.org/namespaces/inkscape"
   xmlns:sodipodi="http://sodipodi.sourceforge.net/DTD/sodipodi-0.dtd"
   xmlns="http://www.w3.org/2000/svg"
   xmlns:svg="http://www.w3.org/2000/svg">
  <defs
     id="defs14" />
  <sodipodi:namedview
     id="namedview14"
     pagecolor="#ffffff"
     bordercolor="#000000"
     borderopacity="0.25"
     inkscape:showpageshadow="2"
     inkscape:pageopacity="0.0"
     inkscape:pagecheckerboard="0"
     inkscape:deskcolor="#d1d1d1"
     inkscape:zoom="2.1015625"
     inkscape:cx="191.04833"
     inkscape:cy="182.48327"
     inkscape:window-width="1920"
     inkscape:window-height="1009"
     inkscape:window-x="2040"
     inkscape:window-y="68"
     inkscape:window-maximized="1"
     inkscape:current-layer="レイヤー_2" />
  <g
     stroke-linecap="round"
     id="レイヤー_2"
     transform="translate(-0.47583643,-6.7583643)">
    <path
       id="maskpath"
       style="baseline-shift:baseline;display:inline;overflow:visible;opacity:1;vector-effect:none;fill:#1b1515;stroke-linecap:butt;stroke-linejoin:round;enable-background:accumulate;stop-color:#000000;stop-opacity:1"
       d="m 64.76237,46.468099 a 7.5,7.5 0 0 0 -7.478841,5.240885 l -0.301107,0.952149 c -0.0428,0.07666 -0.112979,0.184536 -0.154623,0.260416 -0.332612,0.606052 -0.639051,1.210123 -0.968424,1.896159 -0.658745,1.372073 -1.388985,3.002347 -2.026367,4.459636 a 7.50075,7.50075 0 0 0 -0.0081,0.01628 c -2.265674,5.21679 -3.43558,9.054517 -4.337565,14.029948 -0.759909,4.149551 -1.940172,10.360997 -2.96224,16.251627 -1.022068,5.890629 -1.906317,11.064771 -2.050781,14.949541 a 7.50075,7.50075 0 0 0 -0.0081,0.0814 c -0.222551,8.3784 0.170052,18.31304 1.009114,29.54102 a 7.50075,7.50075 0 0 0 0,0.057 c 0.784477,9.45609 3.107917,21.00243 5.476888,29.17481 a 7.50075,7.50075 0 0 0 0.0081,0 c 0.508384,1.74913 1.082599,3.00448 1.953125,5.01302 0.870527,2.00855 1.952442,4.37381 3.08431,6.75455 1.131867,2.38075 2.308228,4.76419 3.401693,6.81153 1.093466,2.04735 1.700622,3.42201 3.369141,5.37109 a 7.50075,7.50075 0 0 0 0.02441,0.0325 c 1.221376,1.41264 2.46983,2.64785 3.784179,3.75163 -0.01828,0.0409 -0.03848,0.0806 -0.05697,0.12207 -0.79373,1.78026 -1.747768,4.0275 -2.701823,6.34766 -0.954055,2.32015 -1.903132,4.70199 -2.66927,6.71386 -0.766139,2.01187 -1.255071,3.041 -1.717123,5.08627 a 7.50075,7.50075 0 0 0 0,0.008 c -2.420759,10.77845 -3.871776,20.57807 -4.280599,26.52994 a 7.50075,7.50075 0 0 0 0,0.0326 c -0.275682,4.32847 0.395556,9.14144 1.098633,14.11132 0.703076,4.96988 1.535378,9.74571 1.912435,11.96289 a 7.50075,7.50075 0 0 0 0.0081,0.0244 c 1.27586,7.36737 4.918842,16.06815 9.708659,23.9095 a 7.50075,7.50075 0 0 0 0.0081,0.0163 c 4.915931,7.99356 14.042504,18.65851 21.500651,24.71517 a 7.50075,7.50075 0 0 0 0.0651,0.057 c 9.082336,7.21691 15.530195,11.1724 28.116865,17.20377 a 7.50075,7.50075 0 0 0 0.0814,0.0407 c 8.13897,3.77645 22.78382,10.48956 30.08626,13.22429 a 7.50075,7.50075 0 0 0 0.008,0 c 6.83986,2.55148 20.52295,6.20098 27.97038,8.14615 a 7.50075,7.50075 0 0 0 0.10579,0.0244 c 6.36969,1.56554 12.87909,2.342 17.95247,2.75879 0.8304,0.0682 1.62381,0.12143 2.36817,0.1709 0.59905,0.10124 1.12349,0.17904 1.81478,0.236 0.83258,0.0723 0.67865,0.0322 0.86263,0.0326 0.18898,3.5e-4 0.39428,-0.004 0.6429,-0.008 0.34961,-0.006 0.76997,-0.0167 1.26953,-0.0326 0.50394,0.0161 0.93354,0.0271 1.28581,0.0326 0.24862,0.004 0.46205,0.008 0.65104,0.008 0.18398,-3.5e-4 0.0219,0.0397 0.85449,-0.0326 0.69327,-0.0571 1.22173,-0.13431 1.82292,-0.236 0.74348,-0.0494 1.5309,-0.10281 2.36003,-0.1709 5.07455,-0.41677 11.59482,-1.19365 17.96875,-2.75879 a 7.50075,7.50075 0 0 0 0.10579,-0.0326 c 7.43365,-1.94437 21.12239,-5.58654 27.96224,-8.13802 a 7.50075,7.50075 0 0 0 0.008,0 c 7.30245,-2.73473 21.93914,-9.44784 30.07812,-13.22429 a 7.50075,7.50075 0 0 0 0.0814,-0.0407 c 12.59787,-6.03156 19.0508,-9.99501 28.13314,-17.21191 a 7.50075,7.50075 0 0 0 0.0651,-0.0488 c 7.44217,-6.05403 16.57051,-16.72395 21.49252,-24.70703 a 7.50075,7.50075 0 0 0 0.0163,-0.0244 c 4.79266,-7.84601 8.41805,-16.55095 9.69239,-23.9095 a 7.50075,7.50075 0 0 0 0,-0.008 c 0.38617,-2.2401 1.22682,-7.00797 1.92871,-11.97917 0.70189,-4.9712 1.37402,-9.78751 1.09863,-14.11132 a 7.50075,7.50075 0 0 0 -0.008,-0.0326 c -0.40883,-5.95186 -1.85544,-15.74753 -4.26432,-26.52181 a 7.50075,7.50075 0 0 0 -0.008,-0.0488 c -0.46243,-2.00972 -0.95825,-3.05177 -1.72526,-5.06185 -0.76702,-2.01008 -1.71477,-4.38613 -2.66927,-6.70573 -0.95451,-2.31959 -1.90803,-4.56767 -2.70182,-6.34766 -0.0166,-0.0372 -0.0324,-0.0772 -0.0488,-0.11393 1.30841,-1.1076 2.55569,-2.34109 3.77604,-3.74349 a 7.50075,7.50075 0 0 0 0.0407,-0.0488 c 1.6704,-1.95128 2.27654,-3.32369 3.36914,-5.37109 1.0926,-2.04741 2.27075,-4.43129 3.40169,-6.81153 1.13095,-2.38024 2.20596,-4.74792 3.07618,-6.75455 0.87022,-2.00663 1.44715,-3.27011 1.95312,-4.98861 a 7.50075,7.50075 0 0 0 0.0163,-0.0326 c 2.35502,-8.16369 4.67342,-19.71062 5.46875,-29.15853 a 7.50075,7.50075 0 0 0 0.008,-0.0651 c 0.83942,-11.23273 1.21521,-21.16925 0.99283,-29.54102 a 7.50075,7.50075 0 0 0 0,-0.0814 c -0.14428,-3.8799 -1.03137,-9.058752 -2.05078,-14.949541 -1.0194,-5.890789 -2.19365,-12.099076 -2.9541,-16.251627 -0.91248,-4.975561 -2.07776,-8.807945 -4.3457,-14.029948 a 7.50075,7.50075 0 0 0 -0.008,-0.01628 c -0.63738,-1.457289 -1.37576,-3.087563 -2.03451,-4.459636 -0.32937,-0.686036 -0.62767,-1.290107 -0.96028,-1.896159 -0.0417,-0.07588 -0.11996,-0.183757 -0.16276,-0.260416 l -0.30111,-0.952149 a 7.5,7.5 0 0 0 -9.39941,-4.899088 7.5,7.5 0 0 0 -4.80957,4.622396 c -0.10017,0.0323 -0.20774,0.07039 -0.30111,0.09766 -0.38883,0.113541 -0.9428,0.269073 -1.59505,0.455729 -1.3045,0.373312 -3.02344,0.865397 -4.80143,1.375326 -3.55599,1.019857 -6.87176,1.930809 -9.00066,2.701823 a 7.50075,7.50075 0 0 0 0,0.0081 c -4.52866,1.643304 -10.61137,5.104301 -13.76139,6.795247 a 7.50075,7.50075 0 0 0 -0.0814,0.04883 c -8.05372,4.457576 -18.69072,12.874001 -25.8138,19.514974 a 7.50075,7.50075 0 0 0 -0.0732,0.07324 c -4.20515,4.037174 -8.56854,8.739099 -12.16634,12.654623 -3.5978,3.915524 -7.33385,7.715246 -6.80339,7.275396 a 7.50075,7.50075 0 0 0 -0.008,0.008 c -2.21957,1.84397 -6.91309,5.7051 -9.9528,8.85416 a 7.50075,7.50075 0 0 0 -0.0326,0.0407 c -2.46196,2.58325 -5.50584,6.55941 -8.49609,10.54688 a 7.9373002,7.9373002 0 0 0 -0.1709,-0.057 c -7.09901,-2.0959 -17.62207,-4.36291 -27.19727,-4.83398 -3.1498,-0.15496 -6.19506,-0.11834 -8.98437,0.18717 -2.79047,-0.30526 -5.84222,-0.34229 -8.99252,-0.18717 -9.5768,0.47157 -20.09502,2.73979 -27.19726,4.83398 a 7.9373002,7.9373002 0 0 0 -0.1709,0.057 c -2.99042,-3.98769 -6.03399,-7.97163 -8.49609,-10.55502 a 7.50075,7.50075 0 0 0 -0.0244,-0.0163 c -3.04314,-3.16674 -7.74132,-7.02645 -9.96093,-8.87044 a 7.50075,7.50075 0 0 0 -0.0163,-0.0163 c 0.54561,0.45025 -3.20501,-3.352551 -6.80339,-7.267256 -3.59838,-3.914705 -7.95304,-8.617447 -12.1582,-12.654623 a 7.50075,7.50075 0 0 0 -0.0814,-0.07324 C 119.72719,75.791708 109.1047,67.375365 101.03353,62.915039 a 7.50075,7.50075 0 0 0 -0.0814,-0.04883 C 97.802996,61.175717 91.727164,57.714805 87.198893,56.070964 85.055818,55.291706 81.75356,54.380667 78.198242,53.361003 76.419768,52.850937 74.70367,52.359288 73.39681,51.985677 72.743381,51.798872 72.1932,51.643979 71.801758,51.529948 c -0.09442,-0.02751 -0.20205,-0.06602 -0.301107,-0.09766 a 7.5,7.5 0 0 0 -4.80957,-4.622396 7.5,7.5 0 0 0 -1.928711,-0.341797 z m 2.571614,19.384766 c 0.07214,0.01864 0.1514,0.03911 0.268555,0.07324 0.441304,0.128557 1.005603,0.29069 1.668294,0.480143 1.325384,0.378907 3.036484,0.863334 4.793295,1.367187 3.513623,1.007705 7.711764,2.284894 8.007812,2.392579 a 7.50075,7.50075 0 0 0 0.0081,0 c 0.938092,0.340403 8.578975,4.200991 11.71875,5.883789 5.645973,3.123343 16.62854,11.590106 22.78646,17.325846 3.72677,3.581597 7.92049,8.081491 11.45833,11.930341 3.54397,3.85551 5.52147,6.38294 8.2845,8.66699 2.12446,1.76494 7.01276,5.9543 8.70769,7.71485 1.17833,1.23754 4.78816,5.77768 7.80436,9.80631 1.50928,2.01589 2.94411,3.96487 4.0446,5.49316 1.10049,1.52829 2.07345,2.98808 1.89615,2.70183 a 7.50075,7.50075 0 0 0 6.38021,3.54817 h 0.54525 a 7.5,7.5 0 0 0 7.49512,-7.22656 c 8.31499,-1.82952 21.29077,-3.55933 25.88704,-3.04362 a 7.9373002,7.9373002 0 0 0 1.63574,0.008 7.9373002,7.9373002 0 0 0 1.68457,-0.008 c 4.5818,-0.51474 17.562,1.21592 25.87077,3.04362 a 7.5,7.5 0 0 0 7.49512,7.22656 h 0.55338 a 7.50075,7.50075 0 0 0 6.37208,-3.54817 c -0.1773,0.28625 0.8038,-1.17354 1.90429,-2.70183 1.10048,-1.52829 2.52718,-3.47727 4.03646,-5.49316 3.01253,-4.02372 6.61342,-8.54598 7.79622,-9.79004 1.71947,-1.77777 6.59794,-5.95659 8.72396,-7.72298 l 0.008,-0.008 c 2.74405,-2.27643 4.72087,-4.80635 8.26823,-8.66699 3.53579,-3.84803 7.73971,-8.348744 11.46647,-11.930341 6.15223,-5.730416 17.13376,-14.188154 22.77832,-17.317708 3.13664,-1.681365 10.78015,-5.551342 11.71875,-5.891927 0.32455,-0.117288 4.51132,-1.385117 8.02409,-2.392579 1.75729,-0.50399 3.4682,-0.987981 4.79329,-1.367187 0.66255,-0.189603 1.22638,-0.351096 1.6683,-0.480143 0.11546,-0.03372 0.19935,-0.05567 0.26855,-0.07324 1.81084,4.218821 2.35028,6.081215 3.10059,10.172526 0.7772,4.243907 1.93965,10.39221 2.92969,16.113281 0.98881,5.714008 1.78009,11.383958 1.83919,12.931318 0.19833,7.57606 -0.1502,17.0493 -0.96029,27.90527 -0.66933,7.92648 -2.92096,19.23448 -4.93164,26.21257 0.0734,-0.25911 -0.54281,1.45061 -1.31836,3.23893 -0.78541,1.81107 -1.80569,4.05395 -2.86458,6.28255 -1.05889,2.2286 -2.16072,4.4542 -3.08431,6.1849 -0.77996,1.46155 -1.69883,2.78233 -1.64388,2.7832 v 0.008 c -0.9234,0.9016 -4.74062,3.88338 -4.7526,3.88997 a 7.50075,7.50075 0 0 0 -0.0977,0.057 c -0.982,0.55893 -1.88478,1.34816 -2.5472,2.17285 a 7.5,7.5 0 0 0 -0.61849,8.47982 7.50075,7.50075 0 0 0 2.83203,4.98046 c -1.00979,-0.7857 -1.22775,-1.06171 -1.42415,-1.31835 0.175,0.3655 0.3753,0.78141 0.65104,1.39974 0.69781,1.56476 1.6177,3.72147 2.53092,5.94075 0.91322,2.21927 1.82207,4.51132 2.52279,6.34766 0.67817,1.77725 1.25022,3.68536 1.13118,3.13313 2.24129,10.0472 3.60083,19.61481 3.91439,24.15365 0.084,1.34377 -0.32177,6.40571 -0.97656,11.04329 -0.65548,4.64254 -1.45691,9.21961 -1.85547,11.53158 -0.72011,4.15132 -3.87323,12.3468 -7.7067,18.62793 -3.41148,5.52895 -13.19774,16.85986 -18.14779,20.89844 -8.50893,6.75871 -13.11048,9.59023 -25.21973,15.38899 -8.03111,3.72577 -23.18571,10.58779 -28.96321,12.75228 l -0.008,0.008 c -4.81762,1.79599 -19.14371,5.74428 -26.42416,7.64974 -5.14602,1.26086 -11.0148,2.00168 -15.57617,2.3763 -0.15416,0.0127 -0.31272,0.0207 -0.46386,0.0326 a 7.5,7.5 0 0 0 -1.97754,0.0814 c -0.18448,0.0327 -0.36147,0.0631 -0.52084,0.0895 -1.03065,0.0617 -1.93467,0.11044 -2.67741,0.13835 -0.0363,10e-4 -0.0703,-0.001 -0.10579,0 -0.0326,-0.001 -0.0725,10e-4 -0.10579,0 -0.7412,-0.0279 -1.641,-0.0768 -2.66928,-0.13835 -0.16095,-0.0267 -0.33413,-0.0564 -0.52083,-0.0895 a 7.5,7.5 0 0 0 -1.98568,-0.0814 c -0.14993,-0.0118 -0.30283,-0.02 -0.45572,-0.0326 -4.56375,-0.37492 -10.44154,-1.11388 -15.58431,-2.3763 -7.29015,-1.90542 -21.60816,-5.85435 -26.42416,-7.64974 l -0.008,-0.008 c -5.77226,-2.16252 -20.90205,-9.00792 -28.9388,-12.736 l -0.008,-0.008 C 111.92858,308.61657 107.33289,305.79346 98.820189,299.03175 93.866014,294.99819 84.069576,283.65307 80.672403,278.13331 76.83274,271.8444 73.66685,263.63185 72.949421,259.4891 c -0.397911,-2.33918 -1.19985,-6.88903 -1.855469,-11.52344 -0.656253,-4.6389 -1.060296,-9.70416 -0.976563,-11.04329 0.31226,-4.52009 1.688639,-14.07469 3.922527,-24.07227 0.07578,-0.15335 0.56829,-1.74449 1.131184,-3.22265 0.698612,-1.83455 1.610445,-4.12081 2.522787,-6.33952 0.912342,-2.21872 1.825255,-4.37626 2.522786,-5.94075 0.275953,-0.61893 0.476061,-1.03429 0.651042,-1.39974 -0.195979,0.25649 -0.413067,0.53165 -1.424154,1.31835 a 7.50075,7.50075 0 0 0 2.832032,-4.94791 7.50075,7.50075 0 0 0 0,-0.008 7.5,7.5 0 0 0 -0.789388,-8.72396 c -0.571349,-0.65656 -1.306854,-1.31021 -2.156576,-1.83105 a 7.50075,7.50075 0 0 0 -0.317383,-0.18718 c -0.0031,-0.002 -3.833524,-2.99325 -4.736328,-3.8737 v -0.008 c 0.05658,0.001 -0.861622,-1.32668 -1.64388,-2.79134 -0.924377,-1.73075 -2.033155,-3.95681 -3.092448,-6.1849 -1.059294,-2.2281 -2.080471,-4.47339 -2.864583,-6.28255 -0.782415,-1.80525 -1.406963,-3.55724 -1.310222,-3.22266 v -0.008 c -2.018927,-6.96696 -4.271709,-18.27951 -4.93164,-26.20442 -0.81114,-10.86591 -1.166606,-20.34915 -0.968425,-27.92155 0.05893,-1.54251 0.847743,-7.217151 1.839193,-12.931318 0.992793,-5.721902 2.160078,-11.866322 2.937825,-16.113281 a 7.50075,7.50075 0 0 0 0,-0.01628 c 0.739733,-4.084714 1.281462,-5.937642 3.092448,-10.15625 z M 138.23242,173.47819 c -2.87054,0.008 -5.76432,0.21792 -8.39844,0.71615 a 7.50075,7.50075 0 0 0 -0.0895,0.0244 c -5.91513,1.19227 -11.56379,4.39166 -16.73991,7.8125 a 7.50075,7.50075 0 0 0 -0.0651,0.0407 c -4.79701,3.24146 -8.76164,7.64416 -11.62109,11.82454 a 7.50075,7.50075 0 0 0 -0.0488,0.0651 c -2.359655,3.53728 -4.682855,7.82478 -6.705728,12.20703 a 7.50075,7.50075 0 0 0 -0.01628,0.0407 c -3.304816,7.27044 -5.231552,17.45338 -4.882812,25.78939 a 7.50075,7.50075 0 0 0 0.0081,0.0244 c 0.394064,8.64827 3.44339,19.63001 7.259114,26.82292 a 7.50075,7.50075 0 0 0 0.01628,0.0326 c 3.428066,6.38583 9.073646,13.08403 15.559896,17.22819 a 7.50075,7.50075 0 0 0 0.0651,0.0407 c 3.50611,2.19299 7.82024,4.05427 11.8571,5.15951 a 7.50075,7.50075 0 0 0 0.057,0.0163 c 3.84764,1.02085 9.17482,1.78248 13.25684,1.92871 a 7.50075,7.50075 0 0 0 0.0651,0 c 4.55062,0.12207 9.64656,-0.40734 14.27409,-1.96126 a 7.50075,7.50075 0 0 0 0.0244,-0.008 c 4.66555,-1.58333 9.18586,-4.1221 13.06966,-7.76367 a 7.50075,7.50075 0 0 0 0.0325,-0.0326 c 3.51756,-3.3404 7.13298,-8.18806 9.52962,-12.36166 a 7.50075,7.50075 0 0 0 0.0163,-0.0407 c 2.28931,-4.03818 4.77656,-9.66521 5.96517,-14.49381 a 7.50075,7.50075 0 0 0 0.0163,-0.057 c 1.09396,-4.59695 1.64648,-10.6992 1.50554,-15.42968 a 7.50075,7.50075 0 0 0 0,-0.0244 c -0.27613,-8.52554 -2.92676,-21.45502 -6.71387,-29.62239 a 7.50075,7.50075 0 0 0 -0.0163,-0.0326 c -2.47751,-5.27769 -5.61537,-10.94853 -8.30079,-14.72981 a 7.50075,7.50075 0 0 0 -0.057,-0.0733 c -2.05847,-2.82494 -4.23002,-5.48312 -7.60905,-7.59277 a 7.5,7.5 0 0 0 -3.75163,-3.20638 c -0.89606,-0.29142 -1.82072,-0.56486 -3.05176,-0.82194 a 7.50075,7.50075 0 0 0 -0.0895,-0.0244 c -1.60311,-0.3141 -4.50117,-0.76976 -6.11979,-0.9847 a 7.50075,7.50075 0 0 0 -0.0488,0 c -2.54027,-0.31951 -5.38142,-0.52035 -8.25195,-0.5127 z m 125.02442,0 c -2.8707,-0.008 -5.71453,0.19272 -8.25196,0.5127 a 7.50075,7.50075 0 0 0 -0.0488,0 c -1.61246,0.21412 -4.41935,0.65088 -6.13606,0.99283 a 7.50075,7.50075 0 0 0 -0.0488,0.008 c -1.25887,0.25871 -2.18019,0.5387 -3.07617,0.83008 a 7.5,7.5 0 0 0 -3.75163,3.19824 c -3.38462,2.10997 -5.5565,4.77271 -7.61719,7.61719 a 7.50075,7.50075 0 0 0 -0.0325,0.0488 c -2.70857,3.79519 -5.83955,9.46026 -8.31706,14.73795 a 7.50075,7.50075 0 0 0 -0.0163,0.0326 c -3.7871,8.16737 -6.44588,21.09685 -6.72201,29.62239 a 7.50075,7.50075 0 0 0 0,0.0407 c -0.12565,4.68786 0.4161,10.80137 1.51367,15.41341 a 7.50075,7.50075 0 0 0 0.0163,0.0814 c 1.19267,4.78228 3.66135,10.42812 5.95703,14.47754 a 7.50075,7.50075 0 0 0 0.0244,0.0325 c 2.40308,4.18478 6.03258,9.02448 9.51335,12.34538 a 7.50075,7.50075 0 0 0 0.057,0.057 c 3.87934,3.62109 8.3953,6.17163 13.04524,7.75553 a 7.50075,7.50075 0 0 0 0.0407,0.0163 c 4.61641,1.54428 9.71577,2.07518 14.26595,1.95312 a 7.50075,7.50075 0 0 0 0.0732,0 c 4.08201,-0.14623 9.41414,-0.90519 13.25683,-1.92057 a 7.50075,7.50075 0 0 0 0.0732,-0.0244 c 4.02131,-1.10539 8.3347,-2.96649 11.84082,-5.15951 a 7.50075,7.50075 0 0 0 0.057,-0.0407 c 6.48625,-4.14416 12.13182,-10.84236 15.5599,-17.22819 a 7.50075,7.50075 0 0 0 0.0163,-0.0244 c 3.83993,-7.21088 6.86835,-18.18994 7.27539,-26.81478 a 7.50075,7.50075 0 0 0 0,-0.057 c 0.33423,-8.32222 -1.578,-18.50267 -4.88281,-25.77311 a 7.50075,7.50075 0 0 0 -0.0163,-0.0407 c -2.01836,-4.37249 -4.3364,-8.65732 -6.72201,-12.21517 a 7.50075,7.50075 0 0 0 -0.0325,-0.0488 c -2.86196,-4.20334 -6.83792,-8.58839 -11.61296,-11.82454 a 7.50075,7.50075 0 0 0 -0.0732,-0.0488 c -5.17612,-3.42084 -10.81664,-6.62023 -16.73177,-7.8125 a 7.50075,7.50075 0 0 0 -0.0895,-0.0244 c -2.63473,-0.49687 -5.53588,-0.7083 -8.40657,-0.71615 z M 138.1429,188.62305 c 2.36291,-0.0213 4.87808,0.0476 6.45345,0.24414 0.5361,0.0728 3.19901,0.51809 4.23177,0.68359 a 7.5,7.5 0 0 0 1.58692,1.57878 c -0.008,-0.002 -0.0189,7.9e-4 -0.0244,0 h -0.008 -0.008 v 0.008 0.008 h 0.008 v 0.008 c 0.1776,0.312 3.74899,3.08535 4.63867,4.28874 1.62621,2.30174 4.80861,7.88319 6.90104,12.33724 1.72758,3.73398 5.17221,19.20514 5.32227,23.77929 0.0693,2.38899 -0.64461,9.54402 -1.09864,11.47461 -0.43277,1.73679 -3.19588,8.45931 -4.42708,10.6364 -1.15522,2.00229 -5.76364,7.90033 -6.81966,8.91113 -0.84388,0.78216 -6.53181,4.12573 -7.60091,4.49219 -0.9205,0.30541 -7.28902,1.22087 -9.05762,1.18001 -1.83972,-0.0719 -8.51762,-1.07017 -9.87142,-1.42415 -1.30441,-0.36325 -6.88004,-2.81769 -7.80436,-3.38542 -1.40406,-0.91158 -9.22793,-9.4899 -10.39225,-11.64551 -1.72021,-3.25458 -5.31171,-16.05037 -5.51758,-20.44271 -0.17794,-4.34121 2.07371,-15.69346 3.54004,-18.92903 1.72165,-3.72609 3.78772,-7.47648 5.53385,-10.09929 1.76522,-2.5702 5.20135,-6.19469 7.58464,-7.8125 3.95433,-2.60502 10.12587,-5.32452 11.36067,-5.58268 0.95622,-0.17452 3.12316,-0.28807 5.46875,-0.30924 z m 125.20345,0 c 2.34633,0.021 4.51145,0.13329 5.47689,0.30924 1.23976,0.26096 7.40047,2.97994 11.35254,5.58268 2.38725,1.62656 5.8378,5.2657 7.5765,7.8125 1.74196,2.60104 3.8056,6.35176 5.53385,10.09115 1.46479,3.2267 3.71441,14.56242 3.54818,18.92904 -0.21625,4.42048 -3.80939,17.20991 -5.52572,20.4427 -1.15812,2.15014 -8.98748,10.74161 -10.39225,11.65365 -0.92439,0.56778 -6.49805,3.0308 -7.79622,3.39356 -1.39254,0.36066 -8.04253,1.34423 -9.87956,1.41601 -1.76659,0.0409 -8.08421,-0.86391 -9.04948,-1.18001 -1.06619,-0.36814 -6.7289,-3.68466 -7.60905,-4.49219 -1.08337,-1.04738 -5.66493,-6.92386 -6.81152,-8.91113 -1.22347,-2.16343 -3.98079,-8.86087 -4.43522,-10.65267 -0.45023,-1.92148 -1.16081,-9.04057 -1.09864,-11.47461 0.15423,-4.58708 3.60467,-20.04815 5.33041,-23.77116 v -0.008 c 2.09778,-4.46342 5.2982,-10.062 6.91731,-12.33724 0.86469,-1.18099 4.4436,-3.96696 4.6224,-4.2806 v -0.008 -0.008 h -0.008 -0.008 c -0.005,7.9e-4 -0.0166,-0.002 -0.0244,0 a 7.5,7.5 0 0 0 1.58691,-1.57878 c 0.95565,-0.15076 3.69946,-0.60896 4.24805,-0.68359 1.56734,-0.19646 4.08044,-0.26528 6.44531,-0.24414 z m -124.5524,13.37077 a 7.9373002,7.9373002 0 0 0 -2.05079,0.30924 l -0.39876,0.12207 a 7.9380939,7.9380939 0 0 0 -5.72103,7.0638 c -0.16491,2.34864 -0.27257,7.40016 -0.43945,13.41146 -0.16689,6.01131 -0.3538,12.5457 -0.52083,15.68197 -0.0894,1.32005 -0.25106,3.8565 -0.3418,5.19205 -0.0239,0.3376 -0.0566,0.73829 -0.0814,1.07422 -0.0126,0.17177 -0.0225,0.32181 -0.0326,0.48015 -0.005,0.0792 -0.0107,0.14509 -0.0163,0.29296 -0.003,0.0739 -0.009,0.15113 -0.008,0.38249 4e-4,0.11567 -0.007,0.24676 0.0244,0.62663 0.0155,0.18993 0.13822,0.95968 0.13834,0.96029 7e-5,3e-4 0.34172,1.19608 0.3418,1.19628 3e-5,9e-5 0.52079,1.09857 0.52083,1.09864 4e-5,7e-5 1.31018,1.72522 1.31022,1.72526 a 7.9373002,7.9373002 0 0 0 11.23047,-0.0244 7.9373002,7.9373002 0 0 0 2.30306,-5.32226 c 2.3e-4,-0.005 -2.6e-4,-0.027 0,-0.0325 a 7.9373002,7.9373002 0 0 0 0,-0.0244 c 0.004,-0.0518 0.01,-0.11261 0.0163,-0.20345 0.0225,-0.30601 0.0607,-0.72361 0.0895,-1.13118 a 7.9380939,7.9380939 0 0 0 0,-0.0244 c 0.0981,-1.44367 0.26819,-4.09659 0.34993,-5.29785 a 7.9380939,7.9380939 0 0 0 0.008,-0.12207 c 0.19353,-3.63374 0.36995,-10.06782 0.53711,-16.08887 0.16715,-6.02105 0.35972,-12.06402 0.4069,-12.736 l -0.24414,0.30111 a 7.9373002,7.9373002 0 0 0 0.35807,-3.17383 7.9373002,7.9373002 0 0 0 -7.77994,-5.7373 z m 123.89322,0 a 7.9373002,7.9373002 0 0 0 -7.77181,5.7373 7.9373002,7.9373002 0 0 0 0.35808,3.20638 l -0.24414,-0.30924 c 0.0446,0.6049 0.23974,6.69053 0.4069,12.71158 0.16715,6.02105 0.34517,12.45567 0.54525,16.10515 a 7.9380939,7.9380939 0 0 0 0,0.0326 c 0.0772,1.29645 0.25185,3.92746 0.34993,5.37109 a 7.9380939,7.9380939 0 0 0 0.008,0.13021 c 0.0276,0.32509 0.0539,0.72251 0.0732,1.00098 0.007,0.0915 0.0133,0.13302 0.0163,0.18717 a 7.9373002,7.9373002 0 0 0 2.31119,5.42806 7.9373002,7.9373002 0 0 0 11.22234,0.0163 c 5e-5,-4e-5 1.30205,-1.70078 1.30208,-1.70085 4e-5,-7e-5 0.51266,-1.08226 0.51269,-1.08236 8e-5,-1.9e-4 0.34988,-1.17156 0.34994,-1.17187 1.3e-4,-6e-4 0.12939,-0.76441 0.14648,-0.95215 0.0342,-0.37549 0.0229,-0.5032 0.0244,-0.61849 0.003,-0.23057 0.002,-0.30716 0,-0.38249 -0.005,-0.15064 -0.0116,-0.22561 -0.0163,-0.30924 -0.009,-0.16724 -0.0197,-0.3353 -0.0326,-0.52083 -0.023,-0.33127 -0.0498,-0.71695 -0.0814,-1.09864 v -0.0407 c -0.0926,-1.36455 -0.26206,-3.95984 -0.33366,-5.1595 v -0.0163 c -3.2e-4,-0.005 0,-0.0191 0,-0.0244 -0.17077,-3.12928 -0.36248,-9.63607 -0.52897,-15.63314 -0.16689,-6.0113 -0.26948,-11.02013 -0.44759,-13.43587 a 7.9380939,7.9380939 0 0 0 -5.71289,-7.03939 l -0.4069,-0.12207 a 7.9373002,7.9373002 0 0 0 -2.05079,-0.30924 z m -117.81412,42.34212 c 0.001,0.004 0.0163,0.0488 0.0163,0.0488 -1.2e-4,-5.6e-4 0.10806,0.62955 0.13835,0.88704 a 7.9373002,7.9373002 0 0 0 -0.15462,-0.93587 z m 47.53418,34.26107 c -2.95648,0.0893 -5.7104,0.82578 -8.30892,2.36002 a 7.2339234,7.2339234 0 0 0 -0.12207,0.0814 c -0.93815,0.57918 -1.79009,1.1674 -2.62858,1.86361 -0.41925,0.34811 -0.83273,0.71228 -1.31836,1.24512 -0.48563,0.53285 -1.14609,1.00058 -1.81478,3.05175 a 7.2339234,7.2339234 0 0 0 -0.13021,0.43946 c -0.37282,1.44549 -0.60472,3.02543 -0.16276,5.1595 a 7.2339234,7.2339234 0 0 0 0.0326,0.15462 c 0.68872,2.99925 2.55018,5.78047 4.71192,7.87761 a 7.2339234,7.2339234 0 0 0 0.0244,0.0244 c -0.029,-0.0214 3.23397,3.35095 6.14421,6.26628 1.4753,1.47787 2.9821,2.9579 4.35384,4.21549 1.36234,1.24898 1.47702,2.00253 4.63053,3.42611 1.21128,0.55133 3.11186,0.89587 4.86654,0.44759 0.43969,-0.11233 0.85018,-0.26507 1.22884,-0.43945 1.47916,0.25222 2.94345,-0.0419 3.8737,-0.43946 a 6.6756176,6.6756176 0 0 0 0.10579,-0.0488 c 3.01088,-1.34992 3.16467,-2.1051 4.52474,-3.35287 1.36006,-1.24777 2.86649,-2.7244 4.33756,-4.19922 2.94212,-2.94963 6.21641,-6.3438 6.14421,-6.27441 a 6.6756176,6.6756176 0 0 0 0,-0.008 c 2.13047,-2.05458 3.92787,-4.73437 4.58984,-7.61719 a 6.6756176,6.6756176 0 0 0 -0.63476,-2.64485 6.6756176,6.6756176 0 0 0 0.38249,-2.81576 c -0.61358,-1.88214 -1.2336,-2.32587 -1.69271,-2.83203 -0.4591,-0.50617 -0.85394,-0.8653 -1.2614,-1.20443 -0.81492,-0.67827 -1.66211,-1.2583 -2.59602,-1.83105 a 6.6756176,6.6756176 0 0 0 -0.0977,-0.057 c -2.50432,-1.47861 -5.16816,-2.20008 -8.02409,-2.28678 a 6.6756176,6.6756176 0 0 0 -0.19531,-0.008 c -1.61209,-0.003 -3.09243,0.006 -4.4515,0.0244 -0.0371,-0.006 -0.0711,-0.012 -0.0977,-0.0163 -0.12117,-0.0193 -0.17331,-0.0184 -0.21972,-0.0244 -0.0928,-0.012 -0.13771,-0.019 -0.18718,-0.0244 -0.0989,-0.0108 -0.1874,-0.0226 -0.29297,-0.0325 -0.21112,-0.0198 -0.48299,-0.0388 -0.83007,-0.0651 -0.69416,-0.0526 -1.68636,-0.11606 -2.9948,-0.17903 -2.61687,-0.12594 -6.49293,-0.24475 -11.68619,-0.236 a 7.2339234,7.2339234 0 0 0 -0.20345,0 z m 2.64485,25.38248 c 0.0917,0.0756 0.18444,0.14624 0.2767,0.21973 a 7.2332001,7.2332001 0 0 0 -1.31836,2.15657 c 0.093,-0.43063 0.10215,-1.12296 1.04166,-2.3763 z m 15.76335,0.80567 c 0.50738,0.80345 0.49262,1.22391 0.55339,1.46484 a 6.6749501,6.6749501 0 0 0 -0.73243,-1.3265 c 0.06,-0.0457 0.11945,-0.0919 0.17904,-0.13834 z" />
    <path
       style="display:none;fill:#d4ff2a;stroke-width:1.50118e-08;paint-order:stroke fill markers"
       d="m 333.43515,59.251238 c -12.56616,3.198401 -24.79839,8.16001 -35.24379,16.029866 -11.19122,7.762331 -20.66415,17.626651 -29.79966,27.685316 -7.22559,7.70788 -15.74398,14.18765 -21.74816,23.0215 -2.99736,3.67904 -5.35223,8.11727 -8.88418,11.24673 -2.58823,0.96009 -5.32964,-0.63493 -5.57475,-3.43898 -1.96737,-4.86501 -8.13638,-4.1409 -12.3163,-5.28478 -10.92541,-1.79439 -22.10591,-1.4907 -33.11128,-0.75164 -5.2917,0.91249 -10.88958,1.16886 -15.84896,3.25015 -2.12299,1.72923 -1.80221,6.96357 -5.63558,6.40894 -3.31375,0.0384 -4.48802,-3.98006 -6.51459,-6.02713 -5.70696,-8.3006 -12.28345,-15.96008 -19.87326,-22.55459 -12.2634,-12.322241 -23.59859,-25.885484 -38.25853,-35.463108 -10.141559,-6.882894 -21.72676,-11.633 -33.629615,-14.125217 -4.546923,-0.05353 -5.101616,5.556799 -6.185468,9.010471 -2.637326,12.424789 -5.346853,24.945452 -6.126368,37.650834 0.526104,18.84934 0.938926,38.23317 7.506208,56.11983 2.776044,6.09683 5.239435,12.50303 8.953899,18.04549 2.340396,2.26425 6.141004,3.64522 7.423328,6.76598 -0.585095,5.84179 -4.294495,10.82994 -5.977047,16.39166 -4.563802,11.51476 -6.622386,23.98136 -6.875215,36.34413 0.790133,9.70504 1.922157,19.56033 5.062337,28.81035 6.048896,15.21449 16.927333,28.26898 29.815851,38.08406 14.92316,10.55468 31.94806,17.52306 48.63671,24.66415 12.26717,4.42565 24.86546,8.11359 37.69375,10.44582 15.50349,2.70926 31.36568,0.14754 46.28006,-4.40235 12.92598,-3.20729 25.23113,-8.36126 37.25776,-14.04418 16.38478,-7.44891 33.19638,-15.74822 44.80908,-30.09173 9.30682,-10.66917 16.94578,-23.47725 18.54952,-37.85268 1.77173,-9.59246 2.66854,-19.44547 0.81776,-29.10734 -1.28567,-11.97293 -5.5639,-23.28493 -10.52594,-34.1419 -1.03806,-2.38695 -2.45564,-5.80998 0.52997,-7.47614 3.34538,-2.77161 7.41083,-4.99148 8.62944,-9.53603 4.44396,-8.75379 8.58462,-17.80281 9.99557,-27.63226 2.84194,-14.30639 3.2749,-28.98188 3.39703,-43.52818 -1.31567,-12.858289 -3.67968,-25.63665 -6.76013,-38.18132 -0.8741,-3.097588 -2.4724,-7.314361 -6.46945,-6.335722 z"
       id="mask-area"
       inkscape:label="mask-area" />
  </g>
</svg>
