<?xml version="1.0" encoding="UTF-8" standalone="no"?>
<svg
   width="400"
   height="400"
   viewBox="0 0 400 400"
   version="1.1"
   id="svg14"
   sodipodi:docname="線画猫_通常_id.svg"
   inkscape:version="1.4.3 (0d15f75, 2025-12-25)"
   xmlns:inkscape="http://www.inkscape.org/namespaces/inkscape"
   xmlns:sodipodi="http://sodipodi.sourceforge.net/DTD/sodipodi-0.dtd"
   xmlns="http://www.w3.org/2000/svg"
   xmlns:svg="http://www.w3.org/2000/svg">
  <defs
     id="defs14" />
  <sodipodi:namedview
     id="namedview14"
     pagecolor="#ffffff"
     bordercolor="#000000"
     borderopacity="0.25"
     inkscape:showpageshadow="2"
     inkscape:pageopacity="0.0"
     inkscape:pagecheckerboard="0"
     inkscape:deskcolor="#d1d1d1"
     inkscape:zoom="9.15625"
     inkscape:cx="48"
     inkscape:cy="48"
     inkscape:window-width="1920"
     inkscape:window-height="1009"
     inkscape:window-x="2040"
     inkscape:window-y="68"
     inkscape:window-maximized="1"
     inkscape:current-layer="svg14" />
  <g
     stroke-linecap="round"
     transform="matrix(1.0156916,0,0,1.0435542,-1.1858948,-34.185108)"
     id="レイヤー_2">
    <path
       id="maskpath"
       style="baseline-shift:baseline;display:inline;overflow:visible;opacity:1;vector-effect:none;fill:#1b1515;stroke-linecap:butt;stroke-linejoin:round;enable-background:accumulate;stop-color:#000000;stop-opacity:1"
       d="m 44.946754,93.515438 c -3.617186,0.09646 -6.429897,0.951113 -10.351885,1.988584 -3.739706,0.989254 -7.532403,2.170559 -10.624303,3.400089 a 7.5,7.5 0 0 0 -0.673033,0.233951 7.50075,7.50075 0 0 0 -0.08012,0.03119 7.5,7.5 0 0 0 -4.494898,8.936938 7.5,7.5 0 0 0 4.246517,4.89737 c -0.0824,1.69636 -0.128197,3.44651 -0.128197,5.15472 a 7.50075,7.50075 0 0 0 0,0.0234 c 0.0226,7.17498 1.078067,20.19282 2.403688,28.03514 a 7.50075,7.50075 0 0 0 0.008,0.0312 c 1.28438,7.39992 4.991909,20.18492 7.595656,27.84798 a 7.50075,7.50075 0 0 0 0.01602,0.0468 c 2.700871,7.75664 7.3311,17.36466 11.970369,24.01897 a 7.50075,7.50075 0 0 0 0.01602,0.0234 c 4.023852,5.7249 12.158198,15.32421 17.418729,20.24456 a 7.50075,7.50075 0 0 0 0.008,0.008 c 4.210105,3.92364 9.324695,7.65518 14.470205,10.27046 -0.322046,0.8359 -0.985872,2.58048 -1.626495,4.2969 -0.94426,2.52995 -1.990097,5.36392 -2.660082,7.60341 a 7.50075,7.50075 0 0 0 0,0.0156 c -2.46575,8.30504 -4.132064,21.69432 -4.238505,29.61821 a 7.50075,7.50075 0 0 0 0,0.0234 c -0.08517,8.54174 1.672615,20.44243 4.494898,28.05854 a 7.50075,7.50075 0 0 0 0.008,0.0312 c 2.426329,6.4702 7.612837,15.65119 11.537705,21.00101 a 7.50075,7.50075 0 0 0 0.008,0.008 c 3.672386,4.98671 9.427609,10.67561 14.534303,14.27881 a 7.50075,7.50075 0 0 0 0.01602,0.008 c 2.585994,1.81329 5.581784,3.21026 10.151574,5.45886 4.5698,2.24861 10.16006,4.89691 15.74416,7.48643 5.58411,2.58952 11.15091,5.11434 15.64,7.11211 4.4891,1.99776 7.47695,3.32476 9.48656,4.04736 a 7.50075,7.50075 0 0 0 0.024,0.0156 c 7.07769,2.51451 17.16698,5.45642 26.30436,7.85296 4.56869,1.19828 8.87878,2.24651 12.45111,3.02577 3.57232,0.77926 5.87434,1.34373 8.70936,1.4115 a 7.50075,7.50075 0 0 0 0.024,0 c 1.14971,0.024 2.09223,0.008 2.9966,-0.0936 0.90292,0.10068 1.8409,0.11749 2.98859,0.0936 a 7.50075,7.50075 0 0 0 0.024,0 c 2.83502,-0.0678 5.13705,-0.63224 8.70937,-1.4115 3.57233,-0.77926 7.88242,-1.82749 12.4511,-3.02577 9.13738,-2.39654 19.22668,-5.33845 26.30437,-7.85296 a 7.50075,7.50075 0 0 0 0.024,-0.0156 c 2.00961,-0.7226 4.99745,-2.0496 9.48655,-4.04736 4.4891,-1.99777 10.05589,-4.52259 15.64,-7.11211 5.5841,-2.58952 11.17436,-5.23782 15.74416,-7.48643 4.56979,-2.2486 7.56559,-3.64557 10.15158,-5.45886 a 7.50075,7.50075 0 0 0 0.016,-0.0156 c 5.1067,-3.6032 10.86191,-9.2843 14.5343,-14.27101 a 7.50075,7.50075 0 0 0 0.008,-0.008 c 3.92487,-5.34982 9.11138,-14.53081 11.53771,-21.00101 a 7.50075,7.50075 0 0 0 0.008,-0.0312 c 2.82229,-7.61611 4.58382,-19.52185 4.51092,-28.05074 a 7.50075,7.50075 0 0 0 0,-0.0312 c -0.10654,-7.93135 -1.79071,-21.31968 -4.25453,-29.61821 a 7.50075,7.50075 0 0 0 0,-0.0156 c -0.66998,-2.23949 -1.71582,-5.07346 -2.66008,-7.60341 -0.64066,-1.7165 -1.30504,-3.46104 -1.6265,-4.2969 5.14574,-2.61526 10.26038,-6.34708 14.47021,-10.27046 a 7.50075,7.50075 0 0 0 0.016,-0.008 c 5.26053,-4.92035 13.38687,-14.51966 17.41072,-20.24456 a 7.50075,7.50075 0 0 0 0.008,-0.0156 c 4.65839,-6.6649 9.27962,-16.27619 11.97838,-24.02677 a 7.50075,7.50075 0 0 0 0.016,-0.0468 c 2.60375,-7.66306 6.31127,-20.44806 7.59565,-27.84798 a 7.50075,7.50075 0 0 0 0.008,-0.0312 c 1.32562,-7.84232 2.3811,-20.86016 2.40369,-28.03514 a 7.50075,7.50075 0 0 0 0,-0.0234 c 0,-1.70789 -0.0458,-3.45866 -0.1282,-5.15472 a 7.5,7.5 0 0 0 4.24652,-4.89737 7.5,7.5 0 0 0 -4.6872,-9.014922 7.50075,7.50075 0 0 0 -0.0481,-0.0234 c -0.0454,-0.01858 -0.10623,-0.02999 -0.16025,-0.04679 a 7.5,7.5 0 0 0 -0.35254,-0.116976 c -3.09007,-1.228748 -6.87804,-2.410887 -10.61629,-3.400089 -3.92117,-1.037607 -6.74372,-1.892473 -10.3599,-1.988584 a 7.50075,7.50075 0 0 0 -0.0881,0 c -6.315,-0.09356 -20.28224,0.581112 -28.21129,1.918399 a 7.50075,7.50075 0 0 0 -0.0321,0.0078 c -7.67394,1.327937 -18.96299,5.458002 -27.77062,9.482812 a 7.50075,7.50075 0 0 0 -0.0961,0.0468 c -5.39995,2.56361 -17.87313,9.03502 -24.68589,13.3898 -3.28099,2.09768 -7.85648,5.76055 -12.40303,9.5764 -2.27328,1.90793 -4.451,3.80086 -6.26561,5.47445 -1.81462,1.6736 -2.99929,2.6001 -4.50291,4.74921 a 7.50075,7.50075 0 0 0 -0.0401,0.0546 c -0.61367,0.89493 -0.96706,1.53553 -1.66656,2.72163 a 7.5,7.5 0 0 0 -0.0721,0.13257 c -1.29363,-0.441 -2.73595,-0.89254 -4.25453,-1.23994 a 7.50075,7.50075 0 0 0 -0.0481,-0.008 c -4.1185,-0.91323 -20.2214,-3.72278 -28.11515,-4.2735 a 7.50075,7.50075 0 0 0 -0.0881,-0.008 c -5.03114,-0.29114 -8.65186,-0.38543 -11.21722,-0.39772 -2.25841,-0.0108 -3.62726,0.0504 -4.49489,0.10138 0.0281,0.002 0.0457,0.007 0.0641,0.008 a 7.5,7.5 0 0 0 -0.18428,-0.008 c -0.0309,2.2e-4 -0.0687,-0.002 -0.11217,0 h -0.008 a 7.5,7.5 0 0 0 -1.1057,0.0624 7.5,7.5 0 0 0 -1.09768,-0.0624 h -0.008 -0.008 a 7.5,7.5 0 0 0 -0.0721,0 c -0.009,-5.4e-4 -0.0391,5.4e-4 -0.0481,0 a 7.5,7.5 0 0 0 -0.18429,0.008 c 0.0185,-0.001 0.0354,-0.006 0.0641,-0.008 -0.86886,-0.0512 -2.23958,-0.11222 -4.4949,-0.10138 -2.56601,0.0123 -6.18592,0.10657 -11.21721,0.39772 a 7.50075,7.50075 0 0 0 -0.0881,0.008 c -7.89375,0.55072 -23.99665,3.36027 -28.11515,4.2735 a 7.50075,7.50075 0 0 0 -0.0481,0.008 c -1.51843,0.34736 -2.95356,0.79898 -4.24652,1.23994 a 7.5,7.5 0 0 0 -0.0801,-0.13257 c -0.6995,-1.1861 -1.05289,-1.8267 -1.66656,-2.72163 a 7.50075,7.50075 0 0 0 -0.0401,-0.0546 c -1.50362,-2.14911 -2.68058,-3.07572 -4.4949,-4.74921 -1.81433,-1.67348 -4.00122,-3.56672 -6.27362,-5.47445 -4.5448,-3.81547 -9.11651,-7.47333 -12.38701,-9.5686 a 7.50075,7.50075 0 0 0 -0.016,-0.008 c -6.81594,-4.34965 -19.28592,-10.82619 -24.68588,-13.3898 a 7.50075,7.50075 0 0 0 -0.0962,-0.0468 C 92.243319,100.90081 80.963689,96.769356 73.27823,95.441635 a 7.50075,7.50075 0 0 0 -0.03205,-0.0078 C 65.317139,94.096591 51.357896,93.421882 45.042902,93.515438 a 7.50075,7.50075 0 0 0 -0.09615,0 z m -21.649221,5.622624 c 0.09467,-0.04058 0.185927,-0.07656 0.256393,-0.101378 -0.03599,0.01102 -0.06611,0.01889 -0.09615,0.03119 a 7.50075,7.50075 0 0 0 -0.160246,0.07019 z m 22.033811,9.373638 h 0.008 c 4.546366,-0.0593 19.92756,0.78952 25.390963,1.70784 2.373196,0.41059 7.018062,1.8085 12.002418,3.56386 a 7.5,7.5 0 0 0 2.299529,4.42947 c 1.010506,0.94669 1.622311,1.50982 2.307541,2.06657 a 7.50075,7.50075 0 0 0 0.08012,0.0624 c 0.396531,0.31305 0.504303,0.39165 0.528812,0.40551 h 0.008 0.008 c 0.0087,0.005 0.02474,0.0144 0.04807,0.0312 0.186652,0.13411 0.430354,0.31707 0.737131,0.53808 0.613555,0.44204 1.45307,1.04693 2.403689,1.74684 1.890198,1.3917 4.242294,3.16262 6.049283,4.64783 3.2788,2.74239 11.94582,13.10797 14.28592,16.7197 1.04733,1.63166 4.06591,7.06214 6.69828,12.08747 2.63538,5.03106 5.3378,10.72787 5.39228,10.87093 a 7.50075,7.50075 0 0 0 0.024,0.0468 c 0.11328,0.29129 0.24189,0.63967 0.40862,1.06838 a 7.5,7.5 0 0 0 9.70289,4.2735 7.5,7.5 0 0 0 4.27857,-9.70897 c -0.10808,-0.27793 -0.23671,-0.61938 -0.39261,-1.02158 l -0.008,-0.008 c -1.1761,-3.0864 -3.39847,-7.28701 -6.12139,-12.48519 -2.72462,-5.20144 -5.48533,-10.31425 -7.37131,-13.24943 a 7.50075,7.50075 0 0 0 -0.016,-0.0234 c -0.23248,-0.35908 -0.47752,-0.73132 -0.73713,-1.11516 1.68324,1.32366 3.52374,2.81031 5.24806,4.25791 2.13635,1.79351 4.17769,3.57627 5.7368,5.01435 1.27445,1.17551 2.3854,2.45358 2.46779,2.47988 0.17827,0.29299 0.54969,0.90646 0.98551,1.64546 a 7.5,7.5 0 0 0 2.9325,2.79181 7.5,7.5 0 0 0 6.97871,5.89557 c 0.33397,0.0152 0.55086,0.0791 1.64252,-0.0546 2.32647,-0.20646 2.09273,-0.45733 2.71617,-0.67066 0.66855,-0.22877 1.38379,-0.48672 2.14729,-0.75644 1.51839,-0.53639 3.26331,-1.10349 4.15838,-1.31013 0.52532,-0.11416 20.8344,-3.59233 25.85568,-3.94597 9.28606,-0.53489 12.90778,-0.36994 14.05356,-0.29634 h 0.008 c 0.66509,0.055 1.06619,0.0313 1.49028,0.008 a 7.5,7.5 0 0 0 0.5849,-0.0546 7.5,7.5 0 0 0 0.57689,0.0546 c 0.39627,0.0221 0.79569,0.0427 1.38612,0 l 0.0641,-0.008 c 0.0157,-10e-4 0.0394,0.001 0.0561,0 1.18444,-0.0749 4.80352,-0.23617 14.04555,0.29634 5.02296,0.35403 25.33841,3.83182 25.86369,3.94597 0.89507,0.20664 2.63198,0.77374 4.15037,1.31013 0.76351,0.26972 1.47874,0.52767 2.14729,0.75644 0.63577,0.21755 0.31761,0.4698 2.80431,0.67846 0.89444,0.096 1.22345,0.0618 1.55438,0.0468 a 7.5,7.5 0 0 0 6.98672,-5.90337 7.5,7.5 0 0 0 2.92449,-2.78401 c 0.43582,-0.73902 0.80724,-1.35248 0.98551,-1.64546 0.0826,-0.0266 1.19346,-1.30458 2.46779,-2.47988 1.55914,-1.43796 3.60809,-3.22103 5.74481,-5.01435 1.72361,-1.44661 3.5572,-2.93488 5.24005,-4.25791 -0.25907,0.38309 -0.50508,0.75674 -0.73714,1.11516 a 7.50075,7.50075 0 0 0 -0.016,0.0234 c -1.88598,2.93518 -4.64669,8.05579 -7.37131,13.25723 -2.72463,5.20145 -4.95389,9.39825 -6.12941,12.48519 a 7.50075,7.50075 0 0 0 -0.0401,0.12477 c -0.0732,0.20271 -0.18753,0.49308 -0.34453,0.89681 a 7.5,7.5 0 0 0 4.27056,9.70897 7.5,7.5 0 0 0 9.70289,-4.2735 c 0.11281,-0.29009 0.26479,-0.65738 0.43266,-1.11517 l 0.008,-0.0156 c 0.15509,-0.35286 2.80896,-5.92365 5.39228,-10.85533 2.63422,-5.02885 5.65298,-10.46781 6.69827,-12.09527 v -0.008 c 2.34796,-3.61925 11.00962,-13.9638 14.28593,-16.7041 1.80699,-1.48521 4.15107,-3.25613 6.04127,-4.64783 0.95062,-0.69991 1.79014,-1.3048 2.40369,-1.74684 0.30678,-0.22101 0.55048,-0.40397 0.73713,-0.53808 0.0346,-0.0249 0.0569,-0.028 0.0641,-0.0312 v -0.008 l 0.008,0.008 v -0.008 h 0.008 c 0.0277,-0.0161 0.1257,-0.0908 0.50477,-0.38991 l 0.008,-0.008 c 0.86676,-0.68342 1.39887,-1.20262 2.38766,-2.12896 a 7.5,7.5 0 0 0 2.29953,-4.42947 c 4.9868,-1.75565 9.64169,-3.15336 12.01043,-3.56386 5.4681,-0.91804 20.83898,-1.76716 25.38295,-1.70784 -0.49292,-0.002 3.47881,0.58812 6.91461,1.49729 0.0688,0.0182 0.1392,0.0361 0.20832,0.0546 0.20722,2.33099 0.37605,5.45981 0.37658,8.08691 -0.0184,5.52646 -1.1421,19.3145 -2.19537,25.55525 -0.89774,5.16157 -4.68721,18.71146 -7.00275,25.53186 -2.14332,6.14688 -6.8177,15.63782 -10.09549,20.33035 -2.83881,4.037 -11.96569,14.71334 -15.36758,17.89726 -3.61406,3.3671 -13.43624,8.95207 -14.99902,9.50621 -0.0451,0.007 -0.15568,0.024 -0.32049,0.039 a 7.5,7.5 0 0 0 -6.78641,8.1493 7.5,7.5 0 0 0 2.63604,5.05334 c 0.0705,0.34772 0.14172,0.5993 0.21634,0.87342 0.18824,0.69159 0.41728,1.41214 0.71309,2.23033 a 7.50075,7.50075 0 0 0 0.016,0.0468 c 0.33548,0.91056 0.9476,2.46173 1.85084,4.88178 0.90111,2.41433 1.91965,5.27767 2.33158,6.65201 1.555,5.23749 3.55324,20.04537 3.62957,25.52406 0.0437,5.51519 -2.20845,19.00602 -3.56547,22.67766 -1.29896,3.45622 -7.21061,14.16032 -9.56668,17.37477 -2.02661,2.75109 -8.31967,8.93095 -11.09703,10.89432 0.0708,-0.0503 -3.75058,2.11727 -8.1485,4.2813 -4.40083,2.16546 -9.9263,4.78154 -15.4397,7.33827 -5.51339,2.55673 -11.02214,5.05973 -15.42366,7.01853 -4.39356,1.95525 -8.09299,3.50669 -8.44496,3.63404 -6.29277,2.23512 -16.25217,5.15588 -25.07849,7.47084 -4.41506,1.15798 -8.57106,2.17184 -11.84217,2.88539 -1.83373,0.40001 -3.55357,0.69071 -4.65514,0.86562 a 7.5,7.5 0 0 0 -3.87795,-0.34313 7.5,7.5 0 0 0 -3.86994,0.34313 c -1.10224,-0.17498 -2.82308,-0.46597 -4.65514,-0.86562 -3.27111,-0.71355 -7.42712,-1.72741 -11.84218,-2.88539 -8.8196,-2.3132 -18.76891,-5.23637 -25.06246,-7.47084 h -0.008 c -0.3477,-0.12552 -4.05647,-1.67748 -8.45297,-3.63404 -4.40153,-1.9588 -9.91028,-4.4618 -15.42367,-7.01853 -5.5134,-2.55673 -11.03886,-5.17281 -15.43969,-7.33827 -4.39792,-2.16403 -8.21928,-4.33161 -8.1485,-4.2813 -2.77736,-1.96337 -9.06241,-8.14323 -11.089023,-10.89432 h -0.008 c -2.356704,-3.21602 -8.26789,-13.91901 -9.56668,-17.37477 -1.357231,-3.67223 -3.609583,-17.16915 -3.557459,-22.66986 0.07552,-5.47974 2.060549,-20.27542 3.613545,-25.51626 v -0.008 c 0.410728,-1.37194 1.43714,-4.24188 2.33959,-6.65981 0.90324,-2.42005 1.51537,-3.97122 1.85084,-4.88178 a 7.50075,7.50075 0 0 0 0.01602,-0.0468 c 0.295806,-0.81819 0.532864,-1.53874 0.721106,-2.23033 0.07404,-0.27202 0.138926,-0.52203 0.20832,-0.86562 a 7.5,7.5 0 0 0 2.65207,-5.06894 7.5,7.5 0 0 0 -6.802439,-8.1415 c -0.167279,-0.015 -0.27719,-0.0328 -0.320492,-0.039 -1.565817,-0.55608 -11.377675,-6.13979 -14.991004,-9.50621 h -0.008 c -3.400053,-3.1827 -12.51311,-13.83757 -15.35957,-17.88166 v -0.008 C 53.861995,184.86909 49.177406,175.36249 47.03785,169.22084 l -0.008,-0.008 c -2.316104,-6.82626 -6.097791,-20.35146 -6.994734,-25.50847 -1.05327,-6.24075 -2.176957,-20.02879 -2.195369,-25.55525 5.36e-4,-2.62598 0.168916,-5.75623 0.376578,-8.08691 0.07003,-0.0187 0.1466,-0.0361 0.216332,-0.0546 3.432452,-0.90798 7.388205,-1.49782 6.898586,-1.49729 z m 94.969736,117.89575 a 7.50075,7.50075 0 0 0 -7.49951,7.38505 c -0.0372,2.31751 0.084,5.86528 0.33652,11.26865 0.12765,2.75778 0.0968,11.17293 0.12018,13.45998 -0.001,-0.0347 -0.006,-0.0521 -0.008,-0.0624 l -0.008,0.008 c -0.0199,0.10553 -0.0566,0.63652 -0.13621,1.09957 -0.0584,0.33983 -0.12668,0.69627 -0.1923,1.09177 -0.0328,0.19775 -0.0598,0.39684 -0.0961,0.70186 -0.0364,0.30503 -0.21278,0.37894 -0.016,2.00418 a 7.5,7.5 0 0 0 8.34881,6.54283 7.5,7.5 0 0 0 6.55406,-6.7144 c -0.001,0.008 0.002,-7.6e-4 0.008,-0.0546 5.2e-4,-0.004 -9.5e-4,-0.0117 0,-0.0156 v -0.008 a 7.5,7.5 0 0 0 0.008,-0.0234 c 0.0219,-0.0448 0.0622,-0.10633 0.0641,-0.38212 -0.0228,0.12967 -0.0415,0.23466 -0.0561,0.31974 a 7.5,7.5 0 0 0 -0.032,-1.47389 c 0.0701,0.57857 0.0896,0.9353 0.0881,1.15415 0.03,-0.17061 0.0663,-0.38027 0.10416,-0.60047 0.15304,-0.88987 0.3977,-1.85857 0.36857,-3.69643 -0.0142,-1.25206 0.0538,-9.94897 -0.13621,-14.04486 a 7.50075,7.50075 0 0 0 0,-0.008 c -0.22593,-4.83489 -0.29785,-7.785 -0.29646,-9.42823 a 7.5,7.5 0 0 0 0.42465,-1.02158 7.5,7.5 0 0 0 -7.4995,-7.50203 z m 118.64606,0 a 7.5,7.5 0 0 0 -7.4995,7.50203 7.5,7.5 0 0 0 0.42465,1.02158 c 0.001,1.64323 -0.0705,4.59334 -0.29646,9.42823 a 7.50075,7.50075 0 0 0 0,0.008 c -0.18992,4.09532 -0.12204,12.7909 -0.13621,14.04486 -0.0291,1.83786 0.21553,2.80656 0.36857,3.69643 0.0377,0.21928 0.0737,0.42251 0.10416,0.59268 -0.002,-0.21901 0.0182,-0.56968 0.0881,-1.14636 a 7.5,7.5 0 0 0 -0.032,1.45829 c -0.0145,-0.0828 -0.0345,-0.19096 -0.0561,-0.31193 0.002,0.2684 0.0416,0.33712 0.0641,0.38212 0.001,0.008 0.007,0.0162 0.008,0.0234 v 0.008 a 7.5,7.5 0 0 0 6.56207,6.79238 7.5,7.5 0 0 0 8.34881,-6.54283 c 0.197,-1.62524 0.0286,-1.69915 -0.008,-2.00418 -0.0364,-0.30502 -0.0713,-0.50411 -0.10416,-0.70186 -0.0656,-0.3955 -0.13386,-0.75194 -0.1923,-1.09177 -0.0877,-0.50974 -0.11887,-1.09921 -0.13621,-1.11517 h -0.008 v 0.008 c -0.003,0.0185 -0.006,0.0781 -0.008,0.16377 0.0254,-2.13599 -0.009,-10.76324 0.12018,-13.56136 v -0.008 c 0.25232,-5.40021 0.37368,-8.94414 0.33652,-11.26085 a 7.50075,7.50075 0 0 0 -7.4915,-7.38505 z m -181.726861,2.66704 a 7.5,7.5 0 0 0 2.54791,5.02215 c -2.40459,-2.06108 -2.376009,-3.65015 -2.507849,-4.44507 -0.05165,-0.3114 -0.02662,-0.37415 -0.04006,-0.57708 z m 246.257891,0 c -0.0133,0.20251 0.0115,0.26594 -0.0401,0.57708 -0.13184,0.79492 -0.10326,2.38399 -2.50785,4.44507 a 7.5,7.5 0 0 0 2.54791,-5.02215 z M 197.81333,283.5305 a 7.5,7.5 0 0 0 -3.00461,0.44451 c -0.24699,0.0456 -0.61946,0.11333 -1.03358,0.18716 -1.34986,0.24063 -3.30558,0.59102 -5.43234,1.21654 a 7.50075,7.50075 0 0 0 -0.0721,0.0156 c -0.9977,0.30407 -1.85443,0.55663 -2.49182,0.74085 -0.3187,0.0921 -0.57919,0.16879 -0.80123,0.23395 -0.11101,0.0326 -0.20823,0.0588 -0.34453,0.10137 -0.0682,0.0213 -0.14428,0.0436 -0.28845,0.0936 -0.009,0.003 -0.0251,0.006 -0.032,0.008 h -0.008 c -0.0798,9.2e-4 -0.0883,-0.0867 -1.24992,0.57708 a 7.50075,7.50075 0 0 0 -1.14575,0.81103 c -2.20852,1.88793 -2.64529,4.18579 -2.74021,5.47446 -0.0949,1.28866 0.0656,2.07266 0.21633,2.74502 0.30155,1.34472 0.70165,2.24311 1.15377,3.18174 0.90422,1.87725 2.03696,3.67188 3.62957,5.44326 a 7.50075,7.50075 0 0 0 0.0801,0.078 c 1.5885,1.71557 3.33727,3.15768 4.97563,4.42168 0.33198,0.25613 0.64818,0.44925 0.96148,0.67846 0.39884,0.55011 0.79625,1.18656 1.20184,1.64545 0.35524,0.40194 0.70408,0.76326 1.14576,1.16976 0.44168,0.4065 0.2802,0.81981 2.76424,1.78583 a 7.50075,7.50075 0 0 0 5.07178,-0.28075 7.50075,7.50075 0 0 0 5.10384,0.24955 c 2.48301,-0.9932 2.29228,-1.36954 2.72418,-1.77023 0.4319,-0.40069 0.76993,-0.76279 1.12172,-1.16195 0.40093,-0.45494 0.80482,-1.09002 1.20184,-1.63766 0.31313,-0.2291 0.62168,-0.42247 0.95347,-0.67846 1.63837,-1.264 3.38714,-2.70611 4.97563,-4.42168 a 7.50075,7.50075 0 0 0 0.0801,-0.078 c 1.59262,-1.77138 2.72534,-3.56601 3.62957,-5.44326 0.45211,-0.93863 0.85222,-1.83702 1.15377,-3.18174 0.15077,-0.67236 0.31126,-1.45636 0.21634,-2.74502 -0.0949,-1.28867 -0.53169,-3.58653 -2.74021,-5.47446 a 7.50075,7.50075 0 0 0 -1.14576,-0.81103 c -1.14704,-0.65546 -1.16921,-0.57479 -1.24992,-0.57708 h -0.008 c -0.007,-0.001 -0.015,-0.005 -0.024,-0.008 -0.14385,-0.0502 -0.22022,-0.0722 -0.28845,-0.0936 -0.13645,-0.0429 -0.23324,-0.0686 -0.34453,-0.10137 -0.22257,-0.0656 -0.47342,-0.14135 -0.79321,-0.23395 -0.63957,-0.18521 -1.50756,-0.43502 -2.51586,-0.74085 a 7.50075,7.50075 0 0 0 -0.0641,-0.0156 c -2.12475,-0.62493 -4.0774,-0.97597 -5.42433,-1.21654 -0.41326,-0.0738 -0.77989,-0.14095 -1.02557,-0.18716 a 7.5,7.5 0 0 0 -4.01416,-0.31974 7.5,7.5 0 0 0 -1.53035,0.4835 7.5,7.5 0 0 0 -1.53836,-0.4835 7.5,7.5 0 0 0 -1.00955,-0.12477 z m -2.71617,0.38212 c 0.0124,-0.003 0.0183,8.1e-4 0.024,0 l -0.008,0.008 c -0.0175,0.004 -0.0497,0.008 -0.0881,0.0156 0.031,-0.009 0.0556,-0.0195 0.0721,-0.0234 z m 10.49611,0 c 0.0125,0.002 0.0366,0.008 0.0881,0.0234 -0.0358,-0.007 -0.0636,-0.012 -0.0801,-0.0156 z m -11.40149,0.31973 a 7.5,7.5 0 0 0 -0.92943,0.52249 c 0.0182,-0.0127 0.0496,-0.0456 0.0641,-0.0546 0.37433,-0.23334 0.65528,-0.37514 0.86533,-0.46791 z m 12.34694,0.008 c 0.20874,0.0936 0.48235,0.23862 0.84931,0.4679 0.0131,0.008 0.04,0.0356 0.0561,0.0468 a 7.5,7.5 0 0 0 -0.90539,-0.51469 z m -13.40457,0.60827 a 7.5,7.5 0 0 0 -3.14082,4.68682 c 0.6513,-3.25647 2.31299,-4.18865 3.14082,-4.68682 z m 14.43816,0 c 0.82524,0.49845 2.48986,1.432 3.14082,4.68682 a 7.5,7.5 0 0 0 -3.14082,-4.68682 z" />
  </g>
  <path
     style="display:none;fill:#d4ff2a;stroke-width:1.36519e-08;paint-order:stroke fill markers"
     d="m 46.951438,75.089767 c -4.058958,0.160542 -8.329106,0.626825 -11.94806,2.533954 -2.358009,3.606371 -1.482914,8.301576 -1.719278,12.439463 0.414188,14.867846 2.147691,29.780236 6.660543,44.004346 3.154878,11.7787 7.802257,23.30526 14.763978,33.36518 8.54525,11.09105 17.833455,22.84968 31.179105,28.27886 2.471587,0.18337 5.285991,2.05645 5.016358,4.8066 -1.709162,3.78913 -3.677287,7.54555 -4.88325,11.58238 -5.757213,15.68426 -7.800542,32.83546 -5.456092,49.39867 1.799646,11.98934 7.287917,23.26817 14.714871,32.76539 3.575479,3.88686 7.050797,8.11215 11.426547,11.05949 23.27599,11.30564 46.25147,23.98334 71.58691,30.13388 8.55281,2.09677 17.11959,5.14329 26.06619,4.2811 9.63692,-0.0658 18.76282,-3.67834 28.00973,-5.9649 23.46868,-6.6215 44.9653,-18.46948 66.7394,-29.13443 6.91648,-6.24226 13.52914,-13.14862 17.57073,-21.67597 6.35302,-10.84357 8.45263,-23.61189 8.49864,-36.02212 -0.55632,-12.87506 -2.72006,-25.77427 -7.59208,-37.75775 -0.65211,-2.6488 -1.76258,-5.35756 -3.54539,-7.57342 -1.28636,-2.78549 1.45969,-5.41016 4.12311,-5.69005 10.42333,-4.01764 18.71678,-11.98695 25.56647,-20.60093 9.465,-10.86108 16.13498,-23.92238 19.97711,-37.77507 3.43163,-11.58649 6.43673,-23.3849 6.94929,-35.516 0.32525,-7.516089 1.50218,-15.251602 -0.12817,-22.653714 -1.48722,-3.727255 -6.30947,-3.288325 -9.68215,-4.100975 -9.26949,-0.430967 -18.61944,0.375083 -27.76948,1.887795 -16.43392,3.428221 -31.41444,11.587646 -45.72636,20.079284 -8.83687,5.52591 -16.9723,12.2958 -23.93287,20.04888 -1.92831,2.57778 -4.15309,4.90763 -5.7594,7.7254 -3.06252,2.21591 -6.70943,-0.74505 -9.90383,-1.2212 -13.58132,-3.21144 -27.48656,-5.34743 -41.47633,-5.107 -12.58534,-0.17671 -25.23739,0.10316 -37.60954,2.6518 -6.6814,0.97678 -13.16938,2.91416 -19.66093,4.62297 -3.45642,-0.80147 -4.02003,-5.03107 -6.51713,-7.10057 -6.53239,-7.84209 -14.5334,-14.39128 -22.87277,-20.218884 C 105.98826,90.369305 91.790088,82.549242 76.358076,78.216546 66.781892,75.729246 56.791425,75.365855 46.951438,75.089767 Z"
     id="mask-area" />
</svg>
