<?xml version="1.0" encoding="UTF-8" standalone="no"?>
<svg
   width="96.00"
   height="96.00"
   viewBox="0.00 0.00 400.00 400.00"
   version="1.1"
   id="svg25"
   sodipodi:docname="線画猫_リアル_id.svg"
   inkscape:version="1.4.3 (0d15f75, 2025-12-25)"
   xmlns:inkscape="http://www.inkscape.org/namespaces/inkscape"
   xmlns:sodipodi="http://sodipodi.sourceforge.net/DTD/sodipodi-0.dtd"
   xmlns="http://www.w3.org/2000/svg"
   xmlns:svg="http://www.w3.org/2000/svg">
  <defs
     id="defs25" />
  <sodipodi:namedview
     id="namedview25"
     pagecolor="#ffffff"
     bordercolor="#000000"
     borderopacity="0.25"
     inkscape:showpageshadow="2"
     inkscape:pageopacity="0.0"
     inkscape:pagecheckerboard="0"
     inkscape:deskcolor="#d1d1d1"
     inkscape:zoom="9.15625"
     inkscape:cx="48"
     inkscape:cy="48"
     inkscape:window-width="1920"
     inkscape:window-height="1009"
     inkscape:window-x="2040"
     inkscape:window-y="68"
     inkscape:window-maximized="1"
     inkscape:current-layer="svg25" />
  <g
     stroke-linecap="round"
     id="レイヤー_2"
     transform="matrix(1.1159822,0,0,1.1419063,-21.434184,-11.050009)">
    <path
       id="mask-areaba"
       style="baseline-shift:baseline;display:inline;overflow:visible;vector-effect:none;fill:#1b1515;stroke-linecap:butt;stroke-linejoin:round;enable-background:accumulate;stop-color:#000000;stop-opacity:1;opacity:1"
       d="M 73.599455 51.503397 A 7.50075 7.50075 0 0 0 66.927046 55.415954 A 7.50075 7.50075 0 0 0 63.324675 59.834506 C 63.324216 59.835969 63.325278 59.853945 63.324675 59.855886 A 7.50075 7.50075 0 0 0 63.280921 59.969913 L 63.280921 59.97704 A 7.50075 7.50075 0 0 0 63.011108 62.371611 C 62.951368 61.176865 63.005892 60.918636 63.054862 60.611316 C 62.877782 61.112446 62.662615 61.734321 62.405851 62.535525 C 61.821906 64.357662 61.123553 66.728146 60.794264 69.462675 A 7.50075 7.50075 0 0 0 60.786972 69.512562 C 59.954006 76.862925 59.961677 86.959842 60.305684 98.888809 A 7.50075 7.50075 0 0 0 60.305684 98.967202 C 60.804869 111.57929 61.747138 118.27338 64.484143 129.17015 A 7.50075 7.50075 0 0 0 64.498727 129.21291 C 66.143213 135.58908 69.53077 148.64871 71.54304 154.46992 A 7.50075 7.50075 0 0 0 71.550333 154.49843 C 72.737859 157.89476 74.741777 162.5134 76.975766 167.03429 C 79.209756 171.55517 81.020668 175.42863 84.224262 178.82185 A 7.50075 7.50075 0 0 0 84.450322 179.0499 C 84.536788 179.13394 84.630799 179.21904 84.720135 179.30646 C 84.100779 181.84624 83.081904 185.8988 82.080341 189.94662 C 80.748794 195.32808 79.447666 200.60891 78.871751 203.77954 A 7.50075 7.50075 0 0 0 78.864459 203.83656 C 77.813857 209.87205 77.03056 217.92558 76.479893 225.03848 C 75.929225 232.15137 75.596068 237.37092 75.663161 240.30387 C 75.768619 244.81746 76.869445 248.44977 78.718614 252.36937 A 7.50075 7.50075 0 0 0 78.747783 252.44063 C 80.664334 256.39489 83.322852 259.24713 86.360892 262.83849 C 89.398932 266.42985 92.137461 269.51178 94.229229 271.43328 A 7.50075 7.50075 0 0 0 94.26569 271.46892 C 100.20452 276.84215 109.92348 282.43153 119.79586 287.84607 A 7.50075 7.50075 0 0 0 119.8469 287.87457 C 127.19007 291.82689 137.80239 296.18247 145.09996 299.0136 A 7.50075 7.50075 0 0 0 145.19476 299.04924 C 152.52395 301.78104 162.14524 304.14413 170.25093 305.93363 C 174.30377 306.82838 177.94911 307.5597 180.64968 308.07164 C 181.99996 308.32761 183.11075 308.52874 183.95307 308.67028 C 184.37423 308.74108 184.71766 308.80186 185.04691 308.84845 C 185.21153 308.87175 185.36504 308.88959 185.58653 308.91259 C 185.79793 308.93449 185.65052 309.08511 187.26375 308.91259 C 188.03278 308.83766 188.4776 308.75755 188.83888 308.67028 C 190.27085 308.80073 191.78857 308.94225 191.99642 308.89833 L 192.00371 308.89833 L 192.011 308.89833 L 192.011 308.89121 L 192.011 308.88408 L 192.00371 308.88408 L 192.00371 308.87695 L 191.99642 308.87695 C 191.97074 308.86275 191.90944 308.84333 191.82141 308.81994 A 7.50075 7.50075 0 0 0 191.84328 308.81994 C 193.53494 309.26511 193.90881 309.18156 194.78206 309.24754 C 195.6553 309.31354 196.59921 309.35507 197.51665 309.39007 C 198.07369 309.41133 198.61295 309.42872 199.12095 309.43996 C 199.65177 309.49613 199.67528 309.45799 199.9231 309.46134 C 200.10503 309.46363 200.29677 309.46223 200.49189 309.46134 C 200.69539 309.46237 200.88625 309.46372 201.07527 309.46134 C 201.32321 309.45822 201.34581 309.49632 201.87742 309.43996 C 202.38518 309.42869 202.93227 309.41131 203.48901 309.39007 C 204.40645 309.35507 205.34307 309.31348 206.21631 309.24754 C 207.08956 309.18154 207.46342 309.26511 209.15508 308.81994 A 7.50075 7.50075 0 0 0 209.17696 308.81994 C 209.10151 308.83999 209.03849 308.86371 209.00924 308.87695 C 209.00557 308.87898 208.99714 308.88222 208.99465 308.88408 L 208.99465 308.89121 L 208.99465 308.89833 L 209.00195 308.89833 C 209.16024 308.95101 210.69899 308.80333 212.15949 308.67028 C 212.52082 308.75759 212.96537 308.83764 213.73462 308.91259 C 215.3479 309.08506 215.20043 308.93449 215.41183 308.91259 C 215.63332 308.88959 215.78684 308.87175 215.95146 308.84845 C 216.28071 308.80185 216.62414 308.74106 217.0453 308.67028 C 217.88762 308.52874 218.99841 308.32761 220.34869 308.07164 C 223.04926 307.5597 226.6946 306.82838 230.74744 305.93363 C 238.85313 304.14413 248.48171 301.78104 255.8109 299.04924 A 7.50075 7.50075 0 0 0 255.9057 299.0136 C 263.20327 296.18247 273.80829 291.82689 281.15146 287.87457 A 7.50075 7.50075 0 0 0 281.2098 287.84607 C 291.08218 282.43153 300.79385 276.84215 306.73268 271.46892 A 7.50075 7.50075 0 0 0 306.77643 271.43328 C 308.8682 269.51178 311.59944 266.42985 314.63748 262.83849 C 317.67553 259.24713 320.33403 256.39489 322.25058 252.44063 A 7.50075 7.50075 0 0 0 322.27975 252.36937 C 324.12892 248.44977 325.22975 244.81746 325.33521 240.30387 C 325.40231 237.37092 325.06914 232.15137 324.51847 225.03848 C 323.9678 217.92558 323.1918 209.87205 322.1412 203.83656 A 7.50075 7.50075 0 0 0 322.12662 203.77954 C 321.5507 200.60891 320.24958 195.32808 318.91803 189.94662 C 317.9165 185.89897 316.90489 181.84626 316.28552 179.30646 C 316.37491 179.21898 316.46153 179.13399 316.54804 179.0499 A 7.50075 7.50075 0 0 0 316.7741 178.82185 C 319.97769 175.42863 321.78861 171.55517 324.0226 167.03429 C 326.25659 162.5134 328.2605 157.89476 329.44803 154.49843 A 7.50075 7.50075 0 0 0 329.46262 154.46992 C 331.47489 148.64871 334.85516 135.58908 336.49964 129.21291 A 7.50075 7.50075 0 0 0 336.51422 129.17015 C 339.25123 118.27338 340.19349 111.57929 340.69268 98.967202 A 7.50075 7.50075 0 0 0 340.69998 98.888809 C 341.04398 86.959842 341.04437 76.862925 340.2114 69.512562 A 7.50075 7.50075 0 0 0 340.2041 69.462675 C 339.87481 66.728146 339.17647 64.357662 338.59252 62.535525 C 338.33576 61.734321 338.12059 61.112446 337.94351 60.611316 C 337.99251 60.918636 338.04697 61.183991 337.98726 62.378737 A 7.50075 7.50075 0 0 0 337.72474 59.97704 C 337.72341 59.973267 337.71922 59.967851 337.71745 59.962787 A 7.50075 7.50075 0 0 0 337.67369 59.834506 A 7.50075 7.50075 0 0 0 334.07132 55.415954 A 7.50075 7.50075 0 0 0 327.39891 51.503397 C 322.9533 51.563207 319.67572 52.980402 318.80135 53.249438 A 7.50075 7.50075 0 0 0 318.42945 53.377718 C 311.3126 55.986592 298.70056 60.06978 292.33048 62.300344 A 7.50075 7.50075 0 0 0 292.23568 62.335977 C 288.21371 63.805761 283.73742 65.845289 280.68476 67.538466 A 7.50075 7.50075 0 0 0 280.63372 67.566973 C 278.8279 68.585641 277.72711 69.513623 275.86458 70.966408 C 274.00206 72.419193 271.80947 74.202819 269.56408 76.083377 C 265.07331 79.844494 260.60804 83.714739 257.86002 86.687903 A 7.50075 7.50075 0 0 0 257.84543 86.709283 C 256.08161 88.631753 253.53758 91.926858 250.6334 95.574894 C 249.38007 97.149248 248.14859 98.693797 247.13312 99.957813 C 247.10342 99.955552 247.07675 99.953054 247.04561 99.950687 C 246.45642 99.905887 245.59994 99.841459 244.58083 99.758266 C 242.54262 99.591882 239.83146 99.363528 237.06252 99.131117 C 231.52464 98.666295 226.22011 98.207829 224.54902 98.104872 A 7.50075 7.50075 0 0 0 224.44693 98.097745 C 220.86401 97.92808 215.10367 97.653502 210.16871 97.420709 C 207.70124 97.304312 205.44426 97.196676 203.75153 97.121388 C 202.90517 97.083748 202.20064 97.056617 201.67324 97.035867 C 201.1799 97.016458 201.62358 96.959349 200.49189 96.993107 C 199.37493 96.960047 199.81676 97.016478 199.32513 97.035867 C 198.79773 97.056617 198.0932 97.083748 197.24684 97.121388 C 195.55411 97.196678 193.29714 97.304312 190.82966 97.420709 C 185.89471 97.653502 180.13436 97.92808 176.55144 98.097745 A 7.50075 7.50075 0 0 0 176.44934 98.104872 C 174.77825 98.207829 169.47372 98.666295 163.93584 99.131117 C 161.1669 99.363528 158.45574 99.591882 156.41753 99.758266 C 155.39842 99.841456 154.54194 99.905887 153.95275 99.950687 C 153.92169 99.953049 153.89488 99.955556 153.86525 99.957813 C 152.84973 98.693735 151.61841 97.149386 150.36497 95.574894 C 147.46079 91.926858 144.91675 88.631753 143.15293 86.709283 A 7.50075 7.50075 0 0 0 143.13835 86.687903 C 140.39033 83.714739 135.92506 79.844494 131.43429 76.083377 C 129.1889 74.202819 126.9963 72.419193 125.13378 70.966408 C 123.27125 69.513623 122.17047 68.585641 120.36465 67.566973 A 7.50075 7.50075 0 0 0 120.3209 67.538466 C 117.26824 65.845289 112.78465 63.805761 108.76268 62.335977 A 7.50075 7.50075 0 0 0 108.66788 62.300344 C 102.29785 60.06978 89.685775 55.986592 82.568922 53.377718 A 7.50075 7.50075 0 0 0 82.197017 53.249438 C 81.322649 52.980402 78.045066 51.563203 73.599455 51.503397 z M 75.743376 70.852381 A 7.5 7.5 0 0 0 75.874637 70.973535 C 76.420077 71.484885 76.629847 71.656964 77.551854 72.470141 C 78.473861 73.283318 79.755776 74.405081 81.321947 75.748422 C 84.454288 78.435105 88.706249 82.002707 93.383328 85.697292 C 97.896558 89.264877 105.05224 95.911029 112.90468 103.76347 C 117.65051 108.5093 123.80681 117.77499 126.78912 121.65861 A 7.50075 7.50075 0 0 0 126.84746 121.72987 C 127.81164 122.95477 129.32579 124.89318 130.68319 126.68293 C 131.7632 128.10694 132.86336 129.69654 133.19172 130.15363 C 133.29951 130.38413 133.52189 130.84179 133.70218 131.2654 C 134.0586 132.10287 134.51467 133.19656 134.95644 134.27999 C 135.39822 135.36341 135.83039 136.44836 136.15237 137.2732 C 136.30319 137.65956 136.41907 137.96834 136.5024 138.19255 C 136.5281 138.3252 136.53322 138.32718 136.57532 138.55601 A 7.5 7.5 0 0 0 145.30415 144.57807 A 7.5 7.5 0 0 0 151.32754 135.84786 C 151.23204 135.32814 151.17747 135.04085 151.10148 134.68621 A 7.50075 7.50075 0 0 0 151.05044 134.4439 C 150.78829 133.39527 150.73393 133.42851 150.59832 133.06132 C 150.4627 132.69413 150.30599 132.28667 150.12432 131.82128 C 149.76099 130.8905 149.30536 129.75334 148.84089 128.61426 C 148.37642 127.47519 147.9078 126.33615 147.50641 125.393 C 147.10502 124.44985 147.14035 124.30117 146.36152 122.90578 A 7.50075 7.50075 0 0 0 146.30318 122.81313 C 145.20948 120.9166 144.08778 119.53303 142.63518 117.61777 C 141.20239 115.72864 139.68714 113.78921 138.69008 112.52218 C 137.17238 110.5458 130.34908 99.993117 123.5149 93.158944 C 117.66683 87.310874 112.24233 82.120343 107.60321 78.050345 C 109.73686 78.986185 111.82557 79.991315 112.9849 80.63021 C 112.65856 80.453896 114.27858 81.524915 115.90909 82.796726 C 117.58219 84.101753 119.67641 85.800176 121.80852 87.585867 C 126.06936 91.154412 130.70646 95.344939 132.11247 96.864827 C 132.2501 97.016467 135.73345 101.28447 138.63174 104.92512 C 140.0834 106.7486 141.51044 108.53557 142.65706 109.95657 C 143.23037 110.66708 143.73039 111.28269 144.15197 111.78813 C 144.57356 112.29357 144.51837 112.36494 145.5375 113.32037 A 7.50075 7.50075 0 0 0 145.75627 113.51992 C 146.10459 113.82179 146.39297 114.18326 147.73246 114.7956 C 148.35428 115.07986 149.2539 115.58568 151.13795 115.49401 A 7.5 7.5 0 0 0 151.50256 115.50114 C 151.75256 115.50114 152.15537 115.50359 152.64744 115.48689 C 152.89348 115.47889 153.14402 115.46705 153.56626 115.42275 C 153.77738 115.40055 154.02672 115.37881 154.46321 115.28734 C 154.74499 115.22824 155.19149 115.13458 155.84874 114.85261 C 156.39095 114.81001 156.90932 114.76936 157.63534 114.71008 C 159.70088 114.54147 162.41905 114.30838 165.19011 114.0758 C 170.72156 113.61151 176.88612 113.1069 177.34629 113.07806 C 177.34717 113.078 177.36737 113.07806 177.36817 113.07806 C 180.9701 112.90742 186.65086 112.63152 191.53701 112.40103 C 193.99828 112.28493 196.25202 112.18292 197.91773 112.10883 C 198.75058 112.07183 199.43651 112.04211 199.9158 112.02331 C 199.98963 112.0204 200.08337 112.01691 200.17832 112.01619 C 199.98857 112.02492 200.72499 112.00958 201.08256 112.02331 C 201.56185 112.04221 202.24779 112.07183 203.08064 112.10883 C 204.74635 112.18293 207.00009 112.28493 209.46136 112.40103 C 214.35561 112.63191 220.05117 112.90748 223.65208 113.07806 C 224.11225 113.10686 230.27681 113.61151 235.80826 114.0758 C 238.57932 114.30838 241.29749 114.54147 243.36303 114.71008 C 244.08905 114.76938 244.60742 114.81003 245.14963 114.85261 C 245.80688 115.13458 246.26067 115.22827 246.54245 115.28734 C 246.97894 115.37884 247.22098 115.40059 247.4321 115.42275 C 247.85434 115.46705 248.11218 115.47869 248.35822 115.48689 C 248.85029 115.50339 249.2531 115.50114 249.5031 115.50114 A 7.5 7.5 0 0 0 249.86771 115.49401 C 251.75209 115.58579 252.64403 115.07988 253.2659 114.7956 C 254.60539 114.18326 254.89378 113.82179 255.2421 113.51992 A 7.50075 7.50075 0 0 0 255.46087 113.32037 C 256.48 112.36494 256.42481 112.29357 256.8464 111.78813 C 257.26798 111.28269 257.768 110.66708 258.34131 109.95657 C 259.48793 108.53557 260.91497 106.7486 262.36663 104.92512 C 265.26492 101.28447 268.74827 97.016467 268.8859 96.864827 C 270.29191 95.344939 274.92901 91.154412 279.18985 87.585867 C 281.32196 85.800176 283.41618 84.101753 285.08928 82.796726 C 286.71979 81.524915 288.3471 80.453896 288.02076 80.63021 C 289.18014 79.991284 291.2614 78.986224 293.39515 78.050345 C 288.75598 82.120374 283.33163 87.310776 277.48346 93.158944 C 270.64928 99.993117 263.83328 110.5458 262.31558 112.52218 C 261.31852 113.78921 259.80327 115.72864 258.37048 117.61777 C 256.91788 119.53303 255.78888 120.9166 254.69518 122.81313 A 7.50075 7.50075 0 0 0 254.64414 122.90578 C 253.86532 124.30117 253.89335 124.44985 253.49196 125.393 C 253.09057 126.33615 252.62195 127.47519 252.15748 128.61426 C 251.69301 129.75334 251.23737 130.8905 250.87404 131.82128 C 250.69237 132.28667 250.53567 132.69413 250.40005 133.06132 C 250.26444 133.42851 250.21738 133.39527 249.95522 134.4439 A 7.50075 7.50075 0 0 0 249.89688 134.68621 C 249.82088 135.04085 249.76628 135.32814 249.67082 135.84786 A 7.5 7.5 0 0 0 255.69422 144.57807 A 7.5 7.5 0 0 0 264.42304 138.55601 C 264.46504 138.32718 264.47027 138.3252 264.49597 138.19255 C 264.57927 137.96834 264.69517 137.65956 264.84599 137.2732 C 265.16797 136.44836 265.60745 135.36341 266.04922 134.27999 C 266.491 133.19656 266.93978 132.10287 267.29619 131.2654 C 267.47647 130.84181 267.69885 130.38414 267.80665 130.15363 C 268.13498 129.69658 269.23514 128.10697 270.31518 126.68293 C 271.67258 124.89318 273.18673 122.95477 274.15091 121.72987 A 7.50075 7.50075 0 0 0 274.20924 121.65861 C 277.19155 117.77499 283.34786 108.5093 288.09369 103.76347 C 295.94613 95.911029 303.1091 89.264877 307.62233 85.697292 L 307.62233 85.690165 C 312.29844 81.996276 316.54463 78.434633 319.67642 75.748422 C 321.24259 74.405081 322.5318 73.283318 323.45381 72.470141 C 324.37582 71.656964 324.58558 71.484885 325.13102 70.973535 A 7.5 7.5 0 0 0 325.25499 70.852381 C 325.27711 70.988591 325.2984 71.115034 325.31333 71.237222 C 325.95651 76.939418 326.03301 86.785786 325.69982 98.38994 C 325.21942 110.51275 324.57043 115.15086 321.97348 125.49277 C 320.35533 131.76555 316.63369 145.66037 315.28649 149.55963 L 315.27919 149.56676 L 315.27919 149.57388 C 314.46354 151.90218 312.55963 156.37734 310.57569 160.39221 C 308.59051 164.40958 305.88764 168.48907 305.87219 168.50952 C 305.3537 169.01506 304.78188 169.57747 304.20227 170.18429 C 303.54768 170.86961 303.16245 170.85215 301.93438 173.0706 A 7.5 7.5 0 0 0 301.09577 177.88112 A 7.5 7.5 0 0 0 301.18327 180.66054 C 301.73711 183.10433 303.04425 188.21707 304.3627 193.54561 C 305.67814 198.86198 307.00205 204.46896 307.35981 206.43067 C 308.22792 211.42627 309.03092 219.33219 309.56207 226.19301 C 310.09391 233.06261 310.34524 239.83475 310.34234 239.96179 C 310.34634 239.73687 309.22796 244.82602 308.73075 245.92683 C 308.85413 245.64309 305.94726 249.89226 303.18864 253.1533 C 300.41731 256.42937 297.16246 259.88848 296.65479 260.3584 C 293.34853 263.34488 283.53652 269.45879 274.02694 274.67593 C 268.04256 277.89454 257.51498 282.29438 250.5386 285.00252 C 244.66609 287.18814 235.28023 289.57275 227.50968 291.28826 C 223.61877 292.14726 220.10238 292.858 217.55576 293.34075 C 217.14384 293.41884 216.76211 293.48853 216.40358 293.55455 A 7.5 7.5 0 0 0 215.49934 293.49754 L 215.13473 293.49754 L 215.00347 293.49754 C 213.55295 293.44007 212.18003 293.37857 210.69375 293.45478 C 209.11438 293.53576 207.40913 293.76878 205.34124 294.31711 C 206.4629 294.02193 205.6687 294.2446 205.08601 294.2886 C 204.50331 294.3326 203.69922 294.3726 202.91292 294.40263 C 202.19584 294.42999 201.4838 294.45156 200.92943 294.45964 C 200.9668 294.45541 201.0043 294.44317 201.02423 294.43826 C 201.01531 294.43556 200.9666 294.43793 200.79087 294.45964 C 200.78595 294.4597 200.78119 294.45959 200.77629 294.45964 C 200.67523 294.4607 200.57804 294.45913 200.49189 294.45964 C 200.41276 294.45914 200.32063 294.46059 200.22937 294.45964 C 200.22513 294.45959 200.21905 294.4597 200.21479 294.45964 C 200.03661 294.43758 199.98252 294.43548 199.97414 294.43826 C 199.99457 294.44323 200.03135 294.45542 200.06894 294.45964 C 199.51521 294.45122 198.80055 294.42991 198.08545 294.40263 C 197.29915 294.37263 196.49506 294.33263 195.91236 294.2886 C 195.32967 294.2446 194.53547 294.02193 195.65713 294.31711 C 193.59261 293.7702 191.88207 293.53568 190.30462 293.45478 C 188.77181 293.37618 187.35749 293.43821 185.85635 293.49754 L 185.49903 293.49754 A 7.5 7.5 0 0 0 184.60208 293.55455 C 184.24351 293.48853 183.85458 293.41885 183.44261 293.34075 C 180.89599 292.858 177.3796 292.14726 173.48869 291.28826 C 165.71814 289.57275 156.33228 287.18814 150.45977 285.00252 C 143.48339 282.29438 132.9631 277.89454 126.97872 274.67593 C 117.46914 269.45879 107.65713 263.34488 104.35087 260.3584 C 103.8432 259.88848 100.58106 256.42937 97.809724 253.1533 C 95.052422 249.89381 92.154463 245.64754 92.274906 245.92683 L 92.267614 245.91971 C 91.772861 244.82432 90.663005 239.78998 90.656027 239.96179 L 90.656027 239.95466 C 90.653227 239.82389 90.904615 233.06067 91.436297 226.19301 C 91.967449 219.33219 92.770444 211.42627 93.638557 206.43067 C 93.996317 204.46896 95.327524 198.86198 96.642964 193.54561 C 97.961417 188.21707 99.261244 183.10433 99.815092 180.66054 A 7.5 7.5 0 0 0 99.909892 177.85262 A 7.5 7.5 0 0 0 99.063991 173.0706 C 97.835919 170.85215 97.450694 170.86961 96.796101 170.18429 C 96.216493 169.57747 95.644662 169.01506 95.126176 168.50952 C 95.110736 168.48902 92.407853 164.40958 90.422675 160.39221 C 88.438733 156.37734 86.534829 151.89506 85.719174 149.56676 L 85.719174 149.55963 C 84.371979 145.66037 80.650335 131.76555 79.032181 125.49277 C 76.435233 115.15086 75.778955 110.51275 75.298549 98.38994 C 74.965361 86.785786 75.049149 76.939418 75.69233 71.237222 C 75.707262 71.115045 75.721261 70.988578 75.743376 70.852381 z M 153.90171 100.0077 C 153.9328 100.0098 153.97015 100.01248 154.0038 100.01483 A 7.50075 7.50075 0 0 0 153.909 100.01483 L 153.90171 100.0077 z M 150.83167 100.48519 A 7.50075 7.50075 0 0 0 150.56915 100.60634 A 7.5 7.5 0 0 0 148.38877 101.06958 C 149.02936 100.77377 149.65336 100.57218 150.21183 100.52082 C 150.43063 100.5007 150.63868 100.4913 150.83167 100.48519 z M 250.1667 100.48519 C 250.35939 100.49131 250.56812 100.50074 250.78654 100.52082 C 251.34501 100.57222 251.9763 100.77377 252.61689 101.06958 A 7.5 7.5 0 0 0 250.41463 100.59922 A 7.50075 7.50075 0 0 0 250.1667 100.48519 z M 144.48741 104.24809 A 7.5 7.5 0 0 0 143.96966 105.18168 C 144.0948 104.86883 144.26728 104.55871 144.48741 104.24809 z M 256.51095 104.24809 C 256.73109 104.55872 256.91085 104.86882 257.036 105.18168 A 7.5 7.5 0 0 0 256.51095 104.24809 z M 157.10301 114.18983 L 156.85507 114.34662 C 156.90815 114.30913 156.91585 114.29629 157.02279 114.23259 C 157.06089 114.20794 157.07936 114.20012 157.10301 114.18983 z M 243.89536 114.18983 C 243.9191 114.20017 243.9374 114.20788 243.97558 114.23259 C 244.08244 114.29626 244.09032 114.30919 244.1433 114.34662 L 243.89536 114.18983 z M 112.99948 162.00284 A 7.5 7.5 0 0 0 105.50305 169.50013 L 105.50305 169.999 A 7.50075 7.50075 0 0 0 105.7364 171.86619 C 106.67758 175.53682 107.68939 175.51821 108.42724 176.2206 C 108.59102 176.37651 108.75326 176.52052 108.91582 176.66246 C 108.84884 177.15295 108.79387 177.59014 108.7481 178.05929 A 7.50075 7.50075 0 0 0 108.74081 178.08067 C 108.20841 183.69841 109.17538 189.63117 109.99507 193.5171 A 7.50075 7.50075 0 0 0 109.99507 193.53135 C 110.9148 197.84702 112.83421 204.67473 114.8663 209.11744 A 7.50075 7.50075 0 0 0 114.88817 209.15307 C 116.69852 213.05426 118.76443 215.973 121.89602 219.19459 A 7.50075 7.50075 0 0 0 121.95436 219.25873 C 124.54254 221.86025 127.91179 224.63428 132.0833 226.58498 A 7.50075 7.50075 0 0 0 132.14893 226.61348 C 136.75432 228.71214 141.04406 229.08831 145.31144 229.00093 A 7.50075 7.50075 0 0 0 145.66876 228.97955 C 147.19328 228.87654 150.66332 228.75872 153.70482 228.6731 C 155.22557 228.6303 156.66859 228.59657 157.78848 228.5662 C 158.90836 228.5358 159.22138 228.55308 160.22409 228.48068 A 7.50075 7.50075 0 0 0 160.23138 228.48068 C 162.46483 228.31592 164.23733 227.85228 165.78808 227.46869 C 166.53251 227.28454 167.17435 227.11395 167.62572 226.99832 L 168.50079 226.99832 A 7.5 7.5 0 0 0 168.59559 226.99832 C 168.86265 227.5244 169.12792 228.0379 169.38315 228.53056 A 7.5 7.5 0 0 0 179.49021 231.73758 A 7.5 7.5 0 0 0 182.6988 221.63192 C 181.98931 220.26243 180.84234 217.75563 180.65697 217.34165 C 180.7077 217.39732 180.38042 215.94123 180.24861 214.24154 C 180.10316 212.3659 180.0246 210.00445 180.00067 207.63509 A 7.50075 7.50075 0 0 0 180.00067 207.53531 C 179.8306 200.14508 177.0254 191.61536 173.7658 185.02208 A 7.50075 7.50075 0 0 0 173.72933 184.96506 C 171.55726 180.67203 168.6682 176.58549 164.97134 173.43407 A 7.50075 7.50075 0 0 0 164.89842 173.36992 C 163.61993 172.30877 161.98728 171.08765 160.34076 169.92773 C 158.69424 168.76781 157.591 167.8886 155.49871 166.91314 A 7.50075 7.50075 0 0 0 155.4185 166.8775 C 153.29269 165.91615 151.8601 165.67069 150.0514 165.26687 C 148.2427 164.86306 146.49181 164.53518 144.99058 164.34753 A 7.50075 7.50075 0 0 0 144.96141 164.3404 C 143.70655 164.18871 143.94985 164.27686 143.6561 164.27626 C 143.36235 164.27564 143.03103 164.28451 142.64247 164.29051 C 141.86535 164.30181 140.85769 164.32415 139.66724 164.35465 C 137.28632 164.41565 134.19741 164.50952 131.06238 164.61834 C 127.92735 164.72716 124.75451 164.84902 122.18042 164.96755 C 120.62894 165.03895 119.74046 165.12799 118.7166 165.1956 A 7.5 7.5 0 0 0 112.99948 162.00284 z M 287.99889 162.00284 A 7.5 7.5 0 0 0 282.28176 165.1956 C 281.2579 165.128 280.37672 165.03898 278.82524 164.96755 C 276.25115 164.84902 273.07101 164.72716 269.93598 164.61834 C 266.80095 164.50952 263.71205 164.41565 261.33113 164.35465 C 260.14068 164.32415 259.13301 164.30181 258.35589 164.29051 C 257.96733 164.28451 257.63602 164.27626 257.34227 164.27626 C 257.04852 164.27688 257.2918 164.1888 256.03696 164.3404 A 7.50075 7.50075 0 0 0 256.00779 164.34753 C 254.50656 164.53518 252.75567 164.86306 250.94697 165.26687 C 249.13827 165.67069 247.70568 165.91615 245.57987 166.8775 A 7.50075 7.50075 0 0 0 245.49966 166.91314 C 243.40737 167.8886 242.30412 168.76781 240.6576 169.92773 C 239.01108 171.08765 237.37844 172.30877 236.09995 173.36992 A 7.50075 7.50075 0 0 0 236.02702 173.43407 C 232.33016 176.58549 229.4411 180.67203 227.26903 184.96506 A 7.50075 7.50075 0 0 0 227.23986 185.02208 C 223.98026 191.61536 221.17506 200.14508 221.00499 207.53531 A 7.50075 7.50075 0 0 0 220.9977 207.63509 C 220.9738 210.00445 220.9025 212.3659 220.75705 214.24154 C 220.62523 215.94134 220.29061 217.39752 220.34139 217.34165 C 220.15606 217.7556 219.00907 220.26242 218.29956 221.63192 A 7.5 7.5 0 0 0 221.50815 231.73758 A 7.5 7.5 0 0 0 231.62251 228.53056 C 231.87772 228.03793 232.14303 227.52436 232.41007 226.99832 A 7.5 7.5 0 0 0 232.49758 226.99832 L 233.37265 226.99832 C 233.82402 227.11395 234.46586 227.28454 235.21029 227.46869 C 236.76104 227.85228 238.53354 228.31592 240.76699 228.48068 A 7.50075 7.50075 0 0 0 240.78157 228.48068 C 241.78428 228.55318 242.0973 228.5358 243.21718 228.5662 C 244.33707 228.5966 245.7728 228.63033 247.29355 228.6731 C 250.33505 228.7587 253.81238 228.87654 255.3369 228.97955 A 7.50075 7.50075 0 0 0 255.68693 229.00093 C 259.95431 229.08833 264.24405 228.71214 268.84944 226.61348 A 7.50075 7.50075 0 0 0 268.91507 226.58498 C 273.08658 224.63428 276.45582 221.86025 279.044 219.25873 A 7.50075 7.50075 0 0 0 279.10964 219.19459 C 282.24123 215.973 284.29984 213.05426 286.11019 209.15307 A 7.50075 7.50075 0 0 0 286.13207 209.11744 C 288.16416 204.67473 290.08356 197.84702 291.00329 193.53135 A 7.50075 7.50075 0 0 0 291.01059 193.5171 C 291.83028 189.63117 292.78996 183.69841 292.25756 178.08067 A 7.50075 7.50075 0 0 0 292.25027 178.05929 C 292.20451 177.59013 292.14953 177.15297 292.08255 176.66246 C 292.24511 176.52052 292.40735 176.37651 292.57113 176.2206 C 293.30898 175.51821 294.32079 175.53682 295.26197 171.86619 A 7.50075 7.50075 0 0 0 295.50261 169.999 L 295.50261 169.50013 A 7.5 7.5 0 0 0 287.99889 162.00284 z M 119.21248 165.28825 C 119.24711 165.28757 119.28551 165.28537 119.29998 165.28825 L 119.29998 165.29538 C 119.30384 165.29853 119.31873 165.30653 119.32186 165.30963 C 119.32429 165.31267 119.32739 165.32091 119.32915 165.32388 L 119.32915 165.33101 L 119.32915 165.33814 L 119.33644 165.34526 L 119.33644 165.35239 L 119.32915 165.35239 L 119.32915 165.35952 L 119.32915 165.36664 L 119.32186 165.36664 C 119.32022 165.36916 119.31667 165.38559 119.31457 165.38802 L 119.30728 165.39515 C 119.2485 165.44008 119.10562 165.45936 119.00829 165.45216 C 119.24828 165.48596 119.64148 165.71674 120.26256 168.13893 L 120.37194 169.00126 A 7.5 7.5 0 0 0 118.78953 165.36664 L 118.78223 165.35952 L 118.77494 165.35239 A 7.5 7.5 0 0 0 118.76036 165.3025 C 118.81713 165.3166 119.07393 165.29098 119.21248 165.28825 z M 281.70568 165.28825 C 281.77806 165.27376 282.167 165.32003 282.23801 165.3025 A 7.5 7.5 0 0 0 282.21613 165.35952 C 282.21744 165.35886 282.22597 165.36164 282.23072 165.35952 C 282.22465 165.36418 282.21671 165.36646 282.21613 165.36664 A 7.5 7.5 0 0 0 280.62642 169.00126 L 280.73581 168.13893 C 281.35689 165.71674 281.75008 165.48598 281.99007 165.45216 C 281.88788 165.45971 281.73701 165.43005 281.6838 165.3809 C 281.6817 165.37847 281.67085 165.36916 281.66921 165.36664 L 281.66921 165.35952 L 281.66921 165.35239 L 281.66921 165.34526 L 281.66921 165.33814 L 281.66921 165.33101 L 281.66921 165.32388 L 281.67651 165.32388 C 281.67827 165.32091 281.68866 165.30554 281.69109 165.3025 L 281.69838 165.29538 L 281.70568 165.28825 z M 116.66019 165.31676 C 116.69063 165.31694 116.70202 165.32925 116.72582 165.33101 C 116.63027 165.33706 116.53216 165.33135 116.43413 165.34526 L 116.58727 165.32388 C 116.62469 165.31923 116.64374 165.31666 116.66019 165.31676 z M 284.33818 165.31676 C 284.35463 165.31666 284.37368 165.31923 284.4111 165.32388 L 284.56424 165.34526 C 284.4668 165.33147 284.36751 165.33696 284.27255 165.33101 C 284.3017 165.32987 284.30527 165.31695 284.33818 165.31676 z M 132.11976 179.59153 C 129.8584 182.8708 128.41624 186.57308 127.91942 191.02988 A 7.50075 7.50075 0 0 0 127.90484 191.10828 C 127.46251 195.47796 127.34423 199.86596 130.03417 204.73452 A 7.50075 7.50075 0 0 0 130.11439 204.87705 C 132.05157 208.20965 133.97797 209.30331 136.15966 210.74945 C 137.89511 211.8998 139.46641 212.93818 141.76011 213.62151 C 140.10625 213.3435 138.50848 213.0129 138.40568 212.97298 C 137.01289 212.31128 133.92133 209.99958 132.62292 208.70409 C 132.25022 208.29662 128.54381 202.67493 128.48093 202.78893 L 128.48093 202.78181 C 128.17909 201.85497 125.03027 192.11256 124.66708 190.40986 L 124.66708 190.40273 C 124.4326 189.27705 123.77957 181.80355 123.68263 179.91223 C 126.01796 179.80926 128.82369 179.70172 131.58742 179.60579 C 131.76587 179.59959 131.94172 179.59764 132.11976 179.59153 z M 268.87861 179.59153 C 269.05661 179.59764 269.23254 179.59959 269.41094 179.60579 C 272.17472 179.70172 274.98039 179.80926 277.31574 179.91223 C 277.21879 181.80408 276.56565 189.28647 276.33129 190.40986 C 275.9681 192.11256 272.82654 201.85494 272.52473 202.78181 L 272.52473 202.78893 C 272.46174 202.67511 268.74814 208.29662 268.37544 208.70409 C 267.07703 209.99958 263.99277 212.31128 262.59998 212.97298 C 262.49714 213.01289 260.89273 213.35057 259.23825 213.62864 C 261.53281 212.94531 263.10286 211.90006 264.8387 210.74945 C 267.02039 209.30331 268.9468 208.20965 270.88398 204.87705 A 7.50075 7.50075 0 0 0 270.96419 204.73452 C 273.65413 199.86596 273.53586 195.47796 273.09353 191.10828 A 7.50075 7.50075 0 0 0 273.08624 191.02988 C 272.58943 186.5732 271.13986 182.87074 268.87861 179.59153 z M 163.74625 201.78407 C 164.47566 204.53838 164.97885 206.94323 165.00051 207.88452 C 165.01557 209.30071 165.04647 210.73323 165.1026 212.13203 C 164.95481 212.17576 164.93472 212.21616 164.80362 212.24606 C 164.51215 212.31256 164.25841 212.37628 163.98689 212.44561 C 163.44386 212.58426 162.83763 212.74938 162.193 212.90884 C 161.0404 213.19395 159.6653 213.4461 159.23963 213.50749 C 159.06072 213.51031 158.18777 213.54967 157.38011 213.57163 C 156.29757 213.60099 154.88124 213.63607 153.36937 213.67853 C 154.22861 213.43712 155.1922 213.04424 156.36649 212.37434 A 7.50075 7.50075 0 0 0 156.51233 212.28882 C 159.23505 210.6511 159.37356 209.72252 160.07095 208.70409 C 160.76834 207.68567 161.36683 206.65171 161.93048 205.59685 C 162.49413 204.54199 163.00281 203.48779 163.43997 202.46823 C 163.54427 202.22498 163.64853 202.00448 163.74625 201.78407 z M 237.25212 201.78407 C 237.34982 202.00443 237.45412 202.22503 237.5584 202.46823 C 237.99556 203.48779 238.50424 204.54199 239.06789 205.59685 C 239.63154 206.65171 240.23003 207.68567 240.92742 208.70409 C 241.62481 209.72252 241.76332 210.6511 244.48603 212.28882 A 7.50075 7.50075 0 0 0 244.63188 212.37434 C 245.80654 213.04445 246.76956 213.43714 247.62899 213.67853 C 246.11689 213.63609 244.70824 213.60102 243.62555 213.57163 C 242.81777 213.54967 241.93747 213.5103 241.75873 213.50749 C 241.33297 213.4461 239.96518 213.19393 238.81266 212.90884 C 238.16803 212.74938 237.55451 212.58426 237.01148 212.44561 C 236.73996 212.37631 236.49351 212.31253 236.20204 212.24606 C 236.07092 212.21615 236.04361 212.17576 235.89576 212.13203 C 235.95193 210.73266 235.98282 209.30128 235.99785 207.88452 L 235.99785 207.83463 C 236.03502 206.86112 236.53494 204.49215 237.25212 201.78407 z M 199.30325 240.26823 C 198.59561 240.27223 197.92755 240.28788 197.16663 240.36088 C 196.71705 240.40407 196.35448 240.30676 195.63525 240.48916 C 193.00073 240.65062 190.51166 240.85422 189.44413 240.93102 A 7.50075 7.50075 0 0 0 189.34933 240.93814 C 187.28802 241.11283 185.3877 241.35344 183.39886 241.92876 C 182.40444 242.21642 181.37981 242.5449 180.07359 243.37547 C 178.76737 244.20605 176.68306 245.91435 176.1139 249.11959 A 7.50075 7.50075 0 0 0 176.06285 249.46167 C 175.66272 252.5293 176.14999 254.11947 177.47755 256.46009 A 7.50075 7.50075 0 0 0 177.51401 256.52423 C 178.4903 258.20562 180.70127 261.7915 183.19468 265.61077 C 185.68808 269.43005 187.99935 273.01612 190.53797 275.74494 A 7.50075 7.50075 0 0 0 190.54526 275.75919 C 192.05281 277.37442 194.9422 278.30812 197.17392 278.65975 A 7.50075 7.50075 0 0 0 197.99794 279.00184 L 198.50111 279.00184 L 198.50111 278.90919 C 198.60812 278.91019 198.80551 278.99278 198.90218 278.98758 A 7.50075 7.50075 0 0 0 200.49918 278.50297 A 7.50075 7.50075 0 0 0 202.09619 278.98758 C 202.19289 278.99258 202.39754 278.91039 202.50455 278.90919 L 202.49726 279.00184 L 203.00043 279.00184 A 7.50075 7.50075 0 0 0 203.82445 278.65975 C 206.05617 278.30812 208.94556 277.37442 210.4531 275.75919 A 7.50075 7.50075 0 0 0 210.4604 275.74494 C 212.99902 273.01612 215.31758 269.43005 217.81098 265.61077 C 220.30439 261.7915 222.50806 258.20562 223.48435 256.52423 A 7.50075 7.50075 0 0 0 223.52082 256.46009 C 224.84833 254.11947 225.33564 252.5293 224.93551 249.46167 A 7.50075 7.50075 0 0 0 224.88447 249.11959 C 224.31531 245.91435 222.23829 244.20605 220.93207 243.37547 C 219.62585 242.5449 218.59393 242.21642 217.59951 241.92876 C 215.61067 241.35344 213.71764 241.11283 211.65633 240.93814 A 7.50075 7.50075 0 0 0 211.56153 240.93102 C 210.4936 240.8542 207.99874 240.65065 205.36311 240.48916 C 204.64572 240.30771 204.28074 240.40399 203.83174 240.36088 C 203.07082 240.28778 202.41004 240.27263 201.7024 240.26823 C 201.31556 240.26577 200.91764 240.26836 200.51377 240.27536 C 200.10153 240.26804 199.69782 240.26576 199.30325 240.26823 z "
       inkscape:label="maskpath" />
    <path
       id="path23"
       style="baseline-shift:baseline;display:inline;overflow:visible;opacity:1;vector-effect:none;fill:#ffffff;stroke-linecap:butt;stroke-linejoin:round;enable-background:accumulate;stop-color:#000000;stop-opacity:1"
       d="m 259.41569,180.75358 a 5.0005,5.0005 0 0 0 -0.69987,0.28483 5.0005,5.0005 0 0 0 -2.40072,0.43945 5.0005,5.0005 0 0 0 -0.6429,0.79753 5.0005,5.0005 0 0 0 -0.95215,1.5625 5.0005,5.0005 0 0 0 -0.65918,0.97656 l -0.12207,0.83008 a 5,5 0 0 0 0.0814,0.30925 5,5 0 0 0 -0.0163,0.0488 5,5 0 0 0 0.0814,0.19532 5,5 0 0 0 0.0651,0.28483 l 0.0488,0.31738 a 5.0005,5.0005 0 0 0 -0.0977,0.53711 l 0.52897,1.53809 a 5.0005,5.0005 0 0 0 0.1709,0.15462 5,5 0 0 0 0.83822,0.77311 5.0005,5.0005 0 0 0 0.15462,0.13835 5.0005,5.0005 0 0 0 1.6683,1.53808 5.0005,5.0005 0 0 0 1.23697,0.46387 5.0005,5.0005 0 0 0 1.18816,-0.29297 5.0005,5.0005 0 0 0 0.0814,-0.0244 5.0005,5.0005 0 0 0 1.6927,-0.42318 5.0005,5.0005 0 0 0 1.23698,-0.72428 5.0005,5.0005 0 0 0 0.6836,-1.51368 5.0005,5.0005 0 0 0 0.54524,-0.63476 l 0.2767,-1.09863 a 5.0005,5.0005 0 0 0 -0.14649,-0.69987 5.0005,5.0005 0 0 0 0.0326,-0.0977 l -0.0814,-0.49642 a 5.0005,5.0005 0 0 0 0.0651,-0.30111 l -0.24414,-0.78938 -0.0407,-0.22787 a 5.0005,5.0005 0 0 0 -0.0488,-0.057 l -0.14648,-0.49641 a 5.0005,5.0005 0 0 0 -0.0651,-0.0651 5.0005,5.0005 0 0 0 -1.6276,-1.75781 5.0005,5.0005 0 0 0 -0.47201,-0.50456 5.0005,5.0005 0 0 0 -1.78222,-0.78125 5.0005,5.0005 0 0 0 -0.13021,0.008 5.0005,5.0005 0 0 0 -0.30111,-0.21159 z m -106.14421,2.97852 a 5.0005,5.0005 0 0 0 -3.47493,1.66829 5.0005,5.0005 0 0 0 -0.29297,0.0977 c -0.74177,0.98564 -1.07497,2.22245 -1.13118,3.44238 a 5.0005,5.0005 0 0 0 -0.0163,0.0326 v 0.0407 c -0.003,0.0939 0.0161,0.16692 0.0163,0.26042 l 0.0651,1.22884 a 5.0005,5.0005 0 0 0 0.16276,0.236 v 0.13021 a 5.0005,5.0005 0 0 0 0.29297,0.6429 c 0.0591,0.38551 0.10419,0.77392 0.27669,1.05795 0.33409,0.55007 0.73698,1.02113 1.18815,1.42415 a 5,5 0 0 0 0.34994,0.4069 5.0005,5.0005 0 0 0 0.60221,0.30925 c 0.0949,0.0598 0.19532,0.11483 0.29297,0.17089 a 5.0005,5.0005 0 0 0 0.0325,0.008 c 0.75149,0.42597 1.55418,0.77958 2.51465,0.89519 a 5.0005,5.0005 0 0 0 4.82585,-7.62533 5.0005,5.0005 0 0 0 -2.55534,-4.00391 5.0005,5.0005 0 0 0 -2.43327,-0.38248 5.0005,5.0005 0 0 0 -0.057,-0.0326 5.0005,5.0005 0 0 0 -0.65918,-0.008 z" />
  </g>
  <path
     style="display:none;fill:#d4ff2a;stroke-width:1.54112e-08;paint-order:stroke fill markers"
     d="m 339.08682,61.422358 c -13.21836,4.886778 -26.85781,8.794647 -39.61958,14.863495 -8.96614,5.804399 -17.07507,13.023932 -24.39543,20.861544 -5.49884,5.996423 -9.91062,13.110253 -15.78854,18.678703 -5.26774,0.65836 -10.65545,-0.83804 -15.97069,-0.97949 -24.31775,-2.42685 -48.83674,-3.10085 -73.18794,-0.73924 -8.36831,0.44462 -16.77182,2.09345 -25.13849,1.53808 -9.03876,-10.12761 -16.77179,-21.593524 -27.47107,-30.071056 -6.68686,-5.883525 -14.05286,-11.14964 -22.606124,-13.72706 -9.914003,-3.572497 -19.745625,-7.553182 -29.934659,-10.216921 -4.971263,-0.438969 -6.360675,5.277633 -6.414479,9.26723 -0.701275,15.419852 -0.902584,30.963457 0.835731,46.321187 2.265374,15.03352 6.381786,29.72839 10.820657,44.22111 3.593727,9.47707 7.62863,19.11368 14.442907,26.67786 2.234978,3.91033 -0.202411,8.67764 -0.69596,12.78025 -3.924165,15.54968 -7.095219,31.34607 -7.878528,47.42531 -0.44402,9.09609 -2.27851,19.57726 3.932499,27.20745 6.523446,8.68983 13.93477,16.94324 23.396446,22.3262 20.42903,12.75078 42.61951,22.96984 66.17705,27.79326 8.41952,2.04602 16.98728,3.37397 25.63715,3.63575 7.87679,0.90786 16.19773,-0.19208 24.20017,-0.75025 23.48711,-3.28415 46.3587,-10.82709 67.31128,-22.17367 12.25216,-6.75432 24.93217,-13.85012 33.53489,-25.4018 4.16724,-4.9543 8.76694,-10.3825 8.71341,-17.32537 0.36722,-12.75511 -1.12832,-25.51743 -2.88015,-38.12673 -1.86411,-11.58619 -5.65577,-22.81834 -7.16063,-34.44306 1.22542,-4.85716 5.80307,-7.87021 7.74558,-12.4287 8.68246,-14.65614 11.90327,-31.69033 16.05733,-48.06227 4.14647,-16.80095 3.97039,-34.309002 3.82259,-51.517291 -0.36715,-5.505973 -0.0367,-11.484505 -2.84242,-16.396319 -1.44945,-1.13583 -2.82933,-1.503012 -4.643,-1.238202 z"
     id="mask-area"
     inkscape:label="mask-area" />
</svg>
