<?xml version="1.0" encoding="UTF-8" standalone="no"?>
<svg
   width="96.00"
   height="96.00"
   viewBox="0.00 0.00 400.00 400.00"
   version="1.1"
   id="svg49"
   sodipodi:docname="線画猫_id2.svg"
   inkscape:version="1.4.3 (0d15f75, 2025-12-25)"
   xmlns:inkscape="http://www.inkscape.org/namespaces/inkscape"
   xmlns:sodipodi="http://sodipodi.sourceforge.net/DTD/sodipodi-0.dtd"
   xmlns="http://www.w3.org/2000/svg"
   xmlns:svg="http://www.w3.org/2000/svg">
  <defs
     id="defs49" />
  <sodipodi:namedview
     id="namedview49"
     pagecolor="#ffffff"
     bordercolor="#000000"
     borderopacity="0.25"
     inkscape:showpageshadow="2"
     inkscape:pageopacity="0.0"
     inkscape:pagecheckerboard="0"
     inkscape:deskcolor="#d1d1d1"
     inkscape:zoom="8.40625"
     inkscape:cx="48"
     inkscape:cy="48"
     inkscape:window-width="1904"
     inkscape:window-height="993"
     inkscape:window-x="3001"
     inkscape:window-y="76"
     inkscape:window-maximized="0"
     inkscape:current-layer="レイヤー_2" />
  <g
     stroke-linecap="round"
     id="レイヤー_2">
    <path
       id="mask-area"
       style="baseline-shift:baseline;display:inline;overflow:visible;vector-effect:none;fill:#2f2929;stroke-linecap:butt;stroke-linejoin:round;enable-background:accumulate;stop-color:#000000;stop-opacity:1;opacity:1"
       d="m 321.21484,175.69531 a 10,10 0 0 0 -6.48047,12.57031 c 3.21095,10.04525 5.81578,19.34146 6.77344,25.98633 1.00749,7.54763 2.9308,24.2205 2.93164,28.86133 0,0.001 0,0.005 0,0.006 -0.0349,3.41404 -0.11625,8.80978 -0.36133,13.97656 -0.24557,5.17737 -0.87194,10.53319 -1.1289,11.56641 -0.19728,0.69198 -4.12533,8.43482 -4.94531,9.47851 -0.2,0.24019 -3.7091,3.68918 -7.31836,6.68946 -3.62386,3.0124 -7.76421,6.16849 -10.29102,7.86133 -2.19448,1.4697 -19.11267,11.42321 -22.34766,12.74218 -0.001,4.4e-4 -0.007,0.003 -0.008,0.004 -10.24392,4.07111 -21.52577,7.91706 -28.00781,9.39258 -5.72686,1.29213 -16.72208,2.99363 -28.14648,4.26367 -3.55868,0.36243 -8.9827,0.46412 -12.96875,0.99219 a 10,10 0 0 0 -8.59961,11.22656 10,10 0 0 0 11.22656,8.60156 c 0.68554,-0.0908 7.56451,-0.43008 12.40625,-0.92578 a 10.001,10.001 0 0 0 0.084,-0.01 c 11.96585,-1.32841 23.13393,-2.99931 30.41992,-4.64454 a 10.001,10.001 0 0 0 0.0156,-0.004 c 8.70186,-1.98082 20.18127,-6.02023 31.03711,-10.33789 a 10.001,10.001 0 0 0 0.0742,-0.0293 c 8.61302,-3.50631 21.60052,-11.74448 25.94531,-14.6543 3.56319,-2.38716 7.89417,-5.73005 11.94531,-9.09765 4.05115,-3.3676 7.38086,-6.14024 10.11719,-9.52539 a 10.001,10.001 0 0 0 0.041,-0.0508 c 3.91196,-4.90653 6.93595,-10.36922 8.66406,-16.86329 a 10.001,10.001 0 0 0 0.0254,-0.0918 c 1.23555,-4.82613 1.4701,-9.98282 1.73828,-15.63672 0.26818,-5.6539 0.34735,-11.32169 0.38281,-14.82227 a 10.001,10.001 0 0 0 0,-0.10156 c 0,-8.67201 -2.08282,-23.85633 -3.11718,-31.59375 a 10.001,10.001 0 0 0 -0.0137,-0.0977 c -1.28446,-8.93392 -4.1973,-18.84633 -7.52343,-29.25195 a 10,10 0 0 0 -12.57032,-6.48047 z m -224.429684,0 a 10,10 0 0 0 -12.570312,6.48047 c -3.326135,10.40562 -6.238972,20.31803 -7.523438,29.25195 a 10.001,10.001 0 0 0 -0.01367,0.0977 c -1.03436,7.73742 -3.117187,22.92174 -3.117187,31.59375 a 10.001,10.001 0 0 0 0,0.10156 c 0.03546,3.50058 0.114633,9.16837 0.382812,14.82227 0.26818,5.6539 0.502726,10.81059 1.738282,15.63672 a 10.001,10.001 0 0 0 0.02539,0.0918 c 1.728113,6.49407 4.752103,11.95676 8.664063,16.86329 a 10.001,10.001 0 0 0 0.04102,0.0508 c 2.736328,3.38515 6.066041,6.15779 10.117188,9.52539 4.051146,3.3676 8.382126,6.71049 11.945316,9.09765 4.34479,2.90982 17.33229,11.14799 25.94531,14.6543 a 10.001,10.001 0 0 0 0.0742,0.0293 c 10.85584,4.31766 22.33525,8.35707 31.03711,10.33789 a 10.001,10.001 0 0 0 0.0156,0.004 c 7.286,1.64523 18.45408,3.31613 30.41993,4.64454 a 10.001,10.001 0 0 0 0.084,0.01 c 4.84174,0.4957 11.72071,0.83496 12.40625,0.92578 a 10,10 0 0 0 11.22656,-8.60156 10,10 0 0 0 -8.59961,-11.22656 c -3.98605,-0.52807 -9.41007,-0.62976 -12.96875,-0.99219 -11.4244,-1.27004 -22.41962,-2.97154 -28.14648,-4.26367 l -0.01,-0.002 c -0.001,-3.2e-4 -0.004,-0.002 -0.006,-0.002 -6.48394,-1.47751 -17.75454,-5.32005 -27.99218,-9.38867 l -0.008,-0.004 c -3.23498,-1.31897 -20.15317,-11.27248 -22.34765,-12.74218 -2.52681,-1.69284 -6.66716,-4.84893 -10.29102,-7.86133 -3.60926,-3.00028 -7.11836,-6.44927 -7.318359,-6.68946 -0.819984,-1.04369 -4.748031,-8.78653 -4.945313,-9.47851 -0.25696,-1.03322 -0.88333,-6.38904 -1.128906,-11.56641 -0.245074,-5.16678 -0.326384,-10.56252 -0.361328,-13.97656 v -0.006 c 8.39e-4,-4.64083 1.924151,-21.3137 2.93164,-28.86133 0.957667,-6.64487 3.562496,-15.94108 6.773446,-25.98633 A 10,10 0 0 0 96.784593,175.6954 Z M 358.44922,51.210937 a 10.001,10.001 0 0 0 -6.5625,2.455079 c 1.74873,-1.521257 1.16631,-0.804222 0.5039,-0.503907 -0.6624,0.300316 -1.79047,0.765154 -3.17578,1.302735 -2.77062,1.075162 -6.60921,2.46701 -10.87304,4.009765 -8.52767,3.085512 -18.72781,6.75835 -26.83399,10.373047 a 10.001,10.001 0 0 0 -0.0176,0.0078 c -7.48249,3.354223 -15.35397,8.744201 -23.72265,15.007812 a 10.001,10.001 0 0 0 -0.0566,0.04492 c -3.4456,2.617859 -8.8505,6.713201 -13.42188,10.185547 -2.00743,1.524816 -3.71907,2.828063 -5.17578,3.939453 -0.27959,-0.03713 -0.16319,-0.02015 -0.43945,-0.06055 -2.33459,-0.341349 -5.33157,-0.799819 -8.37305,-1.265625 -6.08295,-0.931612 -11.45425,-1.826877 -14.5918,-2.123047 a 10.001,10.001 0 0 0 -0.0449,-0.0039 c -4.12098,-0.370088 -9.46448,-0.151901 -15.43164,-0.0293 -2.98358,0.0613 -5.83698,0.133933 -7.97461,0.19336 -1.06881,0.02971 -1.95728,0.0566 -2.5957,0.07617 -0.6102,0.01871 -0.25602,-0.0085 -1.22461,0.04297 -1.49708,0.06346 -2.52197,0.187659 -4.32617,0.322266 -1.83679,0.137037 -3.95351,0.25937 -4.88867,0.265625 a 10.001,10.001 0 0 0 -0.18946,0.002 c -0.22798,0.0058 -0.41604,0.0047 -0.58593,0 a 10,10 0 0 0 -10.27344,9.718753 10,10 0 0 0 9.71875,10.27343 c 0.50075,0.0139 1.00341,0.0126 1.50586,0.002 2.04327,-0.0155 4.23098,-0.17137 6.20117,-0.31836 1.98322,-0.14797 4.2766,-0.30942 3.72461,-0.28711 a 10.001,10.001 0 0 0 0.13476,-0.006 c -1.06283,0.0575 0.19979,-0.006 0.81641,-0.0254 0.61662,-0.0189 1.48897,-0.045 2.53906,-0.0742 2.10019,-0.0584 4.91241,-0.12951 7.83008,-0.18945 5.82759,-0.11974 13.19426,-0.047 13.21289,-0.0469 0.27967,0.0278 7.3319,1.04507 13.41406,1.97656 3.04728,0.4667 6.06772,0.92838 8.50782,1.28516 2.44009,0.35677 3.25695,0.59926 5.71484,0.70898 a 10.001,10.001 0 0 0 7.83008,-3.24804 c -1.49275,1.63492 -0.94625,0.91239 -0.98242,0.9375 0.0705,-0.0557 0.2254,-0.17567 0.42773,-0.33203 0.40671,-0.31432 1.0173,-0.78232 1.76758,-1.35547 1.50057,-1.14631 3.5703,-2.71985 5.84961,-4.45118 4.53897,-3.44772 9.8992,-7.51318 13.36523,-10.146478 l 0.0254,-0.01758 c 7.83962,-5.865978 15.19637,-10.645911 19.88868,-12.75 0.001,-4.56e-4 0.003,-0.0015 0.004,-0.002 6.96318,-3.103814 16.95797,-6.74199 25.47656,-9.824219 4.26242,-1.542244 8.16125,-2.950084 11.30469,-4.169922 1.57172,-0.609919 2.94416,-1.166253 4.19727,-1.734375 1.21151,-0.549267 2.00952,-0.639318 4.19336,-2.498047 a 10,10 0 0 0 4.36914,-7.667969 10,10 0 0 0 -10,-10 z m -299.660158,0 a 10,10 0 0 0 -10,10 10,10 0 0 0 4.369141,7.667969 c 2.183834,1.858729 2.981843,1.94878 4.193359,2.498047 1.253104,0.568122 2.625546,1.124456 4.197266,1.734375 3.143441,1.219838 7.04227,2.627678 11.304688,4.169922 8.520004,3.08274 18.517146,6.722021 25.480468,9.826172 4.692306,2.104089 12.049056,6.884022 19.888676,12.75 0.009,0.0067 0.0165,0.01091 0.0254,0.01758 3.46603,2.633298 8.82626,6.698758 13.36523,10.146478 2.27931,1.73133 4.34904,3.30487 5.84961,4.45118 0.75028,0.57315 1.36087,1.04115 1.76758,1.35547 0.20233,0.15636 0.35722,0.27637 0.42773,0.33203 -0.0362,-0.0251 0.51033,0.69742 -0.98242,-0.9375 a 10.001,10.001 0 0 0 7.83008,3.24804 c 2.45789,-0.10972 3.27475,-0.35221 5.71484,-0.70898 2.4401,-0.35678 5.46054,-0.81846 8.50782,-1.28516 6.08216,-0.93149 13.13439,-1.94872 13.41406,-1.97656 0.0186,-1.1e-4 7.3853,-0.0729 13.21289,0.0469 2.91767,0.0599 5.72989,0.13106 7.83008,0.18945 1.05009,0.0292 1.92244,0.0553 2.53906,0.0742 0.61662,0.0189 1.87924,0.0828 0.81641,0.0254 a 10.001,10.001 0 0 0 0.13476,0.006 c -0.55199,-0.0223 1.74139,0.13914 3.72461,0.28711 1.97019,0.14699 4.1579,0.30282 6.20117,0.31836 0.50245,0.0106 1.00511,0.0119 1.50586,-0.002 a 10,10 0 0 0 9.71875,-10.27343 10,10 0 0 0 -10.27344,-9.718753 c -0.16989,0.0047 -0.35795,0.0058 -0.58593,0 a 10.001,10.001 0 0 0 -0.18946,-0.002 c -0.93516,-0.0063 -3.05188,-0.128588 -4.88867,-0.265625 -1.8042,-0.134607 -2.82909,-0.258806 -4.32617,-0.322266 -0.96859,-0.0515 -0.61441,-0.02426 -1.22461,-0.04297 -0.63842,-0.01957 -1.52689,-0.04646 -2.5957,-0.07617 -2.13763,-0.05943 -4.99103,-0.132058 -7.97461,-0.19336 -5.96716,-0.122604 -11.31066,-0.340791 -15.43164,0.0293 a 10.001,10.001 0 0 0 -0.0449,0.0039 c -3.13755,0.29617 -8.50885,1.191435 -14.5918,2.123047 -3.04148,0.465806 -6.03846,0.924276 -8.37305,1.265625 -0.27626,0.04039 -0.15986,0.02342 -0.43945,0.06055 -1.45671,-1.11139 -3.16835,-2.414637 -5.17578,-3.939453 -4.57138,-3.472346 -9.97628,-7.567688 -13.42188,-10.185547 a 10.001,10.001 0 0 0 -0.0566,-0.04492 C 121.86374,77.59967 113.99226,72.209692 106.50977,68.855469 a 10.001,10.001 0 0 0 -0.0176,-0.0078 c -8.106157,-3.61471 -18.306303,-7.287548 -26.833967,-10.37306 -4.263832,-1.542755 -8.102425,-2.934603 -10.873047,-4.009765 -1.38531,-0.537581 -2.513377,-1.002419 -3.175781,-1.302735 -0.662404,-0.300315 -1.244828,-1.01735 0.503906,0.503907 a 10.001,10.001 0 0 0 -6.5625,-2.455079 z m 302.240238,1.81836 a 10.001,10.001 0 0 0 -8.84961,14.65625 c -0.61845,-1.175918 0.2045,0.854423 0.46875,2.730469 0.26111,1.853828 0.41632,3.909722 0.48242,5.052734 0.16883,3.821772 0.11008,16.311363 -0.84766,25.18555 -1.43917,11.55689 -2.54809,18.17854 -5.12695,26.95703 -3.11682,10.20806 -7.02974,19.97706 -9.30664,24.07031 -3.02062,5.3786 -13.01035,18.26404 -14.81641,20.1582 a 10.001,10.001 0 0 0 -0.004,0.004 c -0.1877,0.19709 -1.72527,1.71057 -2.95703,2.89453 -0.61589,0.59198 -1.19879,1.14757 -1.625,1.55469 -0.21311,0.20356 -0.38612,0.36817 -0.51172,0.48828 -0.0628,0.0601 -0.11142,0.10737 -0.16016,0.1543 -0.0244,0.0235 -0.0418,0.041 -0.0957,0.0937 -0.0269,0.0264 -0.0367,0.0324 -0.18164,0.18164 -0.0725,0.0746 -0.79086,0.92167 -0.79102,0.92187 -8e-5,1e-4 12.11518,15.14456 12.11524,15.14453 5e-5,-2e-5 1.92988,-1.15796 2.09375,-1.28906 a 10,10 0 0 0 1.27343,-2.3125 c 0.0312,0.0389 0.44336,0.55274 0.44336,0.55274 1.6e-4,-2.1e-4 -0.718,0.8448 -0.78906,0.91796 -0.12716,0.13094 -0.1319,0.13461 -0.14844,0.15039 0.02,-0.0192 0.0308,-0.0302 0.0625,-0.0605 0.11287,-0.10793 0.28811,-0.27434 0.50391,-0.48047 0.43159,-0.41226 1.02955,-0.98409 1.66992,-1.59961 1.27933,-1.22968 2.56438,-2.45352 3.57617,-3.51563 4.75285,-4.98469 12.98694,-15.62023 17.79297,-24.1875 a 10.001,10.001 0 0 0 0.0156,-0.0293 c 3.79917,-6.82351 7.59035,-16.89483 10.98828,-28.03711 a 10.001,10.001 0 0 0 0.0293,-0.0957 c 2.94417,-10.0123 4.31702,-18.27411 5.8086,-30.26758 a 10.001,10.001 0 0 0 0.0195,-0.1543 c 1.15423,-10.638511 1.19639,-22.831065 0.94726,-28.359374 a 10.001,10.001 0 0 0 -0.006,-0.119141 c -0.0853,-1.496085 -0.26214,-4.007217 -0.6504,-6.763672 -0.20901,-1.483921 -0.41274,-2.971983 -0.81445,-4.59375 a 10,10 0 0 0 0.002,-0.0039 10,10 0 0 0 -0.0332,-0.07813 c -0.34517,-1.370791 -0.80209,-2.81838 -1.72656,-4.576172 l -0.0996,0.166016 a 10,10 0 0 0 -8.14063,-5.511719 z M 320.51758,175.08398 c 0,1e-5 0.41035,0.51391 0.4414,0.55274 a 10,10 0 0 0 -2.53515,0.73437 c 0.16348,-0.13078 2.09381,-1.28713 2.09375,-1.28711 z M 56.359375,53.029297 A 10,10 0 0 0 48.21875,58.541016 L 48.119141,58.375 c -0.924469,1.757792 -1.381394,3.205381 -1.726563,4.576172 a 10,10 0 0 0 -0.0332,0.07813 10,10 0 0 0 0.002,0.0039 c -0.401706,1.621767 -0.605439,3.109829 -0.814453,4.59375 -0.388254,2.756455 -0.565063,5.267587 -0.650391,6.763672 a 10.001,10.001 0 0 0 -0.0059,0.119141 c -0.24913,5.528309 -0.206964,17.720863 0.947266,28.359375 a 10.001,10.001 0 0 0 0.01953,0.1543 c 1.491573,11.99347 2.864427,20.25528 5.808594,30.26758 a 10.001,10.001 0 0 0 0.0293,0.0957 c 3.397927,11.14228 7.189113,21.2136 10.988282,28.03711 a 10.001,10.001 0 0 0 0.01563,0.0293 c 4.805079,8.56558 13.035782,19.19766 17.789062,24.1836 1.012299,1.06291 2.299341,2.28849 3.580078,3.51953 0.640369,0.61552 1.238326,1.18735 1.669922,1.59961 0.215798,0.20613 0.391037,0.37254 0.503906,0.48047 0.03174,0.0303 0.04247,0.0413 0.0625,0.0605 -0.01653,-0.0158 -0.02127,-0.0195 -0.148437,-0.15039 -0.07106,-0.0732 -0.789217,-0.91817 -0.789063,-0.91796 3e-6,0 0.412194,-0.51379 0.44336,-0.55274 a 10,10 0 0 0 1.273437,2.3125 c 0.163869,0.1311 2.093692,1.28904 2.09375,1.28906 5.9e-5,3e-5 12.115319,-15.14443 12.115239,-15.14453 -1.6e-4,-2e-4 -0.71857,-0.84728 -0.79102,-0.92187 -0.14489,-0.14919 -0.15471,-0.15525 -0.18164,-0.18164 -0.0539,-0.0528 -0.0713,-0.0703 -0.0957,-0.0937 -0.0487,-0.0469 -0.0973,-0.0942 -0.16016,-0.1543 -0.125607,-0.12011 -0.29861,-0.28472 -0.511719,-0.48828 -0.426216,-0.40712 -1.009118,-0.96271 -1.625,-1.55469 -1.231762,-1.18396 -2.76933,-2.69744 -2.957031,-2.89453 a 10.001,10.001 0 0 0 -0.0039,-0.004 c -1.806059,-1.89416 -11.795788,-14.7796 -14.816406,-20.1582 -2.276901,-4.09325 -6.189819,-13.86225 -9.306641,-24.07031 -2.578862,-8.77849 -3.687784,-15.40014 -5.126953,-26.95703 -0.957739,-8.874188 -1.016485,-21.363779 -0.847656,-25.185551 0.0661,-1.143012 0.221305,-3.198906 0.482421,-5.052734 0.264247,-1.876046 1.087196,-3.906387 0.46875,-2.730469 A 10.001,10.001 0 0 0 56.970703,53.029297 Z M 97.482422,175.08398 c -5.9e-5,-2e-5 1.930272,1.15633 2.09375,1.28711 a 10,10 0 0 0 -2.535156,-0.73437 c 0.03106,-0.0388 0.441408,-0.55273 0.441406,-0.55274 z" />
    <path
       d="M350.37,72.59 C350.37,72.59 350.37,71.85 350.37,71.85 C345.44,75.49 334.11,85.53 329.76,89.71 C322.02,97.31 303.23,120.07 302.28,121.28 C296.60,128.55 288.84,147.45 288.89,147.41"
       fill="none"
       stroke="rgb(47, 41, 41)"
       stroke-width="20.00"
       stroke-opacity="1.00"
       stroke-linejoin="round"
       id="path7" />
    <path
       d="M67.63,72.59 C67.63,72.59 67.63,71.85 67.63,71.85 C72.56,75.49 83.89,85.53 88.24,89.71 C95.98,97.31 114.77,120.07 115.72,121.28 C121.40,128.55 129.16,147.45 129.11,147.41"
       fill="none"
       stroke="rgb(47, 41, 41)"
       stroke-width="20.00"
       stroke-opacity="1.00"
       stroke-linejoin="round"
       id="path8" />
    <path
       d="M352.59,71.11 C352.59,71.11 352.59,70.37 352.59,70.37 C353.56,69.77 355.68,68.46 355.85,68.34 C356.07,68.19 356.68,67.77 357.28,67.54"
       fill="none"
       stroke="rgb(47, 41, 41)"
       stroke-width="20.00"
       stroke-opacity="1.00"
       stroke-linejoin="round"
       id="path9" />
    <path
       d="M65.41,71.11 C65.41,71.11 65.41,70.37 65.41,70.37 C64.44,69.77 62.32,68.46 62.15,68.34 C61.93,68.19 61.32,67.77 60.72,67.54"
       fill="none"
       stroke="rgb(47, 41, 41)"
       stroke-width="20.00"
       stroke-opacity="1.00"
       stroke-linejoin="round"
       id="path10" />
    <path
       d="M353.33,70.37 C353.33,70.37 355.56,69.63 355.56,69.63"
       fill="none"
       stroke="rgb(47, 41, 41)"
       stroke-width="20.00"
       stroke-opacity="1.00"
       stroke-linejoin="round"
       id="path11" />
    <path
       d="M64.67,70.37 C64.67,70.37 62.44,69.63 62.44,69.63"
       fill="none"
       stroke="rgb(47, 41, 41)"
       stroke-width="20.00"
       stroke-opacity="1.00"
       stroke-linejoin="round"
       id="path12" />
    <path
       d="M524.44,337.78 C523.89,337.57 522.97,336.93 521.87,335.95 C521.69,335.79 521.56,335.66 521.48,335.56"
       fill="none"
       stroke="rgb(47, 41, 41)"
       stroke-width="20.00"
       stroke-opacity="1.00"
       stroke-linejoin="round"
       id="path13" />
    <path
       d="M-106.44,337.78 C-105.89,337.57 -104.97,336.93 -103.87,335.95 C-103.69,335.79 -103.56,335.66 -103.48,335.56"
       fill="none"
       stroke="rgb(47, 41, 41)"
       stroke-width="20.00"
       stroke-opacity="1.00"
       stroke-linejoin="round"
       id="path14" />
    <path
       d="M235.56,234.07 C234.92,233.55 234.83,229.79 234.82,227.59 C234.82,224.15 234.81,218.17 235.33,216.17 C235.78,214.49 238.41,205.91 239.59,203.39 C240.44,201.60 244.48,195.03 246.36,192.81 C248.34,190.50 252.92,186.87 255.65,185.22 C260.69,182.19 268.48,179.75 271.73,179.43 C272.36,179.37 273.41,179.32 274.87,179.29"
       fill="none"
       stroke="rgb(255, 255, 255)"
       stroke-width="17.00"
       stroke-opacity="1.00"
       stroke-linejoin="round"
       id="path15" />
    <path
       d="M182.44,234.07 C183.08,233.55 183.17,229.79 183.18,227.59 C183.18,224.15 183.19,218.17 182.67,216.17 C182.22,214.49 179.59,205.91 178.41,203.39 C177.56,201.60 173.52,195.03 171.64,192.81 C169.66,190.50 165.08,186.87 162.35,185.22 C157.31,182.19 149.52,179.75 146.27,179.43 C145.64,179.37 144.59,179.32 143.13,179.29"
       fill="none"
       stroke="rgb(255, 255, 255)"
       stroke-width="17.00"
       stroke-opacity="1.00"
       stroke-linejoin="round"
       id="path16" />
    <path
       d="M251.85,196.30 C251.85,196.30 250.98,195.56 250.98,195.56 C249.79,195.90 246.77,199.79 245.12,203.29 C243.27,207.26 240.67,214.00 240.01,216.84 C239.24,220.28 238.58,225.85 238.52,229.94 C238.49,234.00 239.08,237.66 239.98,240.56"
       fill="none"
       stroke="rgb(47, 41, 41)"
       stroke-width="17.00"
       stroke-opacity="1.00"
       stroke-linejoin="round"
       id="path17" />
    <path
       d="M166.15,196.30 C166.15,196.30 167.02,195.56 167.02,195.56 C168.21,195.90 171.23,199.79 172.88,203.29 C174.73,207.26 177.33,214.00 177.99,216.84 C178.76,220.28 179.42,225.85 179.48,229.94 C179.51,234.00 178.92,237.66 178.02,240.56"
       fill="none"
       stroke="rgb(47, 41, 41)"
       stroke-width="17.00"
       stroke-opacity="1.00"
       stroke-linejoin="round"
       id="path18" />
    <path
       d="M253.33,194.07 C253.33,194.07 254.07,194.07 254.07,194.07 C254.07,194.07 254.74,193.20 254.74,193.20 C256.79,191.70 263.06,189.93 263.85,189.76 C266.52,189.21 276.94,188.38 277.36,188.39 C279.58,188.41 286.90,190.42 288.81,191.00 C294.80,192.88 302.67,198.31 302.87,198.52 C302.91,198.56 302.94,198.76 302.96,199.10"
       fill="none"
       stroke="rgb(47, 41, 41)"
       stroke-width="17.00"
       stroke-opacity="1.00"
       stroke-linejoin="round"
       id="path19" />
    <path
       d="M164.67,194.07 C164.67,194.07 163.93,194.07 163.93,194.07 C163.93,194.07 163.26,193.20 163.26,193.20 C161.21,191.70 154.94,189.93 154.15,189.76 C151.48,189.21 141.06,188.38 140.64,188.39 C138.42,188.41 131.10,190.42 129.19,191.00 C123.20,192.88 115.33,198.31 115.13,198.52 C115.09,198.56 115.06,198.76 115.04,199.10"
       fill="none"
       stroke="rgb(47, 41, 41)"
       stroke-width="17.00"
       stroke-opacity="1.00"
       stroke-linejoin="round"
       id="path20" />
    <path
       d="M242.96,234.81 C242.96,234.81 242.96,235.56 242.96,235.56 C243.45,235.50 255.75,239.19 258.32,239.59 C259.83,239.82 267.81,240.83 270.91,240.42 C272.31,240.22 280.08,237.80 282.92,236.39 C285.98,234.85 290.72,230.84 292.63,228.50 C293.79,227.03 296.96,221.09 298.21,218.37 C300.33,213.73 302.55,203.11 303.70,200.15"
       fill="none"
       stroke="rgb(47, 41, 41)"
       stroke-width="17.00"
       stroke-opacity="1.00"
       stroke-linejoin="round"
       id="path21" />
    <path
       d="M175.04,234.81 C175.04,234.81 175.04,235.56 175.04,235.56 C174.55,235.50 162.25,239.19 159.68,239.59 C158.17,239.82 150.19,240.83 147.09,240.42 C145.69,240.22 137.92,237.80 135.08,236.39 C132.02,234.85 127.28,230.84 125.37,228.50 C124.21,227.03 121.04,221.09 119.79,218.37 C117.67,213.73 115.45,203.11 114.30,200.15"
       fill="none"
       stroke="rgb(47, 41, 41)"
       stroke-width="17.00"
       stroke-opacity="1.00"
       stroke-linejoin="round"
       id="path22" />
    <path
       d="M205.19,269.63 C205.19,269.63 205.19,270.37 205.19,270.37 C203.94,270.34 201.88,269.61 197.61,269.63 C193.83,269.64 189.93,269.63 188.91,270.40 C187.64,271.41 187.28,273.27 188.05,274.90 C189.18,277.15 192.09,281.47 195.35,285.64 C199.60,290.96 205.37,294.33 205.79,294.07 C206.43,293.65 206.95,293.19 207.34,292.71 C207.55,292.45 207.78,292.00 208.04,291.37"
       fill="none"
       stroke="rgb(47, 41, 41)"
       stroke-width="17.00"
       stroke-opacity="1.00"
       stroke-linejoin="round"
       id="path23" />
    <path
       d="M212.81,269.63 C212.81,269.63 212.81,270.37 212.81,270.37 C214.06,270.34 216.12,269.61 220.39,269.63 C224.17,269.64 228.07,269.63 229.09,270.40 C230.36,271.41 230.72,273.27 229.95,274.90 C228.82,277.15 225.91,281.47 222.65,285.64 C218.40,290.96 212.63,294.33 212.21,294.07 C211.57,293.65 211.05,293.19 210.66,292.71 C210.45,292.45 210.22,292.00 209.96,291.37"
       fill="none"
       stroke="rgb(47, 41, 41)"
       stroke-width="17.00"
       stroke-opacity="1.00"
       stroke-linejoin="round"
       id="path24" />
    <path
       d="M204.44,270.37 C204.44,270.37 205.19,270.37 205.19,270.37 C205.19,270.37 209.82,271.11 209.82,271.11"
       fill="none"
       stroke="rgb(47, 41, 41)"
       stroke-width="17.00"
       stroke-opacity="1.00"
       stroke-linejoin="round"
       id="path25" />
    <path
       d="M213.56,270.37 C213.56,270.37 212.81,270.37 212.81,270.37 C212.81,270.37 208.18,271.11 208.18,271.11"
       fill="none"
       stroke="rgb(47, 41, 41)"
       stroke-width="17.00"
       stroke-opacity="1.00"
       stroke-linejoin="round"
       id="path26" />
    <path
       d="M207.41,269.63 C208.27,269.65 211.12,269.56 211.45,269.63 C211.78,269.69 212.14,269.92 212.52,270.30"
       fill="none"
       stroke="rgb(47, 41, 41)"
       stroke-width="17.00"
       stroke-opacity="1.00"
       stroke-linejoin="round"
       id="path27" />
    <path
       d="M210.59,269.63 C209.73,269.65 206.88,269.56 206.55,269.63 C206.22,269.69 205.86,269.92 205.48,270.30"
       fill="none"
       stroke="rgb(47, 41, 41)"
       stroke-width="17.00"
       stroke-opacity="1.00"
       stroke-linejoin="round"
       id="path28" />
    <path
       d="M206.67,270.37 C206.67,270.37 207.04,271.11 207.04,271.11 C207.04,271.11 211.05,271.11 211.05,271.11"
       fill="none"
       stroke="rgb(47, 41, 41)"
       stroke-width="17.00"
       stroke-opacity="1.00"
       stroke-linejoin="round"
       id="path29" />
    <path
       d="M211.33,270.37 C211.33,270.37 210.96,271.11 210.96,271.11 C210.96,271.11 206.95,271.11 206.95,271.11"
       fill="none"
       stroke="rgb(47, 41, 41)"
       stroke-width="17.00"
       stroke-opacity="1.00"
       stroke-linejoin="round"
       id="path30" />
    <path
       d="M197.78,273.33 C197.78,273.33 201.19,283.25 201.19,283.25 C201.19,283.25 201.17,275.62 201.17,275.62 C201.17,275.62 203.38,286.40 203.38,286.40 C203.38,286.40 205.79,275.90 205.79,275.90 C205.90,276.02 205.94,278.31 206.21,283.79 C206.32,285.93 206.57,286.69 207.17,287.15 C207.17,287.15 210.06,275.81 210.06,275.81 C210.06,275.81 210.39,283.25 210.39,283.25 C210.39,283.25 213.57,277.30 213.57,277.30 C213.69,277.64 213.78,277.98 213.82,278.30 C213.87,278.63 213.93,279.40 214.02,280.63"
       fill="none"
       stroke="rgb(47, 41, 41)"
       stroke-width="17.00"
       stroke-opacity="1.00"
       stroke-linejoin="round"
       id="path31" />
    <path
       d="M220.22,273.33 C220.22,273.33 216.92,283.31 216.92,283.31 C216.92,283.31 216.89,275.46 216.89,275.46 C216.89,275.46 215.22,285.92 215.22,285.92 C213.80,284.45 213.16,283.37 212.98,281.85 C212.34,276.70 212.18,275.75 212.07,275.81 C212.07,275.81 211.42,286.84 211.42,286.84 C210.16,285.10 209.60,283.92 209.28,282.02 C208.36,276.80 208.19,276.25 207.86,275.80 C207.86,275.80 207.43,283.22 207.43,283.22 C207.43,283.22 204.55,277.27 204.55,277.27 C204.39,277.41 204.28,277.65 204.23,277.97 C204.17,278.30 204.09,279.19 203.98,280.63"
       fill="none"
       stroke="rgb(47, 41, 41)"
       stroke-width="17.00"
       stroke-opacity="1.00"
       stroke-linejoin="round"
       id="path32" />
    <path
       d="M262.22,205.19 C262.22,205.19 262.96,205.19 262.96,205.19 C261.91,205.21 260.97,205.86 260.38,207.38 C259.40,209.97 259.22,216.60 259.64,218.36 C259.98,219.73 261.18,222.37 262.08,223.94 C262.86,225.17 264.46,226.30 266.07,226.67 C266.98,226.85 270.54,226.41 271.45,226.03 C272.56,225.55 274.12,224.25 276.19,222.21 C277.89,220.44 278.84,218.77 279.09,216.81 C279.50,213.23 278.03,208.07 276.52,206.27 C275.13,204.67 271.03,201.94 268.70,201.93 C268.32,201.93 267.41,202.28 266.99,202.22"
       fill="none"
       stroke="rgb(47, 41, 41)"
       stroke-width="17.00"
       stroke-opacity="1.00"
       stroke-linejoin="round"
       id="path33" />
    <path
       d="M155.78,205.19 C155.78,205.19 155.04,205.19 155.04,205.19 C156.09,205.21 157.03,205.86 157.62,207.38 C158.60,209.97 158.78,216.60 158.36,218.36 C158.02,219.73 156.82,222.37 155.92,223.94 C155.14,225.17 153.54,226.30 151.93,226.67 C151.02,226.85 147.46,226.41 146.55,226.03 C145.44,225.55 143.88,224.25 141.81,222.21 C140.11,220.44 139.16,218.77 138.91,216.81 C138.50,213.23 139.97,208.07 141.48,206.27 C142.87,204.67 146.97,201.94 149.30,201.93 C149.68,201.93 150.59,202.28 151.01,202.22"
       fill="none"
       stroke="rgb(47, 41, 41)"
       stroke-width="17.00"
       stroke-opacity="1.00"
       stroke-linejoin="round"
       id="path34" />
    <path
       d="M267.41,207.41 C266.85,208.09 266.18,209.25 265.97,210.20 C265.39,212.83 267.42,216.89 267.81,216.93 C268.95,217.45 269.89,210.76 268.55,210.33 C265.67,211.12 266.95,217.34 267.26,218.17 C268.77,217.26 268.56,214.93 268.27,214.08 C266.50,216.82 267.23,220.17 267.43,220.39 C267.43,220.39 267.95,215.88 267.95,215.88 C267.95,215.88 268.56,221.24 268.56,221.24 C268.56,221.24 268.58,215.57 268.58,215.57"
       fill="none"
       stroke="rgb(47, 41, 41)"
       stroke-width="17.00"
       stroke-opacity="1.00"
       stroke-linejoin="round"
       id="path35" />
    <path
       d="M150.59,207.41 C151.15,208.09 151.82,209.25 152.03,210.20 C152.61,212.83 150.58,216.89 150.19,216.93 C149.05,217.45 148.11,210.76 149.45,210.33 C152.33,211.12 151.05,217.34 150.74,218.17 C149.23,217.26 149.44,214.93 149.73,214.08 C151.50,216.82 150.77,220.17 150.57,220.39 C150.57,220.39 150.05,215.88 150.05,215.88 C150.05,215.88 149.44,221.24 149.44,221.24 C149.44,221.24 149.42,215.57 149.42,215.57"
       fill="none"
       stroke="rgb(47, 41, 41)"
       stroke-width="17.00"
       stroke-opacity="1.00"
       stroke-linejoin="round"
       id="path36" />
    <path
       d="M266.67,206.67 C266.67,206.67 264.44,206.67 264.44,206.67 C265.05,205.84 265.46,205.33 265.66,205.14 C265.86,204.94 266.13,204.80 266.47,204.71 C266.26,205.33 266.05,205.73 265.83,205.91 C265.61,206.10 265.09,206.32 264.25,206.59 C264.25,206.59 264.37,206.11 264.37,206.11"
       fill="none"
       stroke="rgb(47, 41, 41)"
       stroke-width="17.00"
       stroke-opacity="1.00"
       stroke-linejoin="round"
       id="path37" />
    <path
       d="M151.33,206.67 C151.33,206.67 153.56,206.67 153.56,206.67 C152.95,205.84 152.54,205.33 152.34,205.14 C152.14,204.94 151.87,204.80 151.53,204.71 C151.74,205.33 151.95,205.73 152.17,205.91 C152.39,206.10 152.91,206.32 153.75,206.59 C153.75,206.59 153.63,206.11 153.63,206.11"
       fill="none"
       stroke="rgb(47, 41, 41)"
       stroke-width="17.00"
       stroke-opacity="1.00"
       stroke-linejoin="round"
       id="path38" />
    <path
       d="M263.70,206.67 C263.70,206.67 262.96,206.67 262.96,206.67 C263.82,206.23 264.35,205.95 264.56,205.81 C264.77,205.67 264.95,205.49 265.11,205.26"
       fill="none"
       stroke="rgb(47, 41, 41)"
       stroke-width="17.00"
       stroke-opacity="1.00"
       stroke-linejoin="round"
       id="path39" />
    <path
       d="M154.30,206.67 C154.30,206.67 155.04,206.67 155.04,206.67 C154.40,206.35 153.60,205.89 153.23,205.60 C153.13,205.52 153.01,205.40 152.89,205.26"
       fill="none"
       stroke="rgb(47, 41, 41)"
       stroke-width="17.00"
       stroke-opacity="1.00"
       stroke-linejoin="round"
       id="path40" />
    <path
       d="M264.44,208.15 C264.44,208.15 264.44,207.41 264.44,207.41 C264.44,207.04 264.58,205.25 266.09,204.63 C266.32,204.53 266.71,204.47 267.24,204.44"
       fill="none"
       stroke="rgb(47, 41, 41)"
       stroke-width="17.00"
       stroke-opacity="1.00"
       stroke-linejoin="round"
       id="path41" />
    <path
       d="M153.56,208.15 C153.56,208.15 153.56,207.41 153.56,207.41 C153.56,207.04 153.42,205.25 151.91,204.63 C151.68,204.53 151.29,204.47 150.76,204.44"
       fill="none"
       stroke="rgb(47, 41, 41)"
       stroke-width="17.00"
       stroke-opacity="1.00"
       stroke-linejoin="round"
       id="path42" />
    <path
       d="M263.70,206.67 C263.70,206.67 262.22,205.93 262.22,205.93 C262.22,205.93 262.96,205.19 262.96,205.19 C263.34,204.33 264.99,202.82 266.37,202.22 C266.69,202.08 267.00,202.08 267.29,202.22"
       fill="none"
       stroke="rgb(47, 41, 41)"
       stroke-width="17.00"
       stroke-opacity="1.00"
       stroke-linejoin="round"
       id="path43" />
    <path
       d="M154.30,206.67 C154.30,206.67 155.78,205.93 155.78,205.93 C155.78,205.93 155.04,205.19 155.04,205.19 C154.66,204.33 153.01,202.82 151.63,202.22 C151.31,202.08 151.00,202.08 150.71,202.22"
       fill="none"
       stroke="rgb(47, 41, 41)"
       stroke-width="17.00"
       stroke-opacity="1.00"
       stroke-linejoin="round"
       id="path44" />
    <path
       d="M265.19,208.89"
       fill="none"
       stroke="rgb(255, 255, 255)"
       stroke-width="17.00"
       stroke-opacity="1.00"
       stroke-linejoin="round"
       id="path45" />
    <path
       d="M265.93,208.15 C265.93,208.15 265.19,208.89 265.19,208.89 C265.19,208.89 265.26,210.37 265.26,210.37 C265.26,210.37 264.98,211.85 264.98,211.85"
       fill="none"
       stroke="rgb(255, 255, 255)"
       stroke-width="17.00"
       stroke-opacity="1.00"
       stroke-linejoin="round"
       id="path46" />
    <path
       d="M143.70,209.63 C143.70,209.63 143.70,208.89 143.70,208.89 C143.70,208.89 144.41,208.78 144.41,208.78"
       fill="none"
       stroke="rgb(255, 255, 255)"
       stroke-width="17.00"
       stroke-opacity="1.00"
       stroke-linejoin="round"
       id="path47" />
    <path
       d="M143.70,208.89 C143.70,208.89 144.44,209.63 144.44,209.63 C144.44,209.63 145.19,208.44 145.19,208.44 C144.75,208.62 144.51,208.78 144.45,208.93 C144.40,209.08 144.47,209.43 144.65,209.97 C144.65,209.97 145.78,209.10 145.78,209.10"
       fill="none"
       stroke="rgb(255, 255, 255)"
       stroke-width="17.00"
       stroke-opacity="1.00"
       stroke-linejoin="round"
       id="path48" />
    <path
       d="M144.44,209.63 C144.44,209.63 143.70,209.63 143.70,209.63 C143.70,209.63 143.88,211.11 143.88,211.11 C143.88,211.11 145.05,210.54 145.05,210.54 C145.05,210.54 144.24,209.64 144.24,209.64 C144.24,209.64 144.07,210.93 144.07,210.93 C144.07,210.93 144.96,209.31 144.96,209.31 C144.96,209.31 144.53,210.48 144.53,210.48"
       fill="none"
       stroke="rgb(255, 255, 255)"
       stroke-width="17.00"
       stroke-opacity="1.00"
       stroke-linejoin="round"
       id="path49" />
  </g>
</svg>
