<?xml version="1.0" encoding="UTF-8" standalone="no"?>
<!DOCTYPE svg PUBLIC "-//W3C//DTD SVG 1.1//EN" "http://www.w3.org/Graphics/SVG/1.1/DTD/svg11.dtd">
<svg width="96.00" height="96.00" viewBox="0.00 0.00 400.00 400.00" xmlns="http://www.w3.org/2000/svg" xmlns:xlink="http://www.w3.org/1999/xlink">
<g stroke-linecap="round" id="レイヤー_2">
<path d="M56.36,63.03 C56.36,63.03 56.97,63.03 56.97,63.03 C55.55,65.73 55.03,72.33 54.88,74.96 C54.67,79.62 54.72,92.02 55.78,101.79 C57.25,113.61 58.49,121.05 61.26,130.47 C64.52,141.16 68.38,151.10 71.42,156.56 C75.33,163.53 84.45,175.30 87.73,178.74 C88.93,180.00 93.38,184.22 93.33,184.18" fill="none" stroke="rgb(47, 41, 41)" stroke-width="20.00" stroke-opacity="1.00" stroke-linejoin="round"/>
<path d="M361.64,63.03 C361.64,63.03 361.03,63.03 361.03,63.03 C362.45,65.73 362.97,72.33 363.12,74.96 C363.33,79.62 363.28,92.02 362.22,101.79 C360.75,113.61 359.51,121.05 356.74,130.47 C353.48,141.16 349.62,151.10 346.58,156.56 C342.67,163.53 333.55,175.30 330.27,178.74 C329.07,180.00 324.62,184.22 324.67,184.18" fill="none" stroke="rgb(47, 41, 41)" stroke-width="20.00" stroke-opacity="1.00" stroke-linejoin="round"/>
<path d="M58.79,61.21 C58.79,61.21 59.55,61.21 59.55,61.21 C62.01,63.35 87.35,71.26 102.42,77.98 C108.51,80.71 116.13,85.80 124.24,91.87 C131.15,97.12 145.85,108.25 146.06,108.48 C148.30,108.38 169.84,104.86 173.23,104.54 C177.35,104.17 198.71,104.83 199.08,104.85 C200.07,104.89 205.72,105.43 208.71,105.45 C209.10,105.46 209.47,105.46 209.83,105.45" fill="none" stroke="rgb(47, 41, 41)" stroke-width="20.00" stroke-opacity="1.00" stroke-linejoin="round"/>
<path d="M359.21,61.21 C359.21,61.21 358.45,61.21 358.45,61.21 C355.99,63.35 330.65,71.26 315.58,77.98 C309.49,80.71 301.87,85.80 293.76,91.87 C286.85,97.12 272.15,108.25 271.94,108.48 C269.70,108.38 248.16,104.86 244.77,104.54 C240.65,104.17 219.29,104.83 218.92,104.85 C217.93,104.89 212.28,105.43 209.29,105.45 C208.90,105.46 208.53,105.46 208.17,105.45" fill="none" stroke="rgb(47, 41, 41)" stroke-width="20.00" stroke-opacity="1.00" stroke-linejoin="round"/>
<path d="M93.74,185.22 C90.47,195.45 87.71,205.06 86.59,212.85 C85.57,220.48 83.56,236.46 83.56,243.12 C83.63,250.03 83.88,265.38 85.37,271.20 C86.32,274.77 89.83,281.44 92.19,284.40 C95.10,288.00 105.95,296.92 112.04,301.00 C115.31,303.19 130.27,312.29 136.19,314.70 C146.75,318.90 158.15,322.85 165.75,324.58 C172.26,326.05 183.36,327.74 195.07,329.04 C199.27,329.47 205.43,329.69 207.77,330.00" fill="none" stroke="rgb(47, 41, 41)" stroke-width="20.00" stroke-opacity="1.00" stroke-linejoin="round"/>
<path d="M324.26,185.22 C327.53,195.45 330.29,205.06 331.41,212.85 C332.43,220.48 334.44,236.46 334.44,243.12 C334.37,250.03 334.12,265.38 332.63,271.20 C331.68,274.77 328.17,281.44 325.81,284.40 C322.90,288.00 312.05,296.92 305.96,301.00 C302.69,303.19 287.73,312.29 281.81,314.70 C271.25,318.90 259.85,322.85 252.25,324.58 C245.74,326.05 234.64,327.74 222.93,329.04 C218.73,329.47 212.57,329.69 210.23,330.00" fill="none" stroke="rgb(47, 41, 41)" stroke-width="20.00" stroke-opacity="1.00" stroke-linejoin="round"/>
<path d="M350.37,72.59 C350.37,72.59 350.37,71.85 350.37,71.85 C345.44,75.49 334.11,85.53 329.76,89.71 C322.02,97.31 303.23,120.07 302.28,121.28 C296.60,128.55 288.84,147.45 288.89,147.41" fill="none" stroke="rgb(47, 41, 41)" stroke-width="20.00" stroke-opacity="1.00" stroke-linejoin="round"/>
<path d="M67.63,72.59 C67.63,72.59 67.63,71.85 67.63,71.85 C72.56,75.49 83.89,85.53 88.24,89.71 C95.98,97.31 114.77,120.07 115.72,121.28 C121.40,128.55 129.16,147.45 129.11,147.41" fill="none" stroke="rgb(47, 41, 41)" stroke-width="20.00" stroke-opacity="1.00" stroke-linejoin="round"/>
<path d="M352.59,71.11 C352.59,71.11 352.59,70.37 352.59,70.37 C353.56,69.77 355.68,68.46 355.85,68.34 C356.07,68.19 356.68,67.77 357.28,67.54" fill="none" stroke="rgb(47, 41, 41)" stroke-width="20.00" stroke-opacity="1.00" stroke-linejoin="round"/>
<path d="M65.41,71.11 C65.41,71.11 65.41,70.37 65.41,70.37 C64.44,69.77 62.32,68.46 62.15,68.34 C61.93,68.19 61.32,67.77 60.72,67.54" fill="none" stroke="rgb(47, 41, 41)" stroke-width="20.00" stroke-opacity="1.00" stroke-linejoin="round"/>
<path d="M353.33,70.37 C353.33,70.37 355.56,69.63 355.56,69.63" fill="none" stroke="rgb(47, 41, 41)" stroke-width="20.00" stroke-opacity="1.00" stroke-linejoin="round"/>
<path d="M64.67,70.37 C64.67,70.37 62.44,69.63 62.44,69.63" fill="none" stroke="rgb(47, 41, 41)" stroke-width="20.00" stroke-opacity="1.00" stroke-linejoin="round"/>
<path d="M524.44,337.78 C523.89,337.57 522.97,336.93 521.87,335.95 C521.69,335.79 521.56,335.66 521.48,335.56" fill="none" stroke="rgb(47, 41, 41)" stroke-width="20.00" stroke-opacity="1.00" stroke-linejoin="round"/>
<path d="M-106.44,337.78 C-105.89,337.57 -104.97,336.93 -103.87,335.95 C-103.69,335.79 -103.56,335.66 -103.48,335.56" fill="none" stroke="rgb(47, 41, 41)" stroke-width="20.00" stroke-opacity="1.00" stroke-linejoin="round"/>
<path d="M235.56,234.07 C234.92,233.55 234.83,229.79 234.82,227.59 C234.82,224.15 234.81,218.17 235.33,216.17 C235.78,214.49 238.41,205.91 239.59,203.39 C240.44,201.60 244.48,195.03 246.36,192.81 C248.34,190.50 252.92,186.87 255.65,185.22 C260.69,182.19 268.48,179.75 271.73,179.43 C272.36,179.37 273.41,179.32 274.87,179.29" fill="none" stroke="rgb(255, 255, 255)" stroke-width="17.00" stroke-opacity="1.00" stroke-linejoin="round"/>
<path d="M182.44,234.07 C183.08,233.55 183.17,229.79 183.18,227.59 C183.18,224.15 183.19,218.17 182.67,216.17 C182.22,214.49 179.59,205.91 178.41,203.39 C177.56,201.60 173.52,195.03 171.64,192.81 C169.66,190.50 165.08,186.87 162.35,185.22 C157.31,182.19 149.52,179.75 146.27,179.43 C145.64,179.37 144.59,179.32 143.13,179.29" fill="none" stroke="rgb(255, 255, 255)" stroke-width="17.00" stroke-opacity="1.00" stroke-linejoin="round"/>
<path d="M251.85,196.30 C251.85,196.30 250.98,195.56 250.98,195.56 C249.79,195.90 246.77,199.79 245.12,203.29 C243.27,207.26 240.67,214.00 240.01,216.84 C239.24,220.28 238.58,225.85 238.52,229.94 C238.49,234.00 239.08,237.66 239.98,240.56" fill="none" stroke="rgb(47, 41, 41)" stroke-width="17.00" stroke-opacity="1.00" stroke-linejoin="round"/>
<path d="M166.15,196.30 C166.15,196.30 167.02,195.56 167.02,195.56 C168.21,195.90 171.23,199.79 172.88,203.29 C174.73,207.26 177.33,214.00 177.99,216.84 C178.76,220.28 179.42,225.85 179.48,229.94 C179.51,234.00 178.92,237.66 178.02,240.56" fill="none" stroke="rgb(47, 41, 41)" stroke-width="17.00" stroke-opacity="1.00" stroke-linejoin="round"/>
<path d="M253.33,194.07 C253.33,194.07 254.07,194.07 254.07,194.07 C254.07,194.07 254.74,193.20 254.74,193.20 C256.79,191.70 263.06,189.93 263.85,189.76 C266.52,189.21 276.94,188.38 277.36,188.39 C279.58,188.41 286.90,190.42 288.81,191.00 C294.80,192.88 302.67,198.31 302.87,198.52 C302.91,198.56 302.94,198.76 302.96,199.10" fill="none" stroke="rgb(47, 41, 41)" stroke-width="17.00" stroke-opacity="1.00" stroke-linejoin="round"/>
<path d="M164.67,194.07 C164.67,194.07 163.93,194.07 163.93,194.07 C163.93,194.07 163.26,193.20 163.26,193.20 C161.21,191.70 154.94,189.93 154.15,189.76 C151.48,189.21 141.06,188.38 140.64,188.39 C138.42,188.41 131.10,190.42 129.19,191.00 C123.20,192.88 115.33,198.31 115.13,198.52 C115.09,198.56 115.06,198.76 115.04,199.10" fill="none" stroke="rgb(47, 41, 41)" stroke-width="17.00" stroke-opacity="1.00" stroke-linejoin="round"/>
<path d="M242.96,234.81 C242.96,234.81 242.96,235.56 242.96,235.56 C243.45,235.50 255.75,239.19 258.32,239.59 C259.83,239.82 267.81,240.83 270.91,240.42 C272.31,240.22 280.08,237.80 282.92,236.39 C285.98,234.85 290.72,230.84 292.63,228.50 C293.79,227.03 296.96,221.09 298.21,218.37 C300.33,213.73 302.55,203.11 303.70,200.15" fill="none" stroke="rgb(47, 41, 41)" stroke-width="17.00" stroke-opacity="1.00" stroke-linejoin="round"/>
<path d="M175.04,234.81 C175.04,234.81 175.04,235.56 175.04,235.56 C174.55,235.50 162.25,239.19 159.68,239.59 C158.17,239.82 150.19,240.83 147.09,240.42 C145.69,240.22 137.92,237.80 135.08,236.39 C132.02,234.85 127.28,230.84 125.37,228.50 C124.21,227.03 121.04,221.09 119.79,218.37 C117.67,213.73 115.45,203.11 114.30,200.15" fill="none" stroke="rgb(47, 41, 41)" stroke-width="17.00" stroke-opacity="1.00" stroke-linejoin="round"/>
<path d="M205.19,269.63 C205.19,269.63 205.19,270.37 205.19,270.37 C203.94,270.34 201.88,269.61 197.61,269.63 C193.83,269.64 189.93,269.63 188.91,270.40 C187.64,271.41 187.28,273.27 188.05,274.90 C189.18,277.15 192.09,281.47 195.35,285.64 C199.60,290.96 205.37,294.33 205.79,294.07 C206.43,293.65 206.95,293.19 207.34,292.71 C207.55,292.45 207.78,292.00 208.04,291.37" fill="none" stroke="rgb(47, 41, 41)" stroke-width="17.00" stroke-opacity="1.00" stroke-linejoin="round"/>
<path d="M212.81,269.63 C212.81,269.63 212.81,270.37 212.81,270.37 C214.06,270.34 216.12,269.61 220.39,269.63 C224.17,269.64 228.07,269.63 229.09,270.40 C230.36,271.41 230.72,273.27 229.95,274.90 C228.82,277.15 225.91,281.47 222.65,285.64 C218.40,290.96 212.63,294.33 212.21,294.07 C211.57,293.65 211.05,293.19 210.66,292.71 C210.45,292.45 210.22,292.00 209.96,291.37" fill="none" stroke="rgb(47, 41, 41)" stroke-width="17.00" stroke-opacity="1.00" stroke-linejoin="round"/>
<path d="M204.44,270.37 C204.44,270.37 205.19,270.37 205.19,270.37 C205.19,270.37 209.82,271.11 209.82,271.11" fill="none" stroke="rgb(47, 41, 41)" stroke-width="17.00" stroke-opacity="1.00" stroke-linejoin="round"/>
<path d="M213.56,270.37 C213.56,270.37 212.81,270.37 212.81,270.37 C212.81,270.37 208.18,271.11 208.18,271.11" fill="none" stroke="rgb(47, 41, 41)" stroke-width="17.00" stroke-opacity="1.00" stroke-linejoin="round"/>
<path d="M207.41,269.63 C208.27,269.65 211.12,269.56 211.45,269.63 C211.78,269.69 212.14,269.92 212.52,270.30" fill="none" stroke="rgb(47, 41, 41)" stroke-width="17.00" stroke-opacity="1.00" stroke-linejoin="round"/>
<path d="M210.59,269.63 C209.73,269.65 206.88,269.56 206.55,269.63 C206.22,269.69 205.86,269.92 205.48,270.30" fill="none" stroke="rgb(47, 41, 41)" stroke-width="17.00" stroke-opacity="1.00" stroke-linejoin="round"/>
<path d="M206.67,270.37 C206.67,270.37 207.04,271.11 207.04,271.11 C207.04,271.11 211.05,271.11 211.05,271.11" fill="none" stroke="rgb(47, 41, 41)" stroke-width="17.00" stroke-opacity="1.00" stroke-linejoin="round"/>
<path d="M211.33,270.37 C211.33,270.37 210.96,271.11 210.96,271.11 C210.96,271.11 206.95,271.11 206.95,271.11" fill="none" stroke="rgb(47, 41, 41)" stroke-width="17.00" stroke-opacity="1.00" stroke-linejoin="round"/>
<path d="M197.78,273.33 C197.78,273.33 201.19,283.25 201.19,283.25 C201.19,283.25 201.17,275.62 201.17,275.62 C201.17,275.62 203.38,286.40 203.38,286.40 C203.38,286.40 205.79,275.90 205.79,275.90 C205.90,276.02 205.94,278.31 206.21,283.79 C206.32,285.93 206.57,286.69 207.17,287.15 C207.17,287.15 210.06,275.81 210.06,275.81 C210.06,275.81 210.39,283.25 210.39,283.25 C210.39,283.25 213.57,277.30 213.57,277.30 C213.69,277.64 213.78,277.98 213.82,278.30 C213.87,278.63 213.93,279.40 214.02,280.63" fill="none" stroke="rgb(47, 41, 41)" stroke-width="17.00" stroke-opacity="1.00" stroke-linejoin="round"/>
<path d="M220.22,273.33 C220.22,273.33 216.92,283.31 216.92,283.31 C216.92,283.31 216.89,275.46 216.89,275.46 C216.89,275.46 215.22,285.92 215.22,285.92 C213.80,284.45 213.16,283.37 212.98,281.85 C212.34,276.70 212.18,275.75 212.07,275.81 C212.07,275.81 211.42,286.84 211.42,286.84 C210.16,285.10 209.60,283.92 209.28,282.02 C208.36,276.80 208.19,276.25 207.86,275.80 C207.86,275.80 207.43,283.22 207.43,283.22 C207.43,283.22 204.55,277.27 204.55,277.27 C204.39,277.41 204.28,277.65 204.23,277.97 C204.17,278.30 204.09,279.19 203.98,280.63" fill="none" stroke="rgb(47, 41, 41)" stroke-width="17.00" stroke-opacity="1.00" stroke-linejoin="round"/>
<path d="M262.22,205.19 C262.22,205.19 262.96,205.19 262.96,205.19 C261.91,205.21 260.97,205.86 260.38,207.38 C259.40,209.97 259.22,216.60 259.64,218.36 C259.98,219.73 261.18,222.37 262.08,223.94 C262.86,225.17 264.46,226.30 266.07,226.67 C266.98,226.85 270.54,226.41 271.45,226.03 C272.56,225.55 274.12,224.25 276.19,222.21 C277.89,220.44 278.84,218.77 279.09,216.81 C279.50,213.23 278.03,208.07 276.52,206.27 C275.13,204.67 271.03,201.94 268.70,201.93 C268.32,201.93 267.41,202.28 266.99,202.22" fill="none" stroke="rgb(47, 41, 41)" stroke-width="17.00" stroke-opacity="1.00" stroke-linejoin="round"/>
<path d="M155.78,205.19 C155.78,205.19 155.04,205.19 155.04,205.19 C156.09,205.21 157.03,205.86 157.62,207.38 C158.60,209.97 158.78,216.60 158.36,218.36 C158.02,219.73 156.82,222.37 155.92,223.94 C155.14,225.17 153.54,226.30 151.93,226.67 C151.02,226.85 147.46,226.41 146.55,226.03 C145.44,225.55 143.88,224.25 141.81,222.21 C140.11,220.44 139.16,218.77 138.91,216.81 C138.50,213.23 139.97,208.07 141.48,206.27 C142.87,204.67 146.97,201.94 149.30,201.93 C149.68,201.93 150.59,202.28 151.01,202.22" fill="none" stroke="rgb(47, 41, 41)" stroke-width="17.00" stroke-opacity="1.00" stroke-linejoin="round"/>
<path d="M267.41,207.41 C266.85,208.09 266.18,209.25 265.97,210.20 C265.39,212.83 267.42,216.89 267.81,216.93 C268.95,217.45 269.89,210.76 268.55,210.33 C265.67,211.12 266.95,217.34 267.26,218.17 C268.77,217.26 268.56,214.93 268.27,214.08 C266.50,216.82 267.23,220.17 267.43,220.39 C267.43,220.39 267.95,215.88 267.95,215.88 C267.95,215.88 268.56,221.24 268.56,221.24 C268.56,221.24 268.58,215.57 268.58,215.57" fill="none" stroke="rgb(47, 41, 41)" stroke-width="17.00" stroke-opacity="1.00" stroke-linejoin="round"/>
<path d="M150.59,207.41 C151.15,208.09 151.82,209.25 152.03,210.20 C152.61,212.83 150.58,216.89 150.19,216.93 C149.05,217.45 148.11,210.76 149.45,210.33 C152.33,211.12 151.05,217.34 150.74,218.17 C149.23,217.26 149.44,214.93 149.73,214.08 C151.50,216.82 150.77,220.17 150.57,220.39 C150.57,220.39 150.05,215.88 150.05,215.88 C150.05,215.88 149.44,221.24 149.44,221.24 C149.44,221.24 149.42,215.57 149.42,215.57" fill="none" stroke="rgb(47, 41, 41)" stroke-width="17.00" stroke-opacity="1.00" stroke-linejoin="round"/>
<path d="M266.67,206.67 C266.67,206.67 264.44,206.67 264.44,206.67 C265.05,205.84 265.46,205.33 265.66,205.14 C265.86,204.94 266.13,204.80 266.47,204.71 C266.26,205.33 266.05,205.73 265.83,205.91 C265.61,206.10 265.09,206.32 264.25,206.59 C264.25,206.59 264.37,206.11 264.37,206.11" fill="none" stroke="rgb(47, 41, 41)" stroke-width="17.00" stroke-opacity="1.00" stroke-linejoin="round"/>
<path d="M151.33,206.67 C151.33,206.67 153.56,206.67 153.56,206.67 C152.95,205.84 152.54,205.33 152.34,205.14 C152.14,204.94 151.87,204.80 151.53,204.71 C151.74,205.33 151.95,205.73 152.17,205.91 C152.39,206.10 152.91,206.32 153.75,206.59 C153.75,206.59 153.63,206.11 153.63,206.11" fill="none" stroke="rgb(47, 41, 41)" stroke-width="17.00" stroke-opacity="1.00" stroke-linejoin="round"/>
<path d="M263.70,206.67 C263.70,206.67 262.96,206.67 262.96,206.67 C263.82,206.23 264.35,205.95 264.56,205.81 C264.77,205.67 264.95,205.49 265.11,205.26" fill="none" stroke="rgb(47, 41, 41)" stroke-width="17.00" stroke-opacity="1.00" stroke-linejoin="round"/>
<path d="M154.30,206.67 C154.30,206.67 155.04,206.67 155.04,206.67 C154.40,206.35 153.60,205.89 153.23,205.60 C153.13,205.52 153.01,205.40 152.89,205.26" fill="none" stroke="rgb(47, 41, 41)" stroke-width="17.00" stroke-opacity="1.00" stroke-linejoin="round"/>
<path d="M264.44,208.15 C264.44,208.15 264.44,207.41 264.44,207.41 C264.44,207.04 264.58,205.25 266.09,204.63 C266.32,204.53 266.71,204.47 267.24,204.44" fill="none" stroke="rgb(47, 41, 41)" stroke-width="17.00" stroke-opacity="1.00" stroke-linejoin="round"/>
<path d="M153.56,208.15 C153.56,208.15 153.56,207.41 153.56,207.41 C153.56,207.04 153.42,205.25 151.91,204.63 C151.68,204.53 151.29,204.47 150.76,204.44" fill="none" stroke="rgb(47, 41, 41)" stroke-width="17.00" stroke-opacity="1.00" stroke-linejoin="round"/>
<path d="M263.70,206.67 C263.70,206.67 262.22,205.93 262.22,205.93 C262.22,205.93 262.96,205.19 262.96,205.19 C263.34,204.33 264.99,202.82 266.37,202.22 C266.69,202.08 267.00,202.08 267.29,202.22" fill="none" stroke="rgb(47, 41, 41)" stroke-width="17.00" stroke-opacity="1.00" stroke-linejoin="round"/>
<path d="M154.30,206.67 C154.30,206.67 155.78,205.93 155.78,205.93 C155.78,205.93 155.04,205.19 155.04,205.19 C154.66,204.33 153.01,202.82 151.63,202.22 C151.31,202.08 151.00,202.08 150.71,202.22" fill="none" stroke="rgb(47, 41, 41)" stroke-width="17.00" stroke-opacity="1.00" stroke-linejoin="round"/>
<path d="M265.19,208.89" fill="none" stroke="rgb(255, 255, 255)" stroke-width="17.00" stroke-opacity="1.00" stroke-linejoin="round"/>
<path d="M265.93,208.15 C265.93,208.15 265.19,208.89 265.19,208.89 C265.19,208.89 265.26,210.37 265.26,210.37 C265.26,210.37 264.98,211.85 264.98,211.85" fill="none" stroke="rgb(255, 255, 255)" stroke-width="17.00" stroke-opacity="1.00" stroke-linejoin="round"/>
<path d="M143.70,209.63 C143.70,209.63 143.70,208.89 143.70,208.89 C143.70,208.89 144.41,208.78 144.41,208.78" fill="none" stroke="rgb(255, 255, 255)" stroke-width="17.00" stroke-opacity="1.00" stroke-linejoin="round"/>
<path d="M143.70,208.89 C143.70,208.89 144.44,209.63 144.44,209.63 C144.44,209.63 145.19,208.44 145.19,208.44 C144.75,208.62 144.51,208.78 144.45,208.93 C144.40,209.08 144.47,209.43 144.65,209.97 C144.65,209.97 145.78,209.10 145.78,209.10" fill="none" stroke="rgb(255, 255, 255)" stroke-width="17.00" stroke-opacity="1.00" stroke-linejoin="round"/>
<path d="M144.44,209.63 C144.44,209.63 143.70,209.63 143.70,209.63 C143.70,209.63 143.88,211.11 143.88,211.11 C143.88,211.11 145.05,210.54 145.05,210.54 C145.05,210.54 144.24,209.64 144.24,209.64 C144.24,209.64 144.07,210.93 144.07,210.93 C144.07,210.93 144.96,209.31 144.96,209.31 C144.96,209.31 144.53,210.48 144.53,210.48" fill="none" stroke="rgb(255, 255, 255)" stroke-width="17.00" stroke-opacity="1.00" stroke-linejoin="round"/>
</g>
</svg>
