<?xml version="1.0" encoding="UTF-8" standalone="no"?>
<svg
   width="96.00"
   height="96.00"
   viewBox="0.00 0.00 400.00 400.00"
   version="1.1"
   id="svg20"
   sodipodi:docname="線画猫_デフォルメ_id.svg"
   inkscape:version="1.4.3 (0d15f75, 2025-12-25)"
   xmlns:inkscape="http://www.inkscape.org/namespaces/inkscape"
   xmlns:sodipodi="http://sodipodi.sourceforge.net/DTD/sodipodi-0.dtd"
   xmlns="http://www.w3.org/2000/svg"
   xmlns:svg="http://www.w3.org/2000/svg">
  <defs
     id="defs20" />
  <sodipodi:namedview
     id="namedview20"
     pagecolor="#ffffff"
     bordercolor="#000000"
     borderopacity="0.25"
     inkscape:showpageshadow="2"
     inkscape:pageopacity="0.0"
     inkscape:pagecheckerboard="0"
     inkscape:deskcolor="#d1d1d1"
     inkscape:zoom="8.40625"
     inkscape:cx="48"
     inkscape:cy="48"
     inkscape:window-width="1920"
     inkscape:window-height="1009"
     inkscape:window-x="2040"
     inkscape:window-y="68"
     inkscape:window-maximized="1"
     inkscape:current-layer="レイヤー_2" />
  <g
     stroke-linecap="round"
     id="レイヤー_2">
    <path
       id="maskpath"
       style="baseline-shift:baseline;display:inline;overflow:visible;opacity:1;vector-effect:none;fill:#1b1515;stroke-width:1.08104;stroke-linecap:butt;stroke-linejoin:round;enable-background:accumulate;stop-color:#000000;stop-opacity:1"
       d="m 46.777273,68.557093 a 8.1015594,8.1139272 0 0 0 -2.021875,0.343363 v -0.0088 a 8.1015594,8.1139272 0 0 0 -4.404167,3.310369 8.1015594,8.1139272 0 0 0 -0.01758,0.01761 8.1015594,8.1139272 0 0 0 -2.549319,4.763057 8.1015594,8.1139272 0 0 0 0.676889,4.683821 c 0.04101,2.038599 0.239626,4.376259 0.4747,7.333877 a 8.1023696,8.1147386 0 0 0 0.0087,0.07043 c 0.948289,10.664524 3.346422,25.76018 4.175608,30.05745 a 8.1023696,8.1147386 0 0 0 0,0.008 c 1.405024,7.21018 4.850579,18.90466 7.973216,27.14328 a 8.1023696,8.1147386 0 0 0 0.03516,0.0792 c 2.005983,5.11943 7.816129,18.70761 12.078497,26.34208 a 8.1023696,8.1147386 0 0 0 0.01758,0.0352 c 1.685586,2.98978 4.705507,7.32567 7.867724,11.7976 1.58111,2.23598 3.139163,4.40217 4.448123,6.16293 1.308959,1.76075 1.931113,2.71023 3.322905,4.16436 0.667354,0.69624 1.123259,1.11165 1.485637,1.39988 -0.15249,0.63621 -0.348445,1.30904 -0.668097,2.35952 a 8.1023696,8.1147386 0 0 0 0,0.0176 c -4.003463,13.29606 -7.105638,24.50323 -8.061121,33.79923 a 8.1023696,8.1147386 0 0 0 -0.0087,0.0264 c -0.842591,8.5117 -0.258825,20.42793 1.380148,29.77572 -9.350391,5.05246 -15.818991,9.1101 -25.466816,16.01479 a 8.1023696,8.1147386 0 0 0 -0.07032,0.0528 c -4.473362,3.27691 -8.782798,6.94743 -12.271893,10.19523 -3.473183,3.233 -5.599658,4.91108 -7.788608,8.53126 -0.992096,1.62178 -1.236632,2.87007 -1.39773,3.86502 a 8.1015594,8.1139272 0 0 0 6.698554,9.31482 8.1015594,8.1139272 0 0 0 8.73801,-4.79827 c 0.750213,-0.80822 2.683205,-3.07338 4.782171,-5.02718 3.046452,-2.83578 6.974711,-6.16585 10.777465,-8.95385 8.206925,-5.87195 13.465405,-9.26678 20.693437,-13.27669 0.1899,0.47755 0.375597,0.95612 0.571398,1.42628 -3.315886,1.99708 -6.297137,3.91483 -8.412752,5.46739 a 8.1023696,8.1147386 0 0 0 -0.03516,0.0264 c -4.322791,3.2065 -8.110203,6.77136 -10.803837,10.44176 a 8.1015594,8.1139272 0 0 0 -0.123071,0.13205 c -0.0084,0.0116 -0.02508,0.0327 -0.03516,0.0441 a 8.1015594,8.1139272 0 0 0 -0.0087,0.008 c -0.01084,0.0116 -0.02415,0.0236 -0.03516,0.0352 l -0.0087,0.008 a 8.1015594,8.1139272 0 0 0 -0.01758,0.0353 c -0.0079,0.0102 -0.01963,0.017 -0.02637,0.0264 -0.03015,0.0389 -0.06612,0.0879 -0.11428,0.15847 a 8.1023696,8.1147386 0 0 0 -0.04395,0.0704 8.1015594,8.1139272 0 0 0 0.826331,10.90836 8.1015594,8.1139272 0 0 0 11.445562,-0.39618 c 0.258344,-0.27722 0.64054,-0.69644 1.05489,-1.28541 l 0.05275,-0.0792 0.0087,-0.008 c 0.829306,-1.08624 4.483706,-4.83527 7.45456,-7.04333 1.008486,-0.73878 3.875742,-2.45199 7.349072,-4.45492 4.513014,5.56015 10.145024,11.03271 15.208016,14.77341 a 8.1023696,8.1147386 0 0 0 0.0352,0.0264 c 6.20339,4.53406 16.29801,9.90046 23.52405,12.82769 a 8.1023696,8.1147386 0 0 0 0.0527,0.0264 c 6.54355,2.60061 21.32688,6.47226 29.59848,8.54885 a 8.1023696,8.1147386 0 0 0 0.16702,0.0441 c 10.73041,2.45122 20.35579,4.23402 27.76999,5.41456 5.90741,0.94063 9.80263,1.53085 12.91362,1.72562 a 8.1015594,8.1139272 0 0 0 1.08126,0.0704 h 3.46356 1.16038 a 8.1015594,8.1139272 0 0 0 1.09005,-0.0704 c 3.11075,-0.19486 7.00713,-0.78514 12.91362,-1.72562 7.4142,-1.18054 17.03958,-2.96334 27.76999,-5.41456 a 8.1023696,8.1147386 0 0 0 0.16703,-0.0441 c 8.25612,-2.0755 23.05103,-5.94669 29.59847,-8.54885 a 8.1023696,8.1147386 0 0 0 0.0527,-0.0264 c 7.22605,-2.92723 17.32068,-8.29363 23.52405,-12.82769 a 8.1023696,8.1147386 0 0 0 0.044,-0.0353 c 5.0516,-3.73908 10.67803,-9.20829 15.19043,-14.7646 3.47233,2.003 6.33927,3.71142 7.34029,4.4461 3.00803,2.23362 6.71739,6.04687 7.48972,7.07857 l 0.008,0.008 c 0.0124,0.0165 0.0244,0.0378 0.0351,0.0528 0.4132,0.58749 0.79694,1.00863 1.05489,1.28542 a 8.1015594,8.1139272 0 0 0 11.44557,0.39618 8.1015594,8.1139272 0 0 0 0.82633,-10.90837 c -0.0349,-0.0524 -0.0442,-0.0597 -0.0703,-0.0968 a 8.1015594,8.1139272 0 0 0 -0.0879,-0.13206 c -0.0149,-0.0208 -0.0337,-0.0414 -0.0527,-0.0617 v -0.008 a 8.1015594,8.1139272 0 0 0 -0.0263,-0.0176 c -0.007,-0.008 -0.0109,-0.0188 -0.0176,-0.0264 -0.0139,-0.0152 -0.0326,-0.0285 -0.044,-0.0441 a 8.1015594,8.1139272 0 0 0 -0.11428,-0.13206 c -2.70278,-3.68236 -6.50426,-7.23944 -10.82141,-10.44175 a 8.1023696,8.1147386 0 0 0 -0.0176,-0.0176 c -2.1179,-1.55772 -5.10539,-3.48675 -8.42153,-5.485 0.19498,-0.46888 0.3817,-0.94053 0.57139,-1.41746 7.23358,4.00965 12.48021,7.39811 20.67586,13.26787 3.8096,2.78832 7.75379,6.12355 10.80384,8.96266 2.09727,1.95223 4.02376,4.20902 4.78217,5.02718 a 8.1015594,8.1139272 0 0 0 8.72922,4.79828 8.1015594,8.1139272 0 0 0 6.70734,-9.31482 c -0.16148,-0.99731 -0.39966,-2.24646 -1.39772,-3.87384 -2.17969,-3.58323 -4.31915,-5.28472 -7.79741,-8.52243 -3.48909,-3.24782 -7.7992,-6.91667 -12.28067,-10.19524 a 8.1023696,8.1147386 0 0 0 -0.0616,-0.0441 c -9.63585,-6.90334 -16.10314,-10.97275 -25.45803,-16.0236 1.63994,-9.34826 2.21405,-21.26306 1.37136,-29.77571 a 8.1023696,8.1147386 0 0 0 0,-0.0264 c -0.95549,-9.29599 -4.05765,-20.50316 -8.06112,-33.79922 a 8.1023696,8.1147386 0 0 0 0,-0.0176 c -0.31967,-1.05054 -0.5156,-1.72326 -0.66809,-2.35952 0.36242,-0.28823 0.81811,-0.70348 1.48563,-1.39987 1.39179,-1.45415 2.01397,-2.40339 3.32291,-4.16437 1.30894,-1.76098 2.86738,-3.92651 4.44811,-6.16292 3.16147,-4.47283 6.1788,-8.80543 7.86773,-11.81521 a 8.1023696,8.1147386 0 0 0 0.008,-0.0176 c 4.25911,-7.62865 10.07645,-21.19676 12.08729,-26.35969 a 8.1023696,8.1147386 0 0 0 0.0176,-0.0528 c 3.14004,-8.25375 6.56976,-19.95082 7.982,-27.13447 a 8.1023696,8.1147386 0 0 0 0.008,-0.0352 c 0.82919,-4.29727 3.22732,-19.384116 4.17561,-30.048641 a 8.1023696,8.1147386 0 0 0 0.008,-0.07043 c 0.2351,-2.95781 0.43372,-5.295183 0.4747,-7.333876 a 8.1015594,8.1139272 0 0 0 0.6769,-4.683821 8.1015594,8.1139272 0 0 0 -2.56691,-4.780666 8.1015594,8.1139272 0 0 0 -4.41295,-3.31037 8.1015594,8.1139272 0 0 0 -7.66554,1.672793 c -0.32155,0.03652 -0.6604,0.08039 -1.01094,0.123258 -4.32247,0.528499 -10.87994,1.550165 -20.49125,3.539278 a 8.1023696,8.1147386 0 0 0 -0.0176,0.0088 c -7.30926,1.5304 -22.47222,6.078278 -31.78737,9.217971 a 8.1023696,8.1147386 0 0 0 -0.13187,0.04402 c -7.3713,2.632712 -22.8054,8.258585 -29.28199,11.137278 a 8.1023696,8.1147386 0 0 0 -0.008,0 c -6.95874,3.1012 -19.20791,9.264076 -26.09974,13.910566 -1.28618,-0.58548 -1.31237,-0.48098 -1.73179,-0.59867 -0.42589,-0.11953 -0.87115,-0.24313 -1.38014,-0.36978 -1.01798,-0.2533 -2.26165,-0.5401 -3.59542,-0.8364 -2.66754,-0.59259 -5.58195,-1.19922 -7.81498,-1.54072 a 8.1023696,8.1147386 0 0 0 -0.0527,-0.008 c -2.79532,-0.4099 -7.37531,-0.70967 -12.43892,-1.06531 -2.81669,-0.19781 -5.61747,-0.37742 -7.8062,-0.51945 a 8.1015594,8.1139272 0 0 0 -0.87907,-0.17608 c -1.57271,-0.22501 -1.58234,-0.0907 -1.98671,-0.0704 a 8.1023696,8.1147386 0 0 0 -0.11427,0 c -0.11248,0.007 -0.24572,0.0169 -0.3956,0.0264 -0.15252,-0.0102 -0.28995,-0.0192 -0.40436,-0.0264 a 8.1023696,8.1147386 0 0 0 -0.0879,0 c -0.41383,-0.0218 -0.43159,-0.15463 -2.0043,0.0704 a 8.1015594,8.1139272 0 0 0 -0.87908,0.17608 c -2.18771,0.14206 -4.97969,0.32157 -7.79739,0.51945 -5.0634,0.35562 -9.65585,0.65718 -12.44771,1.06531 a 8.1023696,8.1147386 0 0 0 -0.0616,0.008 c -2.22616,0.34146 -5.14047,0.94822 -7.80619,1.54072 -1.33288,0.29626 -2.56897,0.58313 -3.58663,0.8364 -0.50883,0.12663 -0.95433,0.25026 -1.38015,0.36978 -0.41833,0.11739 -0.45449,0.0177 -1.73177,0.59867 -6.89292,-4.64634 -19.14404,-10.807846 -26.11734,-13.910566 -6.47682,-2.884389 -21.9019,-8.504566 -29.27322,-11.137278 a 8.1023696,8.1147386 0 0 0 -0.14065,-0.04402 C 96.407328,80.315994 81.260597,75.766572 73.949494,74.235785 a 8.1023696,8.1147386 0 0 0 -0.02637,-0.0088 c -9.61622,-1.988982 -16.170371,-3.01079 -20.491248,-3.53927 -0.348764,-0.04265 -0.68209,-0.08688 -1.002147,-0.123258 a 8.1015594,8.1139272 0 0 0 -5.652453,-2.007352 z m 8.280889,18.726479 c 2.12027,0.315201 4.683786,0.740845 7.744656,1.303018 a 8.1015594,8.1139272 0 0 0 6.540321,7.589204 c -0.113551,-0.0222 -0.186027,-0.0354 -0.210978,-0.0352 h -0.0087 v 0.008 h 0.0087 c 0.10342,0.0665 1.356701,0.4516 2.646017,1.01247 1.650323,0.71795 3.795498,1.72987 6.091992,2.852556 4.549181,2.22396 9.718287,4.89721 13.625674,6.92889 6.254414,3.43962 21.706386,12.83218 23.225176,13.88418 5.78128,4.04815 17.17332,14.59108 21.01869,19.2283 1.71949,2.08115 5.23244,6.8183 4.97557,6.41825 a 8.1023696,8.1147386 0 0 0 0.0176,0.0176 c 0.0794,0.11564 0.58963,0.90059 1.30983,2.02498 a 8.1015594,8.1139272 0 0 0 11.19942,2.44754 8.1015594,8.1139272 0 0 0 2.44383,-11.21651 c -0.73332,-1.14488 -1.1833,-1.83325 -1.57355,-2.40353 -1.42744,-2.11257 -3.70071,-4.99251 -5.89859,-7.65083 a 8.1023696,8.1147386 0 0 0 -0.008,-0.008 c -5.62291,-6.78076 -16.08095,-16.43226 -23.97239,-22.00163 1.8327,0.72398 3.34009,1.33981 4.32505,1.77845 6.10167,2.7149 21.62886,11.05028 24.57895,13.18865 a 8.1023696,8.1147386 0 0 0 0,0.008 c 0.56042,0.40591 0.65862,0.50298 1.19554,1.20617 a 8.1015594,8.1139272 0 0 0 11.35765,1.51432 8.1015594,8.1139272 0 0 0 1.74057,-1.82246 c 0.0124,-0.005 0.0216,-0.0118 0.0351,-0.0176 -0.0117,0.003 -0.0241,0.005 -0.0351,0.008 a 8.1015594,8.1139272 0 0 0 0.22856,-0.37857 8.1023696,8.1147386 0 0 0 1.65267,-0.93324 c -0.46277,0.38422 -0.8516,0.8559 -1.38894,1.10052 -0.19666,0.0896 -0.34641,0.15495 -0.45713,0.20249 0.18765,-0.0509 0.47129,-0.12731 0.80876,-0.2113 0.82038,-0.20416 1.97125,-0.46647 3.19983,-0.73954 2.4449,-0.54343 5.32792,-1.1253 6.70735,-1.33824 0.70341,-0.10153 6.24723,-0.5836 11.22579,-0.93325 3.95135,-0.2775 7.83154,-0.52774 10.03905,-0.66911 2.23659,0.14287 6.1298,0.39395 10.04783,0.66911 4.97555,0.34944 10.50508,0.83305 11.19942,0.93325 1.38017,0.21193 4.28335,0.79388 6.73371,1.33824 1.22903,0.27303 2.37067,0.53541 3.19106,0.73954 0.33863,0.0841 0.62945,0.16035 0.81753,0.2113 -0.11053,-0.0474 -0.25898,-0.11235 -0.45711,-0.20249 -0.53734,-0.24462 -0.92617,-0.7163 -1.38894,-1.10052 a 8.1023696,8.1147386 0 0 0 1.65266,0.93324 8.1015594,8.1139272 0 0 0 0.22855,0.37857 c -0.0108,-0.003 -0.024,-0.005 -0.0352,-0.008 0.0129,0.005 0.0233,0.0126 0.0352,0.0176 a 8.1015594,8.1139272 0 0 0 1.78453,1.85768 8.1015594,8.1139272 0 0 0 11.34008,-1.58475 c 0.50959,-0.67607 0.58437,-0.75245 1.14279,-1.15334 a 8.1023696,8.1147386 0 0 0 0.0264,-0.0264 c 2.94935,-2.13784 18.4616,-10.46955 24.56137,-13.18864 0.99238,-0.4411 2.50881,-1.05993 4.35142,-1.78725 -7.89261,5.56826 -18.35589,15.2356 -23.98118,22.01924 a 8.1023696,8.1147386 0 0 0 -0.008,0.008 c -2.19789,2.65833 -4.47116,5.52946 -5.89859,7.64202 h -0.008 c -0.39024,0.57029 -0.83143,1.25868 -1.56476,2.40355 a 8.1015594,8.1139272 0 0 0 2.44384,11.21651 8.1015594,8.1139272 0 0 0 11.19063,-2.44756 c 0.72019,-1.12437 1.23922,-1.90933 1.3186,-2.02496 a 8.1023696,8.1147386 0 0 0 0.0176,-0.0176 c -0.25687,0.40005 3.25608,-4.33709 4.97556,-6.41824 l 0.008,-0.008 c 3.85022,-4.64031 15.23113,-15.1731 21.00991,-19.21951 1.51878,-1.05199 16.97076,-10.44456 23.22517,-13.88418 3.90738,-2.03166 9.07648,-4.70492 13.62567,-6.92888 2.29648,-1.122686 4.43287,-2.134606 6.0832,-2.852556 1.28932,-0.56087 2.55083,-0.94588 2.6548,-1.01247 h 0.008 v -0.008 h -0.008 -0.008 -0.008 c -0.0304,0.002 -0.0925,0.0155 -0.1934,0.0353 a 8.1015594,8.1139272 0 0 0 6.54033,-7.589203 c 3.05989,-0.562054 5.62395,-0.987805 7.74465,-1.303018 -0.0102,0.128385 -0.016,0.255894 -0.0264,0.387384 -0.84767,9.500897 -3.41392,25.592233 -3.94704,28.358233 -2.9e-4,0.001 0,0.0161 0,0.0176 -1.05462,5.3502 -4.54116,17.4246 -7.20842,24.44039 -1.56633,4.01573 -7.92059,18.56275 -11.11152,24.28192 -0.61258,1.09141 -3.93527,6.09389 -6.97106,10.38892 -1.51812,2.14782 -3.02007,4.23225 -4.21957,5.84598 -1.04306,1.40328 -1.81688,2.31363 -1.75815,2.28908 -0.23259,0.20359 -0.59968,0.5287 -0.90545,0.74835 -0.67156,0.48236 -1.49355,1.03661 -1.85484,1.26781 -0.37517,0.23482 -1.88702,0.67765 0.14065,0.0528 a 8.1015594,8.1139272 0 0 0 -5.35358,10.14241 8.1015594,8.1139272 0 0 0 1.89002,3.22232 c 0.30547,1.46203 0.67533,2.88374 1.20434,4.62219 3.92075,13.02291 6.72815,23.85889 7.43697,30.74418 0.43286,4.40917 -0.0488,13.4184 -0.81754,20.68981 -3.03334,-1.29551 -5.86743,-2.42418 -8.36001,-3.3808 -2.89373,-1.11058 -5.3281,-1.98783 -7.09413,-2.59724 -0.883,-0.3047 -1.5981,-0.54029 -2.12736,-0.71314 -0.50249,-0.1641 -0.24077,-0.12247 -1.26587,-0.38738 -0.85824,-0.2319 -1.47647,-0.3556 -2.4702,-0.55466 a 8.1015594,8.1139272 0 0 0 -9.53798,6.36542 8.1015594,8.1139272 0 0 0 6.35572,9.55253 c 0.56557,0.11329 1.04462,0.21822 1.29224,0.27293 0.18277,0.0513 0.43976,0.1216 0.60657,0.17609 0.43247,0.14124 1.0703,0.3571 1.87242,0.63388 1.60422,0.5536 3.87374,1.36664 6.57549,2.40355 2.99628,1.14995 6.52139,2.57736 10.2676,4.2348 -0.0989,0.25261 -0.1917,0.50657 -0.29009,0.75717 -2.34237,-1.18464 -4.45248,-2.17776 -6.10958,-2.86136 a 8.1023696,8.1147386 0 0 0 -0.0879,-0.0352 c -0.72948,-0.29122 -1.96816,-0.7944 -3.12071,-1.2502 -0.57629,-0.2279 -1.12963,-0.44451 -1.63509,-0.63388 -0.50423,-0.18894 -0.56989,-0.28638 -1.8021,-0.5899 -1.2769,-0.31802 -2.0418,-0.40267 -3.48993,-0.61628 a 8.1015594,8.1139272 0 0 0 -9.19512,6.84965 8.1015594,8.1139272 0 0 0 6.83041,9.20916 c 1.19808,0.17673 1.89653,0.31539 1.75815,0.27293 0.0831,0.0254 0.14115,0.041 0.21976,0.0704 0.34182,0.12807 0.83434,0.31934 1.36258,0.52825 1.02959,0.40717 2.18433,0.87233 2.99764,1.19737 0.47803,0.19759 1.67252,0.80704 3.29653,1.6728 -3.62544,4.08926 -7.76317,8.44032 -9.88961,10.01914 -3.95584,2.88635 -14.66148,8.70955 -19.99016,10.87316 -2.98338,1.18391 -19.61815,5.89174 -27.47991,7.87093 -10.29932,2.34984 -19.57737,4.07473 -26.60961,5.19446 -7.05789,1.12382 -12.83341,1.59269 -12.57078,1.59356 h -0.0264 -2.37351 c 0.1974,-0.005 -5.5505,-0.47573 -12.57077,-1.59356 -7.0361,-1.12033 -16.3211,-2.85143 -26.6272,-5.20327 -7.8714,-1.97938 -24.47617,-6.67711 -27.46232,-7.86212 -5.33006,-2.16419 -16.04562,-7.98759 -19.99896,-10.87316 -2.12649,-1.57568 -6.25673,-5.92285 -9.88081,-10.01035 1.62949,-0.86844 2.82772,-1.48444 3.30532,-1.68159 0.79072,-0.31806 1.94796,-0.78971 2.98006,-1.19737 0.52777,-0.20846 1.01992,-0.40012 1.36258,-0.52825 0.0802,-0.03 0.13528,-0.0446 0.21977,-0.0704 -0.13762,0.0423 0.56666,-0.0957 1.75814,-0.27293 a 8.1015594,8.1139272 0 0 0 6.83042,-9.21797 8.1015594,8.1139272 0 0 0 -9.20391,-6.84084 c -1.43208,0.2129 -2.19859,0.29932 -3.47236,0.61628 -1.22691,0.3022 -1.29703,0.40103 -1.80211,0.5899 -0.50631,0.18932 -1.06578,0.40555 -1.64387,0.63388 -1.15617,0.45668 -2.386322,0.96023 -3.129492,1.25901 a 8.1023696,8.1147386 0 0 0 -0.0703,0.0264 c -1.65657,0.68338 -3.7673,1.67647 -6.109569,2.86135 -0.09896,-0.25202 -0.199509,-0.5031 -0.298889,-0.75716 3.743008,-1.65563 7.272928,-3.08576 10.26761,-4.2348 2.70256,-1.03698 4.9708,-1.84965 6.57548,-2.40355 0.80233,-0.27695 1.44773,-0.4921 1.88122,-0.63389 0.16124,-0.0528 0.39477,-0.11643 0.5714,-0.16729 0.2552,-0.0566 0.74023,-0.16411 1.3274,-0.28173 a 8.1015594,8.1139272 0 0 0 6.34693,-9.55252 8.1015594,8.1139272 0 0 0 -9.52917,-6.36542 c -1.0062,0.20155 -1.6465,0.33317 -2.45263,0.54586 h -0.008 c -1.14312,0.29882 -0.76729,0.22448 -1.29223,0.39618 -0.52677,0.17229 -1.2363,0.40859 -2.11858,0.71314 -1.76457,0.60909 -4.199872,1.48672 -7.094142,2.59723 -2.490916,0.95576 -5.320053,2.0867 -8.351215,3.38081 -0.768455,-7.27081 -1.250334,-16.28134 -0.817545,-20.68982 0.70872,-6.88439 3.517019,-17.72351 7.43698,-30.74418 0.52789,-1.73513 0.89947,-3.15363 1.20434,-4.61338 a 8.1015594,8.1139272 0 0 0 1.89001,-3.23112 8.1015594,8.1139272 0 0 0 -5.353578,-10.14242 c 2.027678,0.62486 0.515825,0.18203 0.140664,-0.0528 h -0.0082 c -0.362912,-0.2324 -1.185219,-0.78681 -1.854848,-1.26781 -0.306134,-0.2199 -0.672965,-0.55364 -0.905447,-0.75715 0.05741,0.0231 -0.706573,-0.87755 -1.749367,-2.28028 -1.199819,-1.61394 -2.709261,-3.69772 -4.228349,-5.84597 -3.034056,-4.2907 -6.338573,-9.26946 -6.971069,-10.38893 -3.187665,-5.71335 -9.527756,-20.24067 -11.120304,-24.29952 -2.665507,-7.04282 -6.165246,-19.13223 -7.199628,-24.44039 -0.533433,-2.7681 -3.090653,-18.858186 -3.938259,-28.358235 -0.01037,-0.131372 -0.01685,-0.25911 -0.02637,-0.387384 z m 116.582988,31.281218 0.37801,0.23771 c -0.23742,0.71335 -0.77037,1.62254 -1.49443,2.47398 a 8.1015594,8.1139272 0 0 0 1.11642,-2.71169 z m 55.61911,0 a 8.1015594,8.1139272 0 0 0 1.11643,2.71169 c -0.72405,-0.85144 -1.25701,-1.76063 -1.49443,-2.47398 z m -89.46351,78.33954 c -0.17472,-0.002 -0.361,0.005 -0.55381,0.0176 -0.76249,0.0483 -1.64954,0.20423 -2.70756,0.51063 a 8.1023696,8.1147386 0 0 0 -0.28131,0.0881 c -4.04877,1.33454 -4.15415,2.51996 -5.18653,3.70656 -1.03239,1.1866 -1.92141,2.18278 -2.78667,4.50775 a 8.1023696,8.1147386 0 0 0 -0.0703,0.18487 c -0.83229,2.41523 -0.7648,3.55255 -0.84391,5.12403 -0.0791,1.57148 -0.15592,2.90326 0.24615,5.00959 a 8.1023696,8.1147386 0 0 0 0.044,0.2377 c 0.49332,2.2233 1.20561,3.55517 2.03067,5.00958 0.82506,1.45441 1.29628,2.64934 3.65696,4.52535 a 8.1023696,8.1147386 0 0 0 0.24613,0.19369 c 2.56731,1.88204 4.3226,2.06137 6.20627,2.26267 1.88368,0.20131 3.68509,0.43132 6.67218,-0.96845 a 8.1023696,8.1147386 0 0 0 0.29011,-0.14968 c 2.85629,-1.4833 3.49526,-2.61135 4.61514,-3.94427 1.11989,-1.3329 2.09504,-2.51725 3.02402,-4.76305 a 8.1023696,8.1147386 0 0 0 0.0616,-0.16729 c 0.88793,-2.28912 0.98446,-3.79699 1.09884,-5.51142 0.11439,-1.71443 0.2773,-3.08657 -0.39558,-5.64347 a 8.1023696,8.1147386 0 0 0 -0.044,-0.15847 c -0.71054,-2.49068 -1.22238,-2.92558 -1.83727,-3.94428 -0.30743,-0.50935 -0.61132,-0.97926 -0.97577,-1.48789 -0.18222,-0.25432 -0.37136,-0.51402 -0.66809,-0.86282 -0.29674,-0.34879 -0.36618,-0.72238 -1.9955,-1.76083 a 8.1023696,8.1147386 0 0 0 -0.72964,-0.4138 c -2.8298,-1.41706 -3.63128,-0.98607 -4.59756,-0.98607 a 8.1015594,8.1139272 0 0 0 -0.26373,0.11447 c -0.46216,-0.0544 -0.97101,-0.003 -1.45048,-0.0176 -0.77983,-0.35345 -1.58121,-0.69859 -2.80425,-0.71313 z m 123.30791,0 c -1.22302,0.0145 -2.0332,0.35969 -2.81303,0.71314 -0.47953,0.0143 -0.97917,-0.0367 -1.44168,0.0176 a 8.1015594,8.1139272 0 0 0 -0.26373,-0.11445 c -0.96629,0 -1.76777,-0.43099 -4.59756,0.98606 a 8.1023696,8.1147386 0 0 0 -0.72964,0.41381 c -1.62933,1.03843 -1.69876,1.41204 -1.9955,1.76083 -0.29672,0.3488 -0.48587,0.60848 -0.66809,0.86281 -0.36445,0.50864 -0.66834,0.97855 -0.97578,1.4879 -0.61489,1.0187 -1.13552,1.45359 -1.84607,3.94428 a 8.1023696,8.1147386 0 0 0 -0.044,0.15847 c -0.67288,2.5569 -0.50117,3.92904 -0.38679,5.64347 0.11439,1.71443 0.2109,3.2223 1.09884,5.51141 a 8.1023696,8.1147386 0 0 0 0.0616,0.16729 c 0.92898,2.24581 1.90413,3.43016 3.02401,4.76306 1.11989,1.33291 1.75885,2.46097 4.61515,3.94426 a 8.1023696,8.1147386 0 0 0 0.26372,0.13207 c 3.01859,1.42762 4.80609,1.18738 6.68976,0.98607 1.88369,-0.2013 3.63598,-0.36571 6.23265,-2.28909 a 8.1023696,8.1147386 0 0 0 0.18461,-0.14087 c 2.38553,-1.87538 2.87006,-3.08714 3.70091,-4.55175 0.83085,-1.46462 1.54512,-2.80355 2.03066,-5.0624 a 8.1023696,8.1147386 0 0 0 0.0264,-0.13206 c 0.85677,-4.3222 1.01891,-5.41472 -0.56261,-10.12481 a 8.1023696,8.1147386 0 0 0 -0.0879,-0.24651 c -0.8728,-2.3452 -1.76551,-3.33555 -2.79546,-4.51655 -1.02997,-1.18098 -1.10397,-2.33774 -5.15138,-3.68894 a 8.1023696,8.1147386 0 0 0 -0.30768,-0.0968 c -1.05802,-0.3064 -1.94506,-0.46238 -2.70755,-0.51063 -0.19282,-0.0122 -0.3791,-0.0197 -0.55383,-0.0176 z m 0.78239,14.64135 c -0.0202,0.0538 -0.043,0.0942 -0.0616,0.11445 l -0.008,0.008 -0.008,0.008 h -0.008 l -0.008,0.008 h -0.008 -0.008 l -0.008,-0.008 h -0.008 l -0.008,-0.008 h -0.008 v -0.008 h -0.008 c -0.007,0.007 -0.14182,0.14724 -0.15823,0.17608 a 8.1015594,8.1139272 0 0 0 0.0352,-0.16727 8.1015594,8.1139272 0 0 0 0.28132,-0.12326 z m -124.87267,0.008 a 8.1015594,8.1139272 0 0 0 0.2813,0.11444 8.1015594,8.1139272 0 0 0 0.0352,0.18489 c -0.0177,-0.03 -0.15278,-0.17195 -0.15825,-0.17608 h -0.008 v 0.008 h -0.008 v 0.008 h -0.008 -0.008 -0.008 -0.008 -0.008 -0.008 l -0.008,-0.008 -0.008,-0.008 -0.008,-0.008 c -0.0189,-0.0226 -0.0407,-0.0575 -0.0616,-0.11446 z m 123.21121,0.67792 c 0.0298,0.007 0.0901,0.0343 0.12307,0.0441 -0.11818,0.0896 -0.12242,0.12481 -0.15824,0.16728 -0.0316,0.0323 -0.0916,0.0799 -0.22855,0.16727 l -0.49228,0.28174 c -0.2744,-0.093 -0.18636,-0.0983 -0.39559,-0.17608 a 8.1015594,8.1139272 0 0 0 1.15159,-0.48423 z m -121.55856,0.008 a 8.1015594,8.1139272 0 0 0 1.15159,0.47543 c -0.20416,0.0758 -0.12816,0.0772 -0.39557,0.16728 l -0.4835,-0.27293 c -0.13698,-0.0873 -0.20567,-0.14382 -0.23735,-0.17609 -0.0357,-0.0424 -0.0312,-0.069 -0.14945,-0.15847 0.0332,-0.0102 0.0843,-0.0276 0.11428,-0.0352 z m 62.33524,50.90574 c -2.1e-4,-3e-5 -2.70734,0.13203 -2.70755,0.13207 -2e-5,1e-5 -0.0471,0.0192 -0.13186,0.0528 -0.55836,-0.0422 -0.95815,-0.0793 -0.95818,-0.0792 -1.4e-4,4e-5 -3.24366,1.47899 -3.24379,1.4791 -1.4e-4,10e-5 -1.48551,1.47892 -1.48565,1.4791 -2.7e-4,3.5e-4 -0.86039,1.32768 -1.0285,1.70802 -0.33624,0.76065 -0.38506,1.06711 -0.44834,1.32062 a 8.1015594,8.1139272 0 0 0 0.008,0.0528 c -0.64564,2.29504 -2.91151,5.04961 -2.97127,5.42337 v 0.008 l 0.008,0.008 v 0.008 l 0.008,0.008 c -0.42184,0.15089 -1.14466,0.42504 -1.84606,0.54586 -1.01837,0.17544 -2.1238,0.15533 -2.45261,0.16728 -0.16742,-0.12256 -1.20565,-0.5803 -2.00429,-1.18856 -0.59955,-0.45663 -1.06918,-1.12747 -1.19555,-1.23258 l -0.008,-0.008 h -0.008 -0.008 c -0.13738,-0.40295 -0.27616,-0.81849 -0.36042,-1.13575 -0.0471,-0.17742 -0.0819,-0.33219 -0.0967,-0.39618 a 8.1015594,8.1139272 0 0 0 0,-0.008 c -0.003,-0.0169 -5.7e-4,-0.0187 0,-0.0176 a 8.1015594,8.1139272 0 0 0 -2.69877,-5.21207 8.1015594,8.1139272 0 0 0 -11.42797,0.81879 c -2.10681,2.43465 -1.85656,3.69279 -1.94277,4.44611 -0.0862,0.75332 -0.0615,1.1462 -0.044,1.4703 0.035,0.6482 0.1007,0.97518 0.15824,1.30301 0.11499,0.65566 0.23958,1.18234 0.39559,1.76964 0.31202,1.17459 0.71382,2.46576 1.25708,3.82982 a 8.1023696,8.1147386 0 0 0 0.0264,0.0617 c 1.76942,4.34385 3.84313,5.47529 6.14475,7.22823 2.30159,1.75292 4.5247,3.31288 8.18418,4.15556 a 8.1023696,8.1147386 0 0 0 0.1934,0.0441 c 3.33059,0.68176 5.94004,0.36844 8.64132,-0.0968 2.70128,-0.46533 4.99046,-0.83712 8.04353,-2.84375 a 8.1023696,8.1147386 0 0 0 0.17582,-0.11444 c 0.81947,-0.5702 1.57382,-1.1701 2.26801,-1.79606 0.69971,0.62979 1.45729,1.23155 2.2856,1.80486 a 8.1023696,8.1147386 0 0 0 0.16703,0.10559 c 3.05306,2.00663 5.34225,2.37842 8.04354,2.84375 2.70127,0.46534 5.31072,0.77866 8.64131,0.0968 a 8.1023696,8.1147386 0 0 0 0.19339,-0.0441 c 3.65949,-0.84268 5.8826,-2.40264 8.18419,-4.15556 2.30162,-1.75294 4.37533,-2.88438 6.14474,-7.22823 a 8.1023696,8.1147386 0 0 0 0.0351,-0.0968 c 0.52569,-1.33878 0.92749,-2.62001 1.2395,-3.7946 0.15601,-0.5873 0.28795,-1.11417 0.40437,-1.78724 0.0582,-0.33653 0.11874,-0.67403 0.14944,-1.35585 0.0154,-0.34091 0.0443,-0.75663 -0.0616,-1.54953 -0.10586,-0.7929 0.0579,-2.17162 -2.12737,-4.51654 a 8.1015594,8.1139272 0 0 0 -11.45434,-0.39619 8.1015594,8.1139272 0 0 0 -2.49658,5.14164 c -0.0173,0.0762 -0.04,0.17645 -0.0703,0.29053 -0.0866,0.32633 -0.22402,0.75758 -0.3692,1.17976 h -0.008 v -0.008 h -0.008 -0.008 l -0.008,0.008 c -0.11783,0.0894 -0.56732,0.739 -1.16917,1.19737 -0.79894,0.60848 -1.83688,1.0662 -2.0043,1.18856 -0.32781,-0.012 -1.43394,0.008 -2.45262,-0.16727 -0.70876,-0.1221 -1.43565,-0.39623 -1.85485,-0.54587 l 0.008,-0.008 0.008,-0.008 v -0.008 -0.008 c -0.0232,-0.32442 -2.13105,-2.87071 -2.88338,-5.11523 a 8.1015594,8.1139272 0 0 0 -0.68566,-2.02496 c -0.16742,-0.33534 -0.36891,-0.77301 -1.01094,-1.54954 -0.32101,-0.38826 -1.53791,-1.43472 -1.53839,-1.43506 -5e-4,-3.5e-4 -3.73563,-1.44384 -3.73608,-1.44389 z m -10.00387,6.23336 a 8.1015594,8.1139272 0 0 0 0.15823,4.28764 c -0.0618,-0.18124 -0.11651,-0.35478 -0.14066,-0.44902 -0.0698,-0.27251 -0.11321,-0.46716 -0.14065,-0.62509 -0.21939,-1.26343 -0.11427,-1.15657 -0.11427,-1.34705 0,-0.38094 -0.25811,0.11838 0.23735,-1.86648 z m 17.02768,0.51944 c 0.15791,0.68301 0.0992,0.63928 0.0967,0.93324 a 8.1015594,8.1139272 0 0 0 -0.0967,-0.93324 z m 0.0967,1.0389 c 0.0102,0.26186 0.27907,0.10462 -0.21097,2.15702 -0.0321,0.13433 -0.0898,0.31722 -0.14944,0.50184 a 8.1015594,8.1139272 0 0 0 0.36041,-2.65886 z m -28.00733,0.97726 c 0.008,0.0864 0.0178,0.0447 0.0264,0.20249 0.0129,0.23885 0.036,0.55979 -0.044,1.259 -0.08,0.69922 0.18166,1.9173 -1.90759,4.33166 a 8.1015594,8.1139272 0 0 0 1.92517,-5.79315 z m 38.63536,0.29053 a 8.1015594,8.1139272 0 0 0 0.0351,0.97727 c -0.0423,-0.46193 -0.0445,-0.77516 -0.0351,-0.97727 z m 0.044,1.08292 a 8.1015594,8.1139272 0 0 0 2.101,4.64861 c -2.16635,-2.32462 -1.98475,-3.67211 -2.08341,-4.41089 -0.0137,-0.10311 -0.008,-0.14923 -0.0176,-0.23772 z m -11.14667,0.6515 c -0.0108,0.0382 -0.0148,0.0784 -0.0351,0.13207 -0.0394,0.10429 -0.11524,0.26626 -0.2022,0.44021 a 8.1015594,8.1139272 0 0 0 0.23736,-0.57228 z m -16.31564,0.22891 a 8.1015594,8.1139272 0 0 0 0.14065,0.34337 c -0.0375,-0.0733 -0.0616,-0.12332 -0.0616,-0.12327 6e-5,1.7e-4 -0.0326,-0.0905 -0.0791,-0.2201 z m 15.65633,1.13575 c -0.13199,0.24241 -0.22868,0.41398 -0.22856,0.41379 4e-5,-5e-5 -0.0433,0.0382 -0.11428,0.10569 a 8.1015594,8.1139272 0 0 0 0.34284,-0.51944 z m -14.08278,1.33824 a 8.1015594,8.1139272 0 0 0 0.43953,0.4314 c 0.003,0.008 0.005,0.0102 0.008,0.0176 -0.11586,-0.0739 -0.18463,-0.11448 -0.18461,-0.11446 3e-5,3e-5 -0.11059,-0.1411 -0.26373,-0.33455 z m 164.00031,26.86153 a 8.1015594,8.1139272 0 0 0 0.10553,0.51064 c -0.0703,-0.25568 -0.0914,-0.42325 -0.10553,-0.51064 z" />
    <path
       style="display:none;fill:#d4ff2a;stroke-width:1.60749e-08;paint-order:stroke fill markers"
       d="m 343.00515,83.151535 c -24.56632,3.470606 -48.0754,12.046935 -71.08808,21.044845 -10.43024,4.66292 -21.00413,9.46851 -30.16886,16.37125 -1.65807,2.3078 -4.97594,2.81139 -6.93296,0.53031 -5.9681,-3.7984 -13.45931,-3.69796 -20.26152,-4.68824 -14.97878,-1.40662 -30.24262,-0.85729 -44.97938,2.21721 -3.61297,0.4296 -5.99889,3.97066 -9.63545,3.94428 C 146.91264,112.20211 131.11254,106.05587 115.77695,99.903384 96.268008,92.671045 76.385035,85.682165 55.62943,83.209139 c -3.770818,0.0045 -5.397341,4.219332 -4.46531,7.435044 1.904911,21.137517 6.316056,42.221347 15.382859,61.512577 3.937263,9.40582 8.821208,18.38319 15.036026,26.48333 3.007754,4.65407 6.584039,8.98713 11.387726,11.84251 3.104317,2.45682 -0.361469,5.86752 -0.895162,8.66357 -4.757915,15.78213 -10.384309,32.03704 -8.54683,48.78285 0.789596,13.98713 4.012185,28.7824 13.824769,39.3392 10.450052,12.97898 25.606712,21.13875 41.393472,25.70709 18.29975,5.30021 36.96839,9.58752 55.88331,11.94971 14.38637,0.62844 28.50968,-3.11401 42.5224,-5.86033 19.74186,-4.67147 40.49749,-9.73403 56.23941,-23.32371 8.05831,-7.34474 15.41106,-16.04983 18.35048,-26.78258 3.99843,-12.34318 4.33189,-25.61742 3.25975,-38.4466 -2.18174,-11.88453 -5.4532,-23.61489 -9.56539,-34.96953 -1.76608,-2.26819 -0.22212,-5.69071 2.39997,-6.51967 6.74399,-4.4393 10.30856,-12.11367 15.04395,-18.40979 7.33504,-11.87629 12.57981,-24.97126 17.01068,-38.17544 4.51052,-14.54865 6.87809,-29.71671 8.05892,-44.87445 -0.25637,-2.442419 -2.3665,-4.654789 -4.94531,-4.411385 z"
       id="mask-area" />
  </g>
</svg>
