<?xml version="1.0" encoding="UTF-8" standalone="no"?>
<svg
   width="400"
   height="400"
   viewBox="0 0 400 400"
   version="1.1"
   id="svg20"
   sodipodi:docname="線画猫_怒り_id.svg"
   inkscape:version="1.4.3 (0d15f75, 2025-12-25)"
   xmlns:inkscape="http://www.inkscape.org/namespaces/inkscape"
   xmlns:sodipodi="http://sodipodi.sourceforge.net/DTD/sodipodi-0.dtd"
   xmlns="http://www.w3.org/2000/svg"
   xmlns:svg="http://www.w3.org/2000/svg">
  <defs
     id="defs20" />
  <sodipodi:namedview
     id="namedview20"
     pagecolor="#ffffff"
     bordercolor="#000000"
     borderopacity="0.25"
     inkscape:showpageshadow="2"
     inkscape:pageopacity="0.0"
     inkscape:pagecheckerboard="0"
     inkscape:deskcolor="#d1d1d1"
     inkscape:zoom="9.15625"
     inkscape:cx="48"
     inkscape:cy="48"
     inkscape:window-width="2048"
     inkscape:window-height="1081"
     inkscape:window-x="-8"
     inkscape:window-y="-8"
     inkscape:window-maximized="1"
     inkscape:current-layer="レイヤー_2" />
  <g
     stroke-linecap="round"
     id="レイヤー_2"
     style="display:inline">
    <path
       id="maskpath"
       style="baseline-shift:baseline;display:inline;overflow:visible;opacity:1;vector-effect:none;fill:#1b1515;stroke-linecap:butt;stroke-linejoin:round;enable-background:accumulate;stop-color:#000000;stop-opacity:1"
       d="m 36.05957,47.062174 a 7.50075,7.50075 0 0 0 -3.059896,0.594076 7.50075,7.50075 0 0 0 -4.410807,5.598958 c -0.128346,0.742575 -0.02041,0.80685 -0.04883,1.27767 h -0.05697 v 1.114908 a 7.5,7.5 0 0 0 0.01628,0.04883 c 0.108045,0.91539 0.370574,1.331636 0.488281,1.660156 0.187841,0.524261 0.337017,0.856557 0.504557,1.212565 0.271635,0.577203 0.606545,1.181432 0.952149,1.814779 a 7.5,7.5 0 0 0 0.325521,0.610351 c 0.804828,1.441461 1.818278,3.141772 3.002929,5.029297 l -0.0081,0.0081 c -0.296349,0.710544 -0.572424,1.534643 -0.602213,1.652018 0.01309,-0.03099 0.04119,-0.09355 0.07324,-0.179036 a 7.50075,7.50075 0 0 0 -0.07324,0.195312 c -0.563166,1.689498 -0.477236,2.171057 -0.537109,2.954102 -0.05987,0.783046 -0.08554,1.587719 -0.09766,2.473958 -0.02424,1.772478 0.01975,3.858089 0.113933,6.054688 0.188374,4.3932 0.508488,8.955746 1.236979,12.556966 a 7.50075,7.50075 0 0 0 0.0081,0.04069 c 0.264015,1.265452 0.590659,2.489706 1.261393,5.175781 0.670733,2.686075 1.551535,6.170017 2.46582,9.749347 1.828571,7.15865 3.604706,14.11972 4.60612,17.20378 1.661584,5.13995 6.980909,17.93673 11.271159,24.83723 a 7.50075,7.50075 0 0 0 0.02441,0.0488 c 1.871526,2.96581 5.376392,8.48129 7.73112,11.63737 a 7.50075,7.50075 0 0 0 0.02441,0.0325 c 1.394398,1.84983 2.748027,3.05473 4.630534,4.80144 1.214825,1.12719 2.585843,2.35474 4.02832,3.62142 a 7.5,7.5 0 0 0 -0.236003,1.60319 c -0.057,1.66442 -0.110558,3.70644 0.01628,5.59082 a 7.50075,7.50075 0 0 0 0.01628,0.20345 c 0.62692,6.61541 0.642904,13.37458 0.642904,15.05534 a 7.5,7.5 0 0 0 0.406901,2.4414 c -0.488381,2.54345 -0.93114,4.80401 -1.253255,6.25 a 7.50075,7.50075 0 0 0 -0.05697,0.25228 c -1.881641,10.09611 -2.518837,15.09966 -3.076172,26.57064 a 7.50075,7.50075 0 0 0 -0.0081,0.13021 c -0.340099,10.83167 -0.4741,22.31421 1.448568,29.88281 a 7.50075,7.50075 0 0 0 0.01628,0.057 c 1.930151,7.3587 6.703082,17.9765 12.076823,24.56054 a 7.50075,7.50075 0 0 0 0.02441,0.0326 c 4.384218,5.3079 13.559821,13.75921 20.548504,19.0918 a 7.50075,7.50075 0 0 0 0.0244,0.0163 c 6.88287,5.21961 15.31894,10.02537 26.44857,15.42155 a 7.50075,7.50075 0 0 0 0.008,0 c 6.17834,2.98887 18.15091,8.87789 26.21256,11.47461 2.70463,0.87217 17.2561,5.61884 22.94922,7.19401 a 7.50075,7.50075 0 0 0 0.0244,0.008 c 9.86014,2.6974 16.97678,3.49671 18.49772,3.65398 -0.0434,0.003 -0.10297,0.005 -0.19531,-0.008 a 7.5,7.5 0 0 0 5.6722,-0.94401 7.5,7.5 0 0 0 4.97233,1.00911 7.5,7.5 0 0 0 1.83105,-0.46386 7.5,7.5 0 0 0 3.02735,-2.20541 7.5,7.5 0 0 0 0.90332,-1.52181 7.5,7.5 0 0 0 0.63476,-2.56347 c -0.034,0.68977 -0.15276,1.35928 -0.37435,1.96126 -0.0829,0.22512 -0.17367,0.40211 -0.26041,0.60221 -1.30907,3.01975 -3.00058,3.31757 -3.67839,3.62142 -0.10322,0.0463 -0.16274,0.0675 -0.25228,0.1058 -0.42601,0.1824 -0.7332,0.29955 -0.91959,0.34993 2.1233,-0.2345 8.92527,-1.09374 18.0664,-3.59701 a 7.50075,7.50075 0 0 0 0.0244,-0.008 c 5.69313,-1.57517 20.24458,-6.32184 22.94921,-7.19401 v -0.008 c 8.05959,-2.59665 20.04855,-8.47665 26.22885,-11.46647 11.11853,-5.39575 19.55756,-10.20194 26.44043,-15.42155 a 7.50075,7.50075 0 0 0 0.0163,-0.0163 c 6.98565,-5.33028 16.17504,-13.76952 20.56478,-19.09993 a 7.50075,7.50075 0 0 0 0.0163,-0.0244 c 5.37374,-6.58404 10.14667,-17.20184 12.07682,-24.56054 a 7.50075,7.50075 0 0 0 0.0163,-0.057 c 1.92034,-7.55942 1.79117,-19.04899 1.44043,-29.89095 a 7.50075,7.50075 0 0 0 0,-0.12207 c -0.55712,-11.46658 -1.19129,-16.47594 -3.08431,-26.57878 a 7.50075,7.50075 0 0 0 -0.0488,-0.24414 c -0.32209,-1.44587 -0.76492,-3.7068 -1.25326,-6.25 a 7.5,7.5 0 0 0 0.4069,-2.4414 c 0,-1.68076 0.0154,-8.43037 0.65104,-15.03907 a 7.50075,7.50075 0 0 0 0.0244,-0.29297 c 0.10262,-1.77873 0.052,-3.85066 0.008,-5.46061 a 7.5,7.5 0 0 0 -0.23601,-1.66829 c 1.43928,-1.26397 2.79966,-2.48835 4.01205,-3.61328 1.88251,-1.74671 3.24427,-2.95161 4.63867,-4.80144 a 7.50075,7.50075 0 0 0 0.0244,-0.0325 c 2.34723,-3.14602 5.86115,-8.66114 7.73926,-11.63737 a 7.50075,7.50075 0 0 0 0.0244,-0.0488 c 4.29587,-6.90953 9.63283,-19.81777 11.27115,-24.8291 a 7.50075,7.50075 0 0 0 0.008,-0.0244 c 0.98491,-3.05539 2.76273,-10.0296 4.58985,-17.1875 0.91356,-3.57896 1.78715,-7.063458 2.45768,-9.749347 0.67053,-2.685889 1.00551,-3.910329 1.26953,-5.175781 a 7.50075,7.50075 0 0 0 0,-0.03255 c 0.73836,-3.61589 1.05799,-8.178382 1.24512,-12.573242 0.0936,-2.197429 0.13906,-4.273921 0.11393,-6.04655 -0.0126,-0.886314 -0.0456,-1.691229 -0.10579,-2.473958 -0.0596,-0.775041 0.0314,-1.266706 -0.5127,-2.913412 h 0.008 v -0.0081 c -0.0183,-0.08833 -0.3168,-0.956945 -0.61849,-1.68457 -0.003,-0.0068 -0.005,-0.0094 -0.008,-0.01628 1.18481,-1.88951 2.19016,-3.602788 2.99479,-5.045573 a 7.5,7.5 0 0 0 0.31738,-0.577799 c 0.35143,-0.644 0.67706,-1.2539 0.95215,-1.839193 0.16732,-0.356007 0.32518,-0.696597 0.5127,-1.220703 0.11742,-0.328189 0.38025,-0.739254 0.48828,-1.652018 a 7.5,7.5 0 0 0 0.0163,-0.04883 v -1.114908 h -0.0651 c -0.0284,-0.47067 0.0877,-0.534934 -0.0407,-1.27767 a 7.50075,7.50075 0 0 0 -4.41081,-5.598958 7.50075,7.50075 0 0 0 -10.43294,6.787109 c -0.0226,-0.4925 -0.121,-1.223315 -0.0651,-1.440429 -0.10608,0.200761 -0.1453,0.277338 -0.28483,0.528971 -0.70805,1.27687 -1.79914,3.123137 -3.07618,5.135091 -2.5517,4.020145 -5.95314,8.825673 -8.37402,11.507162 -1.20795,1.327167 -18.06199,17.835106 -20.58105,19.832356 -5.34773,4.204842 -17.07078,14.033572 -20.19043,16.202802 -0.74059,0.50381 -6.68371,3.78988 -11.96289,6.50228 -5.288,2.71693 -10.50207,5.30349 -11.76758,5.92448 a 7.50075,7.50075 0 0 0 -0.008,0.008 c -3.56833,1.75685 -8.42638,3.77985 -12.60579,5.34668 -1.99185,0.74673 -4.09963,1.40234 -5.65593,1.87174 -0.17684,-0.0651 -0.34709,-0.11984 -0.52083,-0.17904 -0.85804,-0.29233 -1.77309,-0.56028 -2.8239,-0.83821 -2.09766,-0.55481 -4.64356,-1.12621 -7.12076,-1.54623 -2.45038,-0.41907 -15.22105,-4.12845 -26.44043,-6.53483 a 7.50075,7.50075 0 0 0 -0.0733,-0.0163 c -7.02107,-1.43512 -13.24834,-1.72383 -17.83854,-1.65202 -2.2951,0.0359 -4.17642,0.15929 -5.55827,0.29297 -0.69092,0.0668 -1.2521,0.13306 -1.70084,0.19531 -0.0144,0.002 -0.0347,0.006 -0.0488,0.008 -0.0143,-0.002 -0.0261,-0.006 -0.0407,-0.008 -0.4487,-0.0623 -1.01001,-0.12847 -1.70085,-0.19531 -1.38168,-0.13368 -3.26372,-0.25706 -5.55826,-0.29297 -4.58907,-0.0718 -10.82172,0.21664 -17.83855,1.65202 a 7.50075,7.50075 0 0 0 -0.0651,0.0163 c -11.23003,2.40643 -24.00657,6.1162 -26.44857,6.53483 -2.47596,0.41997 -5.01609,0.99171 -7.11263,1.54623 -1.05081,0.27793 -1.96585,0.54588 -2.82389,0.83821 -0.17407,0.0593 -0.34363,0.11381 -0.52083,0.17904 -1.55634,-0.46955 -3.67198,-1.12492 -5.66407,-1.87174 -4.18029,-1.56716 -9.03052,-3.58866 -12.60579,-5.34668 a 7.50075,7.50075 0 0 0 -0.008,-0.008 c -1.26551,-0.62099 -6.47958,-3.20755 -11.76758,-5.92448 -5.27918,-2.7124 -11.222298,-5.99847 -11.962889,-6.50228 -3.119484,-2.16904 -14.8427,-11.99796 -20.19043,-16.202802 -2.519907,-1.99838 -19.43087,-18.57111 -20.572796,-19.832714 -2.422515,-2.682203 -5.826443,-7.484427 -8.382161,-11.507162 -1.278383,-2.012193 -2.375363,-3.858083 -3.08431,-5.135091 -0.139226,-0.250784 -0.170709,-0.328668 -0.276693,-0.528971 0.05613,0.217432 -0.04242,0.946897 -0.0651,1.440429 A 7.50075,7.50075 0 0 0 36.05957,47.062174 Z M 206.02214,338.32194 c -0.15623,0.0172 -0.27793,0.038 -0.38249,0.0488 0.0618,0.005 0.15611,0.0124 0.38249,-0.0488 z M 33.162435,67.700195 c 0.0024,-0.0049 -0.0039,-0.007 0,-0.01628 -5.61e-4,0.0022 -0.0078,0.01458 -0.0081,0.01628 z M 357.19401,52.164714 c -0.004,0.0084 -0.0116,0.0144 -0.0163,0.02441 -0.0111,0.02354 -0.0654,0.130049 -0.0814,0.16276 0.008,-0.0081 0.0286,-0.03337 0.0407,-0.04883 h 0.008 v -0.0081 c 0.0224,-0.06266 0.0378,-0.101444 0.0488,-0.130208 z m -314.119466,0.04069 c 0.0097,0.02595 0.01783,0.04843 0.03255,0.08952 v 0.0081 h 0.0081 c 0.004,0.0052 0.01113,0.01077 0.01628,0.01628 -0.02079,-0.0396 -0.04357,-0.08755 -0.05697,-0.113932 z m 4.956055,32.128906 c 5.385877,5.491119 13.989565,13.881442 18.457031,17.4235 a 7.50075,7.50075 0 0 0 0.02441,0.0163 c 4.655492,3.65922 15.570999,13.03754 20.963542,16.7806 a 7.50075,7.50075 0 0 0 0.04069,0.0244 c 3.165667,2.1647 8.191633,4.69263 13.598638,7.4707 5.40419,2.77663 10.57593,5.34596 12.00358,6.04655 4.27474,2.10197 9.40263,4.23042 13.96484,5.94076 4.5622,1.71034 7.35678,2.94367 11.23861,3.44238 a 7.50075,7.50075 0 0 0 0.15462,0.0163 c 1.89748,0.2033 3.55355,-0.23318 4.78516,-0.78939 a 7.5,7.5 0 0 0 2.06706,-1.3916 c 1.63727,-0.42824 3.8281,-0.91795 5.66406,-1.22884 a 7.50075,7.50075 0 0 0 0.0163,0 c 5.95068,-1.02012 16.69988,-4.42685 27.01823,-6.64063 5.68014,-1.15882 10.8477,-1.40899 14.55892,-1.35091 1.85921,0.0291 3.3502,0.13155 4.34571,0.22787 0.37908,0.0366 0.69234,0.07 0.91145,0.0976 -0.1527,-0.0481 -0.34813,-0.11062 -0.60221,-0.19531 a 7.5,7.5 0 0 0 0.87891,0.236 c 0.0467,0.007 0.0725,0.009 0.0651,0.008 v 0.008 a 7.5,7.5 0 0 0 1.94499,0.11393 7.5,7.5 0 0 0 1.92871,-0.11393 l 0.008,-0.008 c -0.007,0.001 0.0189,-7.8e-4 0.0651,-0.008 a 7.5,7.5 0 0 0 0.87891,-0.236 c -0.25414,0.0847 -0.4495,0.14715 -0.60222,0.19531 0.2191,-0.0276 0.52414,-0.061 0.90332,-0.0976 0.99565,-0.0963 2.49395,-0.19878 4.35385,-0.22787 3.71164,-0.0581 8.88288,0.19259 14.56705,1.35091 10.30976,2.21382 21.06362,5.62087 27.02637,6.64063 a 7.50075,7.50075 0 0 0 0.008,0 c 1.83622,0.31094 4.0267,0.80055 5.66406,1.22884 a 7.5,7.5 0 0 0 1.98568,1.35091 c 1.29217,0.60301 2.95278,1.03338 4.85026,0.83008 a 7.50075,7.50075 0 0 0 0.15462,-0.0163 c 3.88334,-0.49718 6.68367,-1.73171 11.24675,-3.44238 4.55993,-1.70948 9.6868,-3.83091 13.9567,-5.93262 l 0.008,-0.008 c 1.42923,-0.70138 6.60079,-3.27064 12.00358,-6.04655 5.407,-2.77807 10.43297,-5.306 13.59863,-7.4707 a 7.50075,7.50075 0 0 0 0.0407,-0.0244 c 5.39255,-3.74306 16.29992,-13.12138 20.95541,-16.7806 a 7.50075,7.50075 0 0 0 0.0244,-0.0163 c 4.46547,-3.540481 13.09302,-11.944764 18.47331,-17.4235 -0.17546,1.885725 -0.37683,3.490631 -0.54525,4.345703 0.0469,-0.253337 -0.50981,2.117102 -1.13932,4.638672 -0.66322,2.656611 -1.53498,6.125057 -2.44141,9.676105 -1.81095,7.09451 -3.94103,15.0682 -4.32943,16.27604 -0.0711,0.21084 -7.84347,18.49437 -9.73307,21.54134 -1.78308,2.82474 -5.5703,8.64447 -7.04752,10.62826 0.13601,-0.18381 -1.19683,1.29967 -2.84831,2.83203 -1.66125,1.54141 -3.80447,3.43129 -6.05469,5.37109 -4.48255,3.86418 -9.41099,7.93552 -12.24772,10.24577 -1.6807,1.33555 -3.95622,2.72938 -5.9082,3.7028 -1.51425,0.75513 -3.24505,1.22886 -3.41797,1.34278 l -0.008,0.008 v 0.008 c -1.03303,0.0466 -4.38462,0.21289 -5.51758,0.24414 a 7.5,7.5 0 0 0 -7.29167,7.69857 7.5,7.5 0 0 0 7.70671,7.29167 c 1.531,-0.0422 4.63954,-0.0641 7.09635,-0.3418 3.4316,-0.38962 5.33952,-1.44052 8.12989,-2.83203 1.83852,-0.91684 3.76583,-2.0086 5.66406,-3.27962 0.30678,1.56459 0.67798,3.51119 1.06608,5.57454 0.92756,4.93131 1.94916,10.46756 2.70182,13.86719 1.8197,9.72205 2.2696,13.28909 2.80762,24.32454 0.32589,10.15708 -0.39444,23.25496 -0.99284,25.64291 -0.6461,2.42979 -7.87433,17.26319 -9.16341,18.84765 -2.34315,2.83923 -12.37965,12.35313 -18.05013,16.68294 l -0.008,0.008 c -5.69644,4.3189 -13.27184,8.71294 -23.9095,13.87533 -6.14093,2.97068 -18.68527,8.88187 -24.28386,10.68522 a 7.50075,7.50075 0 0 0 -0.008,0 c -2.81667,0.90827 -17.89017,5.78513 -22.33072,7.01497 -9.07393,2.48465 -17.15441,3.32245 -16.56088,3.26335 a 7.50075,7.50075 0 0 0 -0.48014,0.0651 c -0.31216,0.052 -0.50842,-0.0863 -2.02637,0.59408 -0.23065,0.10339 -0.56635,0.20832 -0.96028,0.39876 -0.36426,-0.18419 -0.67509,-0.29645 -0.90332,-0.39876 -1.51795,-0.68046 -1.75621,-0.54928 -2.09148,-0.60221 a 7.50075,7.50075 0 0 0 -0.42317,-0.057 c 0.73711,0.0737 -7.4222,-0.76668 -16.55274,-3.26335 h -0.008 c -4.4419,-1.23033 -19.51428,-6.10677 -22.33073,-7.01497 -5.59709,-1.80286 -18.13256,-7.72157 -24.27572,-10.69336 h -0.008 c -10.64327,-5.16066 -18.22232,-9.54913 -23.91764,-13.86719 v -0.008 h -0.008 c -5.66531,-4.32587 -15.668621,-13.81743 -18.041996,-16.68294 -1.291323,-1.58974 -8.525586,-16.41838 -9.171549,-18.84765 -0.595947,-2.37842 -1.300858,-15.47637 -0.984701,-25.64291 0.534981,-10.97106 0.995665,-14.598 2.783203,-24.21061 l 0.02442,-0.10579 c 0.0096,-0.0518 0.0147,-0.0944 0.02441,-0.14649 0.750374,-3.40809 1.759602,-8.84933 2.677408,-13.72884 0.388175,-2.06373 0.759272,-4.0098 1.066081,-5.57454 1.900772,1.27193 3.832557,2.3627 5.672201,3.27962 2.790695,1.39095 4.681874,2.44069 8.113613,2.83203 a 7.50075,7.50075 0 0 0 0.008,0 c 2.45681,0.27772 5.56536,0.29957 7.09636,0.3418 a 7.5,7.5 0 0 0 7.69857,-7.29167 7.5,7.5 0 0 0 -7.29167,-7.69857 c -1.13153,-0.0312 -4.47285,-0.19733 -5.50944,-0.24414 v -0.008 -0.008 l -0.008,-0.008 c -0.17712,-0.11471 -1.90521,-0.58065 -3.41797,-1.33464 -1.954142,-0.97399 -4.229612,-2.36894 -5.908203,-3.7028 -2.836731,-2.31025 -7.77331,-6.38159 -12.25586,-10.24577 -2.250223,-1.9398 -4.385306,-3.82968 -6.046549,-5.37109 -1.651439,-1.53231 -2.984224,-3.01573 -2.848307,-2.83203 -1.469768,-1.97386 -5.249846,-7.7932 -7.039388,-10.62826 -1.894608,-3.05508 -9.712314,-21.46081 -9.733073,-21.52506 a 7.50075,7.50075 0 0 0 0,-0.0163 c -0.378586,-1.16594 -2.523636,-9.1747 -4.337566,-16.27604 -0.906964,-3.550671 -1.778077,-7.01968 -2.441406,-9.676105 -0.620546,-2.485093 -1.152947,-4.743452 -1.123047,-4.56543 -0.005,-0.02405 -0.01418,-0.03734 -0.01628,-0.04883 -0.168555,-0.860574 -0.361027,-2.47851 -0.537109,-4.370117 z m 154.378251,46.08561 c -0.0685,0.009 -0.12869,0.0174 -0.17903,0.0244 -0.0384,0.005 -0.0712,0.0121 -0.0977,0.0163 a 7.5,7.5 0 0 1 -0.0732,0.0163 c -0.0227,0.0108 -0.1077,0.0463 -0.13021,0.0651 v 0.008 h 0.008 c 0.0447,-0.005 0.18397,-0.0394 0.472,-0.13021 z m -4.22363,0.057 a 7.5,7.5 0 0 1 -0.0651,-0.0163 c -0.0263,-0.004 -0.0595,-0.011 -0.0977,-0.0163 -0.0504,-0.007 -0.11045,-0.0158 -0.17904,-0.0244 0.28803,0.0908 0.41908,0.12512 0.46387,0.13021 h 0.008 0.008 v -0.008 h -0.008 c -0.0321,-0.0199 -0.11072,-0.0558 -0.13021,-0.0651 z m -68.4082,62.83366 a 7.5,7.5 0 0 0 -5.76986,2.80761 7.5,7.5 0 0 0 -1.64388,0.39877 7.5,7.5 0 0 0 -4.19108,3.92252 c 0.57081,-1.25579 -0.31989,0.53588 -0.8138,1.38347 -0.24696,0.42379 -0.49299,0.84687 -0.69173,1.18815 -0.0994,0.17064 -0.18018,0.31519 -0.26042,0.45573 -0.004,0.007 -0.0135,0.0205 -0.0163,0.0244 h -0.008 v -0.008 c -7.5e-4,-0.004 6.1e-4,-0.0112 0,-0.0163 v -0.008 h -0.008 v 0.008 h -0.008 l -0.008,0.008 c -0.0234,0.0342 -0.0756,0.13189 -0.18717,0.37435 -0.0558,0.10761 -0.1361,0.27586 -0.21973,0.4069 a 7.5,7.5 0 0 0 -0.83822,6.27442 c -0.0436,0.15467 -0.0886,0.30481 -0.1302,0.44759 -0.32785,1.12566 -0.59601,1.97653 -0.84636,3.00293 -1.25794,5.16419 -1.13923,10.88486 -0.59407,15.82845 a 7.50075,7.50075 0 0 0 0.008,0.0163 c 0.2275,2.02153 0.70683,4.85791 1.2614,7.72298 0.55458,2.86507 0.75438,4.80519 1.92871,7.68229 a 7.50075,7.50075 0 0 0 0.0244,0.0814 c 0.61999,1.47249 0.83686,1.63013 1.29395,2.38444 0.45709,0.7543 0.99338,1.60705 1.5625,2.4821 1.13824,1.75011 2.06994,3.23521 3.40983,4.80957 a 7.50075,7.50075 0 0 0 0.0488,0.0651 c 2.71831,3.12606 5.65954,5.1918 9.0983,6.97428 a 7.50075,7.50075 0 0 0 0.13021,0.0651 c 4.65189,2.29723 9.73684,3.08654 15.46224,2.85644 a 7.50075,7.50075 0 0 0 0.0732,0 c 6.15468,-0.30359 12.65614,-1.93921 17.8711,-4.70377 a 7.50075,7.50075 0 0 0 0.0488,-0.0244 c 7.42444,-4.00636 8.97486,-4.97095 10.30273,-6.29882 a 7.5,7.5 0 0 0 0.50456,-0.5778 7.5,7.5 0 0 0 7.77995,-6.61621 7.5,7.5 0 0 0 -6.5918,-8.30892 c 0.34036,0.0392 0.51941,0.0595 0.56966,0.057 h 0.008 v -0.008 l -0.008,-0.008 c -0.0942,-0.0474 -0.92385,-0.23574 -1.69271,-0.56153 -1.17158,-0.49641 -2.75006,-1.24709 -4.41081,-2.11588 -3.3193,-1.73645 -7.07834,-4.05165 -9.04134,-5.61524 -1.39566,-1.12318 -5.77259,-5.13418 -9.611,-8.82161 -1.92267,-1.84703 -3.77736,-3.66268 -5.22461,-5.11068 -1.40914,-1.40988 -2.64813,-2.76082 -2.53906,-2.62044 -0.004,-0.005 -0.005,-0.0128 -0.008,-0.0163 -0.43899,-0.55058 -4.76316,-6.82854 -6.32324,-9.2041 -1.1096,-1.74764 -1.88425,-3.08617 -2.22168,-3.77604 -0.003,-0.006 -0.005,-0.0185 -0.008,-0.0244 a 7.5,7.5 0 0 0 -7.4707,-7.28353 z m 140.6901,0 a 7.5,7.5 0 0 0 -7.4707,7.29166 c -0.003,0.006 -0.005,0.0103 -0.008,0.0163 -0.33576,0.68798 -1.10108,2.03614 -2.22168,3.79232 -0.005,0.007 -0.003,0.009 -0.008,0.0163 -1.58388,2.41014 -5.94769,8.73123 -6.32324,9.18783 0.10938,-0.14074 -1.12978,1.21027 -2.53906,2.62044 -1.44723,1.44814 -3.3023,3.26339 -5.22461,5.11068 -3.83608,3.68636 -8.19435,7.69144 -9.59473,8.82161 -1.97305,1.56721 -5.73187,3.88028 -9.04948,5.61524 -1.66167,0.86898 -3.2389,1.61939 -4.4108,2.11588 -0.76906,0.32582 -1.60612,0.52223 -1.70085,0.56966 v 0.008 h 0.008 0.008 c 0.0501,0.003 0.22116,-0.0178 0.56152,-0.057 a 7.5,7.5 0 0 0 -6.5918,8.30892 7.5,7.5 0 0 0 7.77995,6.63248 7.5,7.5 0 0 0 0.50456,0.56153 c 1.32787,1.32787 2.87829,2.29246 10.30273,6.29882 a 7.50075,7.50075 0 0 0 0.0488,0.0244 c 5.21496,2.76456 11.71641,4.40018 17.87109,4.70377 a 7.50075,7.50075 0 0 0 0.0733,0 c 5.72588,0.23012 10.80165,-0.54137 15.47037,-2.85644 a 7.50075,7.50075 0 0 0 0.12207,-0.0651 c 3.43876,-1.78248 6.38,-3.84822 9.09831,-6.97428 a 7.50075,7.50075 0 0 0 0.0488,-0.0651 c 1.33989,-1.57436 2.26345,-3.05946 3.40169,-4.80957 0.56912,-0.87505 1.11355,-1.7278 1.57064,-2.4821 0.45709,-0.75431 0.66582,-0.91195 1.28581,-2.38444 a 7.50075,7.50075 0 0 0 0.0325,-0.0814 c 1.17433,-2.8771 1.37413,-4.81722 1.92871,-7.68229 0.55457,-2.86507 1.03389,-5.70145 1.26139,-7.72298 a 7.50075,7.50075 0 0 0 0,-0.0163 c 0.54516,-4.94359 0.67201,-10.66426 -0.58593,-15.82845 -0.24353,-0.99845 -0.51836,-1.86431 -0.84636,-2.99479 -0.0474,-0.16351 -0.0971,-0.33898 -0.14648,-0.5127 a 7.5,7.5 0 0 0 -0.84636,-6.16862 v -0.008 a 7.5,7.5 0 0 0 -0.0244,-0.13834 c -0.0764,-0.11584 -0.15609,-0.2572 -0.20345,-0.34994 -0.0453,-0.0944 -0.0558,-0.11266 -0.0407,-0.0814 -0.0591,-0.12197 -0.0987,-0.20873 -0.11393,-0.22786 h -0.008 v -0.008 h -0.008 v 0.008 h -0.008 -0.008 v -0.008 l -0.008,-0.008 c -0.003,-0.004 -0.004,-0.009 -0.008,-0.0163 -0.0802,-0.14054 -0.16919,-0.28509 -0.26856,-0.45573 -0.19874,-0.34128 -0.44477,-0.76436 -0.69173,-1.18815 -0.49391,-0.84759 -1.37647,-2.63926 -0.80566,-1.38347 a 7.5,7.5 0 0 0 -4.19922,-3.92252 7.5,7.5 0 0 0 -1.63574,-0.39877 7.5,7.5 0 0 0 -5.778,-2.80761 z m -133.32519,6.99056 h 0.008 v 0.008 l 0.008,0.008 c 0.0134,0.0259 0.0332,0.0911 0.057,0.20345 -0.0465,-0.10562 -0.0691,-0.18296 -0.0732,-0.21159 z m 125.95215,0.0163 h 0.008 v 0.008 c -0.004,0.0286 -0.0265,0.0975 -0.0732,0.20345 0.0239,-0.11254 0.0516,-0.18563 0.0651,-0.21159 z m 8.01595,15.68197 c 0.24764,0.87213 0.4586,1.65227 0.43131,1.53808 0.26173,1.08974 0.58583,7.59444 0.25228,10.62826 -0.12396,1.09512 -0.58575,3.96925 -1.08236,6.53483 -0.38796,2.00435 -1.04413,4.35207 -1.13932,4.8584 -0.0608,0.11186 -0.12794,0.2416 -0.20345,0.36621 -0.34166,0.56382 -0.82248,1.31275 -1.31836,2.0752 -0.95777,1.47262 -2.25832,3.24922 -2.22168,3.22265 -0.17172,0.164 -3.63082,2.91477 -4.59798,3.44238 -0.26283,0.10671 -5.39654,1.39197 -8.11361,1.29395 -2.77973,-0.14558 -10.12052,-2.20761 -11.54785,-2.96224 h -0.008 c -0.51792,-0.27981 -1.00059,-0.54433 -1.44857,-0.78939 2.23692,-1.34344 4.40755,-2.79569 6.31511,-4.31315 a 7.50075,7.50075 0 0 0 0.0407,-0.0244 c 2.61981,-2.11021 6.63346,-5.89324 10.60384,-9.70866 1.98519,-1.90771 3.89031,-3.77541 5.4362,-5.32227 1.5459,-1.54687 2.49217,-2.45059 3.51562,-3.69466 1.55426,-1.8897 3.47643,-4.70969 5.08627,-7.14518 z m -141.96778,0.008 c 1.60932,2.43462 3.53282,5.24833 5.08627,7.13704 1.02345,1.24407 1.96943,2.14766 3.51562,3.69466 1.54619,1.54699 3.45012,3.41431 5.4362,5.32227 3.97217,3.81593 7.9875,7.60153 10.62012,9.7168 a 7.50075,7.50075 0 0 0 0.0244,0.0163 c 1.90653,1.51949 4.07959,2.9699 6.3151,4.31315 -0.45002,0.24614 -0.93606,0.50815 -1.4567,0.78939 -1.42733,0.75463 -8.77626,2.81666 -11.55599,2.96224 -2.71672,0.0981 -7.81337,-1.1778 -8.11361,-1.30208 -0.97414,-0.53442 -4.41841,-3.27055 -4.58984,-3.43425 0.0365,0.0264 -1.2721,-1.7501 -2.22982,-3.22265 -0.49588,-0.76245 -0.96856,-1.51138 -1.31022,-2.0752 -0.0755,-0.12461 -0.14261,-0.25436 -0.20345,-0.36621 -0.0952,-0.50628 -0.75949,-2.85402 -1.14746,-4.8584 -0.49661,-2.56558 -0.95026,-5.43971 -1.07422,-6.53483 -0.33397,-3.03767 -0.01,-9.55089 0.25228,-10.62826 0.009,-0.0165 0.20184,-0.72594 0.43131,-1.52994 z m 66.82943,53.7679 a 7.5,7.5 0 0 0 -2.02637,0.41504 c -0.11515,0.006 -0.23362,0.0181 -0.34993,0.0244 a 7.50075,7.50075 0 0 0 -1.40788,0.62663 c -1.96863,0.0164 -3.96226,0.19294 -6.03027,0.73242 a 7.50075,7.50075 0 0 0 -0.1709,0.0488 c -3.44655,0.98473 -4.22322,2.9607 -4.66309,3.75977 -0.43988,0.79906 -0.55254,1.18864 -0.67545,1.53808 -0.24581,0.6989 -0.37572,1.1699 -0.58594,1.82292 a 7.50075,7.50075 0 0 0 1.39974,6.9987 c 0.0374,0.0636 0.10995,0.19709 0.13834,0.24414 a 7.50075,7.50075 0 0 0 0.0407,0.0651 c 0.11795,0.19649 0.22314,0.36699 0.4476,0.75684 0.65689,1.14091 1.46461,2.67383 2.80761,4.38639 a 7.50075,7.50075 0 0 0 0.0651,0.0814 c 2.02476,2.51349 4.32691,5.40962 5.96517,7.93457 a 7.50075,7.50075 0 0 0 1.44043,1.63574 l 0.65918,0.56153 a 7.50075,7.50075 0 0 0 6.71386,0.24414 7.50075,7.50075 0 0 0 7.88575,-0.61035 l 0.56966,-0.56153 a 7.5,7.5 0 0 0 0.27669,-0.6429 l 0.0977,0.0732 c -0.49058,0.71952 2.40257,-3.28592 6.722,-8.6263 a 7.50075,7.50075 0 0 0 0.0895,-0.10579 c 1.32873,-1.7058 2.13037,-3.23625 2.7832,-4.37012 0.2329,-0.4045 0.34279,-0.58586 0.45573,-0.77311 a 7.50075,7.50075 0 0 0 0.0732,-0.13021 c 0.0155,-0.0253 0.072,-0.11952 0.0977,-0.16276 a 7.50075,7.50075 0 0 0 1.3916,-7.04753 c -0.21257,-0.64655 -0.34075,-1.10002 -0.58594,-1.79036 -0.12259,-0.34517 -0.23678,-0.73543 -0.67545,-1.52995 -0.43866,-0.79451 -1.21654,-2.7669 -4.66309,-3.75163 a 7.50075,7.50075 0 0 0 -0.16276,-0.0488 c -2.06801,-0.53948 -4.06164,-0.71599 -6.03027,-0.73242 a 7.50075,7.50075 0 0 0 -1.41602,-0.62663 c -0.11623,-0.006 -0.22672,-0.0184 -0.34179,-0.0244 a 7.5,7.5 0 0 0 -3.06804,-0.41504 c -0.16062,0.0247 -0.41479,0.1012 -0.52897,0.11393 -0.0614,0.003 -0.0994,0.003 -0.24414,0.008 -0.4331,0.0152 -1.14235,0.0349 -2.01009,0.057 -0.10726,0.003 -0.22136,0.005 -0.33366,0.008 -0.11213,-0.003 -0.21842,-0.005 -0.32552,-0.008 -0.86705,-0.0221 -1.57083,-0.0419 -2.00195,-0.057 -0.12794,-0.004 -0.15535,-0.005 -0.21973,-0.008 -0.14962,-0.0231 -0.37162,-0.0847 -0.56152,-0.11393 a 7.5,7.5 0 0 0 -1.04167,0 z m 22.55859,16.28418 c -0.0596,0.0734 0.001,0.0102 -0.12207,0.14648 -0.2028,0.22417 -0.47324,0.56613 -1.2858,1.10678 -0.81256,0.54065 -2.57262,1.6746 -5.53386,1.08235 a 7.50075,7.50075 0 0 0 6.94173,-2.33561 z m -36.78385,0.0244 a 7.50075,7.50075 0 0 0 6.95801,2.30306 c -3.03592,0.62275 -4.80756,-0.56083 -5.61524,-1.10677 -0.80767,-0.54594 -1.07126,-0.87709 -1.26953,-1.09863 -0.0379,-0.0423 -0.0464,-0.0606 -0.0488,-0.0651 h -0.008 c -0.003,-0.005 -0.004,-0.0179 -0.0163,-0.0326 z m 27.05078,39.13575 c 0.55322,0.44257 1.35857,1.12754 2.06706,2.6123 0.23997,0.50288 0.34296,1.20048 0.44759,1.87988 a 7.5,7.5 0 0 0 -2.51465,-4.49218 z m -17.95247,0.56152 a 7.5,7.5 0 0 0 -2.04265,4.8584 c 0.0229,-0.67315 0.0466,-1.35957 0.22787,-1.91244 0.50443,-1.53881 1.26735,-2.39853 1.81478,-2.94596 z m -2.03451,6.47786 a 7.5,7.5 0 0 0 2.03451,4.12598 7.5,7.5 0 0 0 1.72526,1.28581 c -0.84224,-0.35295 -2.16752,-1.06953 -3.27963,-3.60514 -0.23737,-0.54122 -0.39319,-1.16039 -0.48014,-1.80665 z" />
  </g>
  <path
     style="display:none;fill:#d4ff2a;stroke-width:1.36519e-08;paint-order:stroke fill markers"
     d="m 46.730125,80.948701 c -4.469854,2.134133 -2.087804,7.456508 -1.370091,11.107812 3.637354,14.380387 6.621775,29.095477 13.265266,42.479277 4.829451,10.38209 11.086659,20.42841 20.244105,27.5407 6.812321,5.36552 12.932471,11.97807 20.929725,15.60056 3.47755,1.66462 7.5707,0.8866 11.06016,2.22109 2.96556,1.68304 1.12832,6.76557 -2.20777,6.13446 -5.17349,0.46192 -10.290236,-0.80677 -14.737807,-3.46019 -2.765762,-1.49203 -6.794637,-3.8761 -9.209271,-0.49408 -1.862854,3.88437 -1.856454,8.54966 -2.940546,12.7441 -2.244491,11.17725 -4.305229,22.43956 -4.334366,33.8823 0.02167,10.88949 -1.144338,22.50434 3.833875,32.59825 2.91815,6.43784 6.085896,12.97362 11.556308,17.66547 10.512937,11.06419 23.293117,19.72386 37.051957,26.23849 12.44322,6.26227 25.27194,11.78653 38.67273,15.66087 9.29916,3.20034 18.89356,5.35939 28.58745,6.92806 4.17889,1.50052 8.32136,-0.87334 12.56845,-1.17026 14.04838,-2.71772 27.68158,-7.32636 41.02964,-12.41282 14.74858,-6.42882 29.57669,-13.17261 42.61744,-22.7141 7.04798,-5.54243 14.01356,-11.44902 19.51614,-18.56603 4.51435,-7.97177 9.45377,-16.33481 9.67224,-25.76587 0.98592,-16.17825 0.16025,-32.52734 -3.29382,-48.39086 -1.20382,-5.43385 -1.7608,-11.07797 -3.55828,-16.3465 -2.08169,-3.3531 -6.19734,-1.95637 -8.7789,-0.10742 -5.11537,3.21657 -11.5059,4.41855 -17.41119,3.35507 -2.88602,-1.51989 -1.77438,-6.40667 1.56605,-6.30687 4.70134,-0.28209 9.56557,-0.98753 13.47501,-3.90004 8.77378,-6.33635 17.31971,-13.16218 24.74136,-21.06264 12.68366,-15.21273 19.02025,-34.49904 23.49849,-53.49817 1.05388,-5.142955 3.12039,-10.223272 3.08179,-15.512247 -0.48,-4.014817 -5.88288,-4.886879 -8.27379,-1.990008 -11.88531,11.327171 -24.27013,22.300525 -37.55422,32.045475 -11.69316,6.59433 -23.58691,12.66835 -35.95159,17.92813 -4.71853,1.50582 -9.74368,4.41577 -14.9452,3.75133 -7.74408,-3.50616 -16.16791,-4.28026 -24.25684,-6.69425 -7.99822,-1.97618 -16.04064,-4.42522 -24.38889,-4.05168 -13.35643,0.035 -27.01802,-1.1081 -40.0113,2.73335 -8.94416,2.49057 -18.02692,4.13363 -26.81154,6.87759 -2.54337,1.62174 -5.56889,1.668 -8.34755,0.58571 C 119.99216,131.58283 105.5535,124.18444 91.611563,116.3076 82.82973,110.3791 74.870313,103.29467 66.65778,96.61103 61.021421,91.687317 56.048096,85.915188 50.133384,81.378113 49.087496,80.530634 47.95873,80.879817 46.730125,80.948701 Z"
     id="mask-area" />
</svg>
